M48
;DRILL file {KiCad (5.0.0)} date 06/18/19 20:44:10
;FORMAT={-:-/ absolute / inch / decimal}
FMAT,2
INCH,TZ
T1C0.0157
T2C0.0256
T3C0.0394
T4C0.1181
T5C0.1260
%
G90
G05
M72
T1
X6.9291Y-2.5315
X6.9567Y-2.7992
X7.1063Y-2.5945
X7.1102Y-2.2677
X7.1333Y-3.1029
X7.1417Y-2.7008
X7.2677Y-2.6535
X7.9055Y-3.6339
X7.9134Y-3.9764
X8.0118Y-2.6102
X8.0394Y-3.5984
X8.2362Y-3.0338
X8.2362Y-3.1142
X8.2717Y-2.6811
X8.3465Y-3.1102
X8.4975Y-4.1403
X8.5472Y-3.878
X8.5945Y-3.9449
X8.6142Y-2.6811
X8.7165Y-2.4606
X8.7205Y-2.3583
T2
X8.0709Y-2.3409
X8.0709Y-2.3909
X8.0709Y-2.4409
X8.0709Y-2.4909
X8.0709Y-2.5409
X8.1209Y-2.3409
X8.1209Y-2.3909
X8.1209Y-2.4409
X8.1209Y-2.4909
X8.1209Y-2.5409
T3
X6.7874Y-2.2441
X6.8504Y-3.5827
X6.8504Y-3.8189
X6.9094Y-2.252
X7.0079Y-2.4016
X7.3504Y-3.9094
X7.4016Y-2.2559
X7.4094Y-2.6063
X7.7402Y-2.6142
X7.7559Y-2.315
X7.9094Y-3.0354
X7.9449Y-3.3189
X7.9882Y-3.1181
X8.0276Y-2.9961
X8.0827Y-3.0433
X8.189Y-3.3465
X8.2283Y-4.0945
X8.3386Y-2.5
X8.3465Y-3.8583
X8.4252Y-3.3071
X8.5039Y-2.2409
X8.5039Y-2.3409
X8.5039Y-2.4409
X8.5039Y-2.5409
X8.5039Y-2.6409
X8.5039Y-2.7409
X8.5039Y-2.8409
X8.5039Y-2.9409
X8.7795Y-3.7551
X8.7795Y-3.8551
X8.7795Y-3.9551
X8.7795Y-4.0551
T4
X7.5669Y-2.4205
T5
X6.8898Y-4.0551
T3
X8.5433Y-3.3858G85X8.5433Y-3.3071
G05
X8.7008Y-3.5315G85X8.622Y-3.5315
G05
X8.7795Y-3.3858G85X8.7795Y-3.3071
G05
T0
M30
