G04 #@! TF.GenerationSoftware,KiCad,Pcbnew,(5.0.0)*
G04 #@! TF.CreationDate,2019-06-18T20:36:07+02:00*
G04 #@! TF.ProjectId,PMS7003wifi,504D5337303033776966692E6B696361,rev?*
G04 #@! TF.SameCoordinates,Original*
G04 #@! TF.FileFunction,Legend,Bot*
G04 #@! TF.FilePolarity,Positive*
%FSLAX46Y46*%
G04 Gerber Fmt 4.6, Leading zero omitted, Abs format (unit mm)*
G04 Created by KiCad (PCBNEW (5.0.0)) date 06/18/19 20:36:07*
%MOMM*%
%LPD*%
G01*
G04 APERTURE LIST*
%ADD10C,0.120000*%
%ADD11C,0.150000*%
G04 APERTURE END LIST*
D10*
G04 #@! TO.C,J3*
X216100000Y-86900000D02*
X216100000Y-89600000D01*
X216100000Y-89600000D02*
X218000000Y-89600000D01*
X216100000Y-80400000D02*
X216100000Y-83000000D01*
G04 #@! TO.C,J2*
X214670000Y-73430000D02*
X217330000Y-73430000D01*
X214670000Y-73430000D02*
X214670000Y-55590000D01*
X214670000Y-55590000D02*
X217330000Y-55590000D01*
X217330000Y-73430000D02*
X217330000Y-55590000D01*
X217330000Y-76030000D02*
X217330000Y-74700000D01*
X216000000Y-76030000D02*
X217330000Y-76030000D01*
G04 #@! TO.C,SW3*
X220700000Y-58030000D02*
X220700000Y-64530000D01*
X223300000Y-64530000D02*
X223300000Y-58030000D01*
D11*
G04 #@! TO.C,U2*
X217500000Y-101500000D02*
X217500000Y-104500000D01*
X220500000Y-104500000D02*
X220500000Y-101500000D01*
X217300000Y-101500000D02*
G75*
G03X217300000Y-101500000I-100000J0D01*
G01*
D10*
G04 #@! TO.C,U5*
X207400000Y-65235000D02*
X206577530Y-65235000D01*
X204692470Y-65235000D02*
X203870000Y-65235000D01*
X205962470Y-65235000D02*
X205307530Y-65235000D01*
X207400000Y-60220000D02*
X207400000Y-65235000D01*
X203870000Y-58765000D02*
X203870000Y-65235000D01*
X207400000Y-60220000D02*
X206833471Y-60220000D01*
X205706529Y-60220000D02*
X205563471Y-60220000D01*
X205510000Y-60166529D02*
X205510000Y-60023471D01*
X205510000Y-58896529D02*
X205510000Y-58765000D01*
X205510000Y-58765000D02*
X205307530Y-58765000D01*
X204692470Y-58765000D02*
X203870000Y-58765000D01*
X207400000Y-59460000D02*
X207400000Y-58700000D01*
X207400000Y-58700000D02*
X206270000Y-58700000D01*
G04 #@! TO.C,U1*
X221670000Y-94050000D02*
X224330000Y-94050000D01*
X221670000Y-101730000D02*
X221670000Y-94050000D01*
X224330000Y-101730000D02*
X224330000Y-94050000D01*
X221670000Y-101730000D02*
X224330000Y-101730000D01*
X221670000Y-103000000D02*
X221670000Y-104330000D01*
X221670000Y-104330000D02*
X223000000Y-104330000D01*
G04 #@! TO.C,D1*
X223622500Y-73960000D02*
X220937500Y-73960000D01*
X223622500Y-72040000D02*
X223622500Y-73960000D01*
X220937500Y-72040000D02*
X223622500Y-72040000D01*
G04 #@! TO.C,D2*
X220937500Y-69040000D02*
X223622500Y-69040000D01*
X223622500Y-69040000D02*
X223622500Y-70960000D01*
X223622500Y-70960000D02*
X220937500Y-70960000D01*
G04 #@! TO.C,J3*
D11*
X215333333Y-88452380D02*
X215333333Y-89166666D01*
X215380952Y-89309523D01*
X215476190Y-89404761D01*
X215619047Y-89452380D01*
X215714285Y-89452380D01*
X214952380Y-88452380D02*
X214333333Y-88452380D01*
X214666666Y-88833333D01*
X214523809Y-88833333D01*
X214428571Y-88880952D01*
X214380952Y-88928571D01*
X214333333Y-89023809D01*
X214333333Y-89261904D01*
X214380952Y-89357142D01*
X214428571Y-89404761D01*
X214523809Y-89452380D01*
X214809523Y-89452380D01*
X214904761Y-89404761D01*
X214952380Y-89357142D01*
G04 #@! TO.C,J2*
X216333333Y-76922380D02*
X216333333Y-77636666D01*
X216380952Y-77779523D01*
X216476190Y-77874761D01*
X216619047Y-77922380D01*
X216714285Y-77922380D01*
X215904761Y-77017619D02*
X215857142Y-76970000D01*
X215761904Y-76922380D01*
X215523809Y-76922380D01*
X215428571Y-76970000D01*
X215380952Y-77017619D01*
X215333333Y-77112857D01*
X215333333Y-77208095D01*
X215380952Y-77350952D01*
X215952380Y-77922380D01*
X215333333Y-77922380D01*
G04 #@! TO.C,SW3*
X225154761Y-59946666D02*
X225202380Y-60089523D01*
X225202380Y-60327619D01*
X225154761Y-60422857D01*
X225107142Y-60470476D01*
X225011904Y-60518095D01*
X224916666Y-60518095D01*
X224821428Y-60470476D01*
X224773809Y-60422857D01*
X224726190Y-60327619D01*
X224678571Y-60137142D01*
X224630952Y-60041904D01*
X224583333Y-59994285D01*
X224488095Y-59946666D01*
X224392857Y-59946666D01*
X224297619Y-59994285D01*
X224250000Y-60041904D01*
X224202380Y-60137142D01*
X224202380Y-60375238D01*
X224250000Y-60518095D01*
X224202380Y-60851428D02*
X225202380Y-61089523D01*
X224488095Y-61280000D01*
X225202380Y-61470476D01*
X224202380Y-61708571D01*
X224202380Y-61994285D02*
X224202380Y-62613333D01*
X224583333Y-62280000D01*
X224583333Y-62422857D01*
X224630952Y-62518095D01*
X224678571Y-62565714D01*
X224773809Y-62613333D01*
X225011904Y-62613333D01*
X225107142Y-62565714D01*
X225154761Y-62518095D01*
X225202380Y-62422857D01*
X225202380Y-62137142D01*
X225154761Y-62041904D01*
X225107142Y-61994285D01*
G04 #@! TO.C,U2*
X216252380Y-99938095D02*
X217061904Y-99938095D01*
X217157142Y-99985714D01*
X217204761Y-100033333D01*
X217252380Y-100128571D01*
X217252380Y-100319047D01*
X217204761Y-100414285D01*
X217157142Y-100461904D01*
X217061904Y-100509523D01*
X216252380Y-100509523D01*
X216347619Y-100938095D02*
X216300000Y-100985714D01*
X216252380Y-101080952D01*
X216252380Y-101319047D01*
X216300000Y-101414285D01*
X216347619Y-101461904D01*
X216442857Y-101509523D01*
X216538095Y-101509523D01*
X216680952Y-101461904D01*
X217252380Y-100890476D01*
X217252380Y-101509523D01*
G04 #@! TO.C,U5*
X206396904Y-57217380D02*
X206396904Y-58026904D01*
X206349285Y-58122142D01*
X206301666Y-58169761D01*
X206206428Y-58217380D01*
X206015952Y-58217380D01*
X205920714Y-58169761D01*
X205873095Y-58122142D01*
X205825476Y-58026904D01*
X205825476Y-57217380D01*
X204873095Y-57217380D02*
X205349285Y-57217380D01*
X205396904Y-57693571D01*
X205349285Y-57645952D01*
X205254047Y-57598333D01*
X205015952Y-57598333D01*
X204920714Y-57645952D01*
X204873095Y-57693571D01*
X204825476Y-57788809D01*
X204825476Y-58026904D01*
X204873095Y-58122142D01*
X204920714Y-58169761D01*
X205015952Y-58217380D01*
X205254047Y-58217380D01*
X205349285Y-58169761D01*
X205396904Y-58122142D01*
G04 #@! TO.C,U1*
X223761904Y-104782380D02*
X223761904Y-105591904D01*
X223714285Y-105687142D01*
X223666666Y-105734761D01*
X223571428Y-105782380D01*
X223380952Y-105782380D01*
X223285714Y-105734761D01*
X223238095Y-105687142D01*
X223190476Y-105591904D01*
X223190476Y-104782380D01*
X222190476Y-105782380D02*
X222761904Y-105782380D01*
X222476190Y-105782380D02*
X222476190Y-104782380D01*
X222571428Y-104925238D01*
X222666666Y-105020476D01*
X222761904Y-105068095D01*
G04 #@! TO.C,D1*
X219738095Y-73452380D02*
X219738095Y-72452380D01*
X219500000Y-72452380D01*
X219357142Y-72500000D01*
X219261904Y-72595238D01*
X219214285Y-72690476D01*
X219166666Y-72880952D01*
X219166666Y-73023809D01*
X219214285Y-73214285D01*
X219261904Y-73309523D01*
X219357142Y-73404761D01*
X219500000Y-73452380D01*
X219738095Y-73452380D01*
X218214285Y-73452380D02*
X218785714Y-73452380D01*
X218500000Y-73452380D02*
X218500000Y-72452380D01*
X218595238Y-72595238D01*
X218690476Y-72690476D01*
X218785714Y-72738095D01*
G04 #@! TO.C,D2*
X219738095Y-70452380D02*
X219738095Y-69452380D01*
X219500000Y-69452380D01*
X219357142Y-69500000D01*
X219261904Y-69595238D01*
X219214285Y-69690476D01*
X219166666Y-69880952D01*
X219166666Y-70023809D01*
X219214285Y-70214285D01*
X219261904Y-70309523D01*
X219357142Y-70404761D01*
X219500000Y-70452380D01*
X219738095Y-70452380D01*
X218785714Y-69547619D02*
X218738095Y-69500000D01*
X218642857Y-69452380D01*
X218404761Y-69452380D01*
X218309523Y-69500000D01*
X218261904Y-69547619D01*
X218214285Y-69642857D01*
X218214285Y-69738095D01*
X218261904Y-69880952D01*
X218833333Y-70452380D01*
X218214285Y-70452380D01*
G04 #@! TD*
M02*
