G04 #@! TF.GenerationSoftware,KiCad,Pcbnew,(5.0.0)*
G04 #@! TF.CreationDate,2019-06-18T20:36:07+02:00*
G04 #@! TF.ProjectId,PMS7003wifi,504D5337303033776966692E6B696361,rev?*
G04 #@! TF.SameCoordinates,Original*
G04 #@! TF.FileFunction,Copper,L2,Bot,Signal*
G04 #@! TF.FilePolarity,Positive*
%FSLAX46Y46*%
G04 Gerber Fmt 4.6, Leading zero omitted, Abs format (unit mm)*
G04 Created by KiCad (PCBNEW (5.0.0)) date 06/18/19 20:36:07*
%MOMM*%
%LPD*%
G01*
G04 APERTURE LIST*
G04 #@! TA.AperFunction,ComponentPad*
%ADD10R,3.500000X3.500000*%
G04 #@! TD*
G04 #@! TA.AperFunction,Conductor*
%ADD11C,0.100000*%
G04 #@! TD*
G04 #@! TA.AperFunction,ComponentPad*
%ADD12C,3.000000*%
G04 #@! TD*
G04 #@! TA.AperFunction,ComponentPad*
%ADD13C,3.500000*%
G04 #@! TD*
G04 #@! TA.AperFunction,ComponentPad*
%ADD14R,1.700000X1.700000*%
G04 #@! TD*
G04 #@! TA.AperFunction,ComponentPad*
%ADD15O,1.700000X1.700000*%
G04 #@! TD*
G04 #@! TA.AperFunction,SMDPad,CuDef*
%ADD16R,2.000000X2.500000*%
G04 #@! TD*
G04 #@! TA.AperFunction,SMDPad,CuDef*
%ADD17R,0.300000X1.000000*%
G04 #@! TD*
G04 #@! TA.AperFunction,SMDPad,CuDef*
%ADD18R,2.600000X1.400000*%
G04 #@! TD*
G04 #@! TA.AperFunction,ComponentPad*
%ADD19R,6.000000X6.000000*%
G04 #@! TD*
G04 #@! TA.AperFunction,ComponentPad*
%ADD20R,1.000000X1.000000*%
G04 #@! TD*
G04 #@! TA.AperFunction,ComponentPad*
%ADD21O,1.000000X1.000000*%
G04 #@! TD*
G04 #@! TA.AperFunction,SMDPad,CuDef*
%ADD22C,0.975000*%
G04 #@! TD*
G04 #@! TA.AperFunction,ViaPad*
%ADD23C,0.800000*%
G04 #@! TD*
G04 #@! TA.AperFunction,ViaPad*
%ADD24C,1.500000*%
G04 #@! TD*
G04 #@! TA.AperFunction,Conductor*
%ADD25C,0.600000*%
G04 #@! TD*
G04 #@! TA.AperFunction,Conductor*
%ADD26C,0.250000*%
G04 #@! TD*
G04 #@! TA.AperFunction,Conductor*
%ADD27C,1.000000*%
G04 #@! TD*
G04 #@! TA.AperFunction,Conductor*
%ADD28C,0.254000*%
G04 #@! TD*
G04 APERTURE END LIST*
D10*
G04 #@! TO.P,J3,1*
G04 #@! TO.N,+5V*
X217000000Y-85000000D03*
D11*
G04 #@! TD*
G04 #@! TO.N,GND*
G04 #@! TO.C,J3*
G36*
X223823513Y-83253611D02*
X223896318Y-83264411D01*
X223967714Y-83282295D01*
X224037013Y-83307090D01*
X224103548Y-83338559D01*
X224166678Y-83376398D01*
X224225795Y-83420242D01*
X224280330Y-83469670D01*
X224329758Y-83524205D01*
X224373602Y-83583322D01*
X224411441Y-83646452D01*
X224442910Y-83712987D01*
X224467705Y-83782286D01*
X224485589Y-83853682D01*
X224496389Y-83926487D01*
X224500000Y-84000000D01*
X224500000Y-86000000D01*
X224496389Y-86073513D01*
X224485589Y-86146318D01*
X224467705Y-86217714D01*
X224442910Y-86287013D01*
X224411441Y-86353548D01*
X224373602Y-86416678D01*
X224329758Y-86475795D01*
X224280330Y-86530330D01*
X224225795Y-86579758D01*
X224166678Y-86623602D01*
X224103548Y-86661441D01*
X224037013Y-86692910D01*
X223967714Y-86717705D01*
X223896318Y-86735589D01*
X223823513Y-86746389D01*
X223750000Y-86750000D01*
X222250000Y-86750000D01*
X222176487Y-86746389D01*
X222103682Y-86735589D01*
X222032286Y-86717705D01*
X221962987Y-86692910D01*
X221896452Y-86661441D01*
X221833322Y-86623602D01*
X221774205Y-86579758D01*
X221719670Y-86530330D01*
X221670242Y-86475795D01*
X221626398Y-86416678D01*
X221588559Y-86353548D01*
X221557090Y-86287013D01*
X221532295Y-86217714D01*
X221514411Y-86146318D01*
X221503611Y-86073513D01*
X221500000Y-86000000D01*
X221500000Y-84000000D01*
X221503611Y-83926487D01*
X221514411Y-83853682D01*
X221532295Y-83782286D01*
X221557090Y-83712987D01*
X221588559Y-83646452D01*
X221626398Y-83583322D01*
X221670242Y-83524205D01*
X221719670Y-83469670D01*
X221774205Y-83420242D01*
X221833322Y-83376398D01*
X221896452Y-83338559D01*
X221962987Y-83307090D01*
X222032286Y-83282295D01*
X222103682Y-83264411D01*
X222176487Y-83253611D01*
X222250000Y-83250000D01*
X223750000Y-83250000D01*
X223823513Y-83253611D01*
X223823513Y-83253611D01*
G37*
D12*
G04 #@! TO.P,J3,2*
G04 #@! TO.N,GND*
X223000000Y-85000000D03*
D11*
G04 #@! TD*
G04 #@! TO.N,N/C*
G04 #@! TO.C,J3*
G36*
X220960765Y-87954213D02*
X221045704Y-87966813D01*
X221128999Y-87987677D01*
X221209848Y-88016605D01*
X221287472Y-88053319D01*
X221361124Y-88097464D01*
X221430094Y-88148616D01*
X221493718Y-88206282D01*
X221551384Y-88269906D01*
X221602536Y-88338876D01*
X221646681Y-88412528D01*
X221683395Y-88490152D01*
X221712323Y-88571001D01*
X221733187Y-88654296D01*
X221745787Y-88739235D01*
X221750000Y-88825000D01*
X221750000Y-90575000D01*
X221745787Y-90660765D01*
X221733187Y-90745704D01*
X221712323Y-90828999D01*
X221683395Y-90909848D01*
X221646681Y-90987472D01*
X221602536Y-91061124D01*
X221551384Y-91130094D01*
X221493718Y-91193718D01*
X221430094Y-91251384D01*
X221361124Y-91302536D01*
X221287472Y-91346681D01*
X221209848Y-91383395D01*
X221128999Y-91412323D01*
X221045704Y-91433187D01*
X220960765Y-91445787D01*
X220875000Y-91450000D01*
X219125000Y-91450000D01*
X219039235Y-91445787D01*
X218954296Y-91433187D01*
X218871001Y-91412323D01*
X218790152Y-91383395D01*
X218712528Y-91346681D01*
X218638876Y-91302536D01*
X218569906Y-91251384D01*
X218506282Y-91193718D01*
X218448616Y-91130094D01*
X218397464Y-91061124D01*
X218353319Y-90987472D01*
X218316605Y-90909848D01*
X218287677Y-90828999D01*
X218266813Y-90745704D01*
X218254213Y-90660765D01*
X218250000Y-90575000D01*
X218250000Y-88825000D01*
X218254213Y-88739235D01*
X218266813Y-88654296D01*
X218287677Y-88571001D01*
X218316605Y-88490152D01*
X218353319Y-88412528D01*
X218397464Y-88338876D01*
X218448616Y-88269906D01*
X218506282Y-88206282D01*
X218569906Y-88148616D01*
X218638876Y-88097464D01*
X218712528Y-88053319D01*
X218790152Y-88016605D01*
X218871001Y-87987677D01*
X218954296Y-87966813D01*
X219039235Y-87954213D01*
X219125000Y-87950000D01*
X220875000Y-87950000D01*
X220960765Y-87954213D01*
X220960765Y-87954213D01*
G37*
D13*
G04 #@! TO.P,J3,3*
G04 #@! TO.N,N/C*
X220000000Y-89700000D03*
G04 #@! TD*
D14*
G04 #@! TO.P,J2,1*
G04 #@! TO.N,+3V3*
X216000000Y-74700000D03*
D15*
G04 #@! TO.P,J2,2*
G04 #@! TO.N,/TX0_32*
X216000000Y-72160000D03*
G04 #@! TO.P,J2,3*
G04 #@! TO.N,/RX0_32*
X216000000Y-69620000D03*
G04 #@! TO.P,J2,4*
G04 #@! TO.N,GND*
X216000000Y-67080000D03*
G04 #@! TO.P,J2,5*
G04 #@! TO.N,/EN_32*
X216000000Y-64540000D03*
G04 #@! TO.P,J2,6*
G04 #@! TO.N,/DOWNLOAD_32*
X216000000Y-62000000D03*
G04 #@! TO.P,J2,7*
G04 #@! TO.N,/DTR*
X216000000Y-59460000D03*
G04 #@! TO.P,J2,8*
G04 #@! TO.N,/RTS*
X216000000Y-56920000D03*
G04 #@! TD*
D16*
G04 #@! TO.P,SW3,1*
G04 #@! TO.N,GND*
X222000000Y-57000000D03*
G04 #@! TO.P,SW3,2*
G04 #@! TO.N,Net-(C2-Pad1)*
X222000000Y-65560000D03*
G04 #@! TD*
D17*
G04 #@! TO.P,U2,1*
G04 #@! TO.N,/SDA*
X218000000Y-101600000D03*
G04 #@! TO.P,U2,2*
G04 #@! TO.N,GND*
X218500000Y-101600000D03*
G04 #@! TO.P,U2,3*
X219000000Y-101600000D03*
G04 #@! TO.P,U2,4*
X219500000Y-101600000D03*
G04 #@! TO.P,U2,5*
G04 #@! TO.N,+3V3*
X220000000Y-101600000D03*
G04 #@! TO.P,U2,6*
G04 #@! TO.N,N/C*
X220000000Y-104400000D03*
G04 #@! TO.P,U2,7*
X219500000Y-104400000D03*
G04 #@! TO.P,U2,8*
G04 #@! TO.N,+3V3*
X219000000Y-104400000D03*
G04 #@! TO.P,U2,9*
X218500000Y-104400000D03*
G04 #@! TO.P,U2,10*
G04 #@! TO.N,/SCLK*
X218000000Y-104400000D03*
D18*
G04 #@! TO.P,U2,*
G04 #@! TO.N,*
X219000000Y-103000000D03*
G04 #@! TD*
D19*
G04 #@! TO.P,U4,39*
G04 #@! TO.N,GND*
X192200000Y-61480000D03*
G04 #@! TD*
D20*
G04 #@! TO.P,U5,1*
G04 #@! TO.N,+5V*
X206270000Y-59460000D03*
D21*
G04 #@! TO.P,U5,2*
X205000000Y-59460000D03*
G04 #@! TO.P,U5,3*
G04 #@! TO.N,GND*
X206270000Y-60730000D03*
G04 #@! TO.P,U5,4*
X205000000Y-60730000D03*
G04 #@! TO.P,U5,5*
G04 #@! TO.N,N/C*
X206270000Y-62000000D03*
G04 #@! TO.P,U5,6*
X205000000Y-62000000D03*
G04 #@! TO.P,U5,7*
G04 #@! TO.N,/MCU_TX*
X206270000Y-63270000D03*
G04 #@! TO.P,U5,8*
G04 #@! TO.N,N/C*
X205000000Y-63270000D03*
G04 #@! TO.P,U5,9*
G04 #@! TO.N,/MCU_RX*
X206270000Y-64540000D03*
G04 #@! TO.P,U5,10*
G04 #@! TO.N,Net-(R9-Pad1)*
X205000000Y-64540000D03*
G04 #@! TD*
D14*
G04 #@! TO.P,U1,1*
G04 #@! TO.N,+3V3*
X223000000Y-103000000D03*
D15*
G04 #@! TO.P,U1,2*
G04 #@! TO.N,/ONEWIRE*
X223000000Y-100460000D03*
G04 #@! TO.P,U1,3*
G04 #@! TO.N,N/C*
X223000000Y-97920000D03*
G04 #@! TO.P,U1,4*
G04 #@! TO.N,GND*
X223000000Y-95380000D03*
G04 #@! TD*
D11*
G04 #@! TO.N,Net-(D1-Pad2)*
G04 #@! TO.C,D1*
G36*
X221267642Y-72301174D02*
X221291303Y-72304684D01*
X221314507Y-72310496D01*
X221337029Y-72318554D01*
X221358653Y-72328782D01*
X221379170Y-72341079D01*
X221398383Y-72355329D01*
X221416107Y-72371393D01*
X221432171Y-72389117D01*
X221446421Y-72408330D01*
X221458718Y-72428847D01*
X221468946Y-72450471D01*
X221477004Y-72472993D01*
X221482816Y-72496197D01*
X221486326Y-72519858D01*
X221487500Y-72543750D01*
X221487500Y-73456250D01*
X221486326Y-73480142D01*
X221482816Y-73503803D01*
X221477004Y-73527007D01*
X221468946Y-73549529D01*
X221458718Y-73571153D01*
X221446421Y-73591670D01*
X221432171Y-73610883D01*
X221416107Y-73628607D01*
X221398383Y-73644671D01*
X221379170Y-73658921D01*
X221358653Y-73671218D01*
X221337029Y-73681446D01*
X221314507Y-73689504D01*
X221291303Y-73695316D01*
X221267642Y-73698826D01*
X221243750Y-73700000D01*
X220756250Y-73700000D01*
X220732358Y-73698826D01*
X220708697Y-73695316D01*
X220685493Y-73689504D01*
X220662971Y-73681446D01*
X220641347Y-73671218D01*
X220620830Y-73658921D01*
X220601617Y-73644671D01*
X220583893Y-73628607D01*
X220567829Y-73610883D01*
X220553579Y-73591670D01*
X220541282Y-73571153D01*
X220531054Y-73549529D01*
X220522996Y-73527007D01*
X220517184Y-73503803D01*
X220513674Y-73480142D01*
X220512500Y-73456250D01*
X220512500Y-72543750D01*
X220513674Y-72519858D01*
X220517184Y-72496197D01*
X220522996Y-72472993D01*
X220531054Y-72450471D01*
X220541282Y-72428847D01*
X220553579Y-72408330D01*
X220567829Y-72389117D01*
X220583893Y-72371393D01*
X220601617Y-72355329D01*
X220620830Y-72341079D01*
X220641347Y-72328782D01*
X220662971Y-72318554D01*
X220685493Y-72310496D01*
X220708697Y-72304684D01*
X220732358Y-72301174D01*
X220756250Y-72300000D01*
X221243750Y-72300000D01*
X221267642Y-72301174D01*
X221267642Y-72301174D01*
G37*
D22*
G04 #@! TD*
G04 #@! TO.P,D1,2*
G04 #@! TO.N,Net-(D1-Pad2)*
X221000000Y-73000000D03*
D11*
G04 #@! TO.N,GND*
G04 #@! TO.C,D1*
G36*
X223142642Y-72301174D02*
X223166303Y-72304684D01*
X223189507Y-72310496D01*
X223212029Y-72318554D01*
X223233653Y-72328782D01*
X223254170Y-72341079D01*
X223273383Y-72355329D01*
X223291107Y-72371393D01*
X223307171Y-72389117D01*
X223321421Y-72408330D01*
X223333718Y-72428847D01*
X223343946Y-72450471D01*
X223352004Y-72472993D01*
X223357816Y-72496197D01*
X223361326Y-72519858D01*
X223362500Y-72543750D01*
X223362500Y-73456250D01*
X223361326Y-73480142D01*
X223357816Y-73503803D01*
X223352004Y-73527007D01*
X223343946Y-73549529D01*
X223333718Y-73571153D01*
X223321421Y-73591670D01*
X223307171Y-73610883D01*
X223291107Y-73628607D01*
X223273383Y-73644671D01*
X223254170Y-73658921D01*
X223233653Y-73671218D01*
X223212029Y-73681446D01*
X223189507Y-73689504D01*
X223166303Y-73695316D01*
X223142642Y-73698826D01*
X223118750Y-73700000D01*
X222631250Y-73700000D01*
X222607358Y-73698826D01*
X222583697Y-73695316D01*
X222560493Y-73689504D01*
X222537971Y-73681446D01*
X222516347Y-73671218D01*
X222495830Y-73658921D01*
X222476617Y-73644671D01*
X222458893Y-73628607D01*
X222442829Y-73610883D01*
X222428579Y-73591670D01*
X222416282Y-73571153D01*
X222406054Y-73549529D01*
X222397996Y-73527007D01*
X222392184Y-73503803D01*
X222388674Y-73480142D01*
X222387500Y-73456250D01*
X222387500Y-72543750D01*
X222388674Y-72519858D01*
X222392184Y-72496197D01*
X222397996Y-72472993D01*
X222406054Y-72450471D01*
X222416282Y-72428847D01*
X222428579Y-72408330D01*
X222442829Y-72389117D01*
X222458893Y-72371393D01*
X222476617Y-72355329D01*
X222495830Y-72341079D01*
X222516347Y-72328782D01*
X222537971Y-72318554D01*
X222560493Y-72310496D01*
X222583697Y-72304684D01*
X222607358Y-72301174D01*
X222631250Y-72300000D01*
X223118750Y-72300000D01*
X223142642Y-72301174D01*
X223142642Y-72301174D01*
G37*
D22*
G04 #@! TD*
G04 #@! TO.P,D1,1*
G04 #@! TO.N,GND*
X222875000Y-73000000D03*
D11*
G04 #@! TO.N,GND*
G04 #@! TO.C,D2*
G36*
X223142642Y-69301174D02*
X223166303Y-69304684D01*
X223189507Y-69310496D01*
X223212029Y-69318554D01*
X223233653Y-69328782D01*
X223254170Y-69341079D01*
X223273383Y-69355329D01*
X223291107Y-69371393D01*
X223307171Y-69389117D01*
X223321421Y-69408330D01*
X223333718Y-69428847D01*
X223343946Y-69450471D01*
X223352004Y-69472993D01*
X223357816Y-69496197D01*
X223361326Y-69519858D01*
X223362500Y-69543750D01*
X223362500Y-70456250D01*
X223361326Y-70480142D01*
X223357816Y-70503803D01*
X223352004Y-70527007D01*
X223343946Y-70549529D01*
X223333718Y-70571153D01*
X223321421Y-70591670D01*
X223307171Y-70610883D01*
X223291107Y-70628607D01*
X223273383Y-70644671D01*
X223254170Y-70658921D01*
X223233653Y-70671218D01*
X223212029Y-70681446D01*
X223189507Y-70689504D01*
X223166303Y-70695316D01*
X223142642Y-70698826D01*
X223118750Y-70700000D01*
X222631250Y-70700000D01*
X222607358Y-70698826D01*
X222583697Y-70695316D01*
X222560493Y-70689504D01*
X222537971Y-70681446D01*
X222516347Y-70671218D01*
X222495830Y-70658921D01*
X222476617Y-70644671D01*
X222458893Y-70628607D01*
X222442829Y-70610883D01*
X222428579Y-70591670D01*
X222416282Y-70571153D01*
X222406054Y-70549529D01*
X222397996Y-70527007D01*
X222392184Y-70503803D01*
X222388674Y-70480142D01*
X222387500Y-70456250D01*
X222387500Y-69543750D01*
X222388674Y-69519858D01*
X222392184Y-69496197D01*
X222397996Y-69472993D01*
X222406054Y-69450471D01*
X222416282Y-69428847D01*
X222428579Y-69408330D01*
X222442829Y-69389117D01*
X222458893Y-69371393D01*
X222476617Y-69355329D01*
X222495830Y-69341079D01*
X222516347Y-69328782D01*
X222537971Y-69318554D01*
X222560493Y-69310496D01*
X222583697Y-69304684D01*
X222607358Y-69301174D01*
X222631250Y-69300000D01*
X223118750Y-69300000D01*
X223142642Y-69301174D01*
X223142642Y-69301174D01*
G37*
D22*
G04 #@! TD*
G04 #@! TO.P,D2,1*
G04 #@! TO.N,GND*
X222875000Y-70000000D03*
D11*
G04 #@! TO.N,Net-(D2-Pad2)*
G04 #@! TO.C,D2*
G36*
X221267642Y-69301174D02*
X221291303Y-69304684D01*
X221314507Y-69310496D01*
X221337029Y-69318554D01*
X221358653Y-69328782D01*
X221379170Y-69341079D01*
X221398383Y-69355329D01*
X221416107Y-69371393D01*
X221432171Y-69389117D01*
X221446421Y-69408330D01*
X221458718Y-69428847D01*
X221468946Y-69450471D01*
X221477004Y-69472993D01*
X221482816Y-69496197D01*
X221486326Y-69519858D01*
X221487500Y-69543750D01*
X221487500Y-70456250D01*
X221486326Y-70480142D01*
X221482816Y-70503803D01*
X221477004Y-70527007D01*
X221468946Y-70549529D01*
X221458718Y-70571153D01*
X221446421Y-70591670D01*
X221432171Y-70610883D01*
X221416107Y-70628607D01*
X221398383Y-70644671D01*
X221379170Y-70658921D01*
X221358653Y-70671218D01*
X221337029Y-70681446D01*
X221314507Y-70689504D01*
X221291303Y-70695316D01*
X221267642Y-70698826D01*
X221243750Y-70700000D01*
X220756250Y-70700000D01*
X220732358Y-70698826D01*
X220708697Y-70695316D01*
X220685493Y-70689504D01*
X220662971Y-70681446D01*
X220641347Y-70671218D01*
X220620830Y-70658921D01*
X220601617Y-70644671D01*
X220583893Y-70628607D01*
X220567829Y-70610883D01*
X220553579Y-70591670D01*
X220541282Y-70571153D01*
X220531054Y-70549529D01*
X220522996Y-70527007D01*
X220517184Y-70503803D01*
X220513674Y-70480142D01*
X220512500Y-70456250D01*
X220512500Y-69543750D01*
X220513674Y-69519858D01*
X220517184Y-69496197D01*
X220522996Y-69472993D01*
X220531054Y-69450471D01*
X220541282Y-69428847D01*
X220553579Y-69408330D01*
X220567829Y-69389117D01*
X220583893Y-69371393D01*
X220601617Y-69355329D01*
X220620830Y-69341079D01*
X220641347Y-69328782D01*
X220662971Y-69318554D01*
X220685493Y-69310496D01*
X220708697Y-69304684D01*
X220732358Y-69301174D01*
X220756250Y-69300000D01*
X221243750Y-69300000D01*
X221267642Y-69301174D01*
X221267642Y-69301174D01*
G37*
D22*
G04 #@! TD*
G04 #@! TO.P,D2,2*
G04 #@! TO.N,Net-(D2-Pad2)*
X221000000Y-70000000D03*
D23*
G04 #@! TO.N,GND*
X221500000Y-59900000D03*
X218300000Y-100200000D03*
D24*
X172400000Y-57000000D03*
X175500000Y-57200000D03*
X201800000Y-84300000D03*
X197000000Y-58800000D03*
X196600000Y-66400000D03*
X188200000Y-66200000D03*
X188000000Y-57300000D03*
X186700000Y-99300000D03*
X209000000Y-104000000D03*
D23*
X218800000Y-68100000D03*
D24*
X208000000Y-85000000D03*
X214000000Y-84000000D03*
X178000000Y-61000000D03*
X212000000Y-98000000D03*
X174000000Y-91000000D03*
X174000000Y-97000000D03*
G04 #@! TO.N,+5V*
X211800416Y-63500416D03*
D23*
G04 #@! TO.N,Net-(C2-Pad1)*
X221400000Y-62500000D03*
X184600000Y-67400000D03*
G04 #@! TO.N,+3V3*
X215837340Y-105162660D03*
X201000000Y-101000000D03*
G04 #@! TO.N,/EN_32*
X180600000Y-57600000D03*
X181186404Y-78813596D03*
G04 #@! TO.N,/DTR*
X212000000Y-79000000D03*
G04 #@! TO.N,/RTS*
X210100000Y-68100000D03*
X204200000Y-91400000D03*
X200800000Y-92300000D03*
G04 #@! TO.N,/ONEWIRE*
X217100000Y-98500000D03*
X180500000Y-65900000D03*
G04 #@! TO.N,/SDA*
X176000000Y-64300000D03*
G04 #@! TO.N,/SCLK*
X176700000Y-71100000D03*
G04 #@! TO.N,Net-(R9-Pad1)*
X181400000Y-68600000D03*
G04 #@! TO.N,/MCU_TX*
X203500000Y-66300000D03*
G04 #@! TO.N,Net-(D1-Pad2)*
X209199990Y-79100000D03*
G04 #@! TO.N,Net-(D2-Pad2)*
X209199990Y-77057815D03*
D24*
G04 #@! TO.N,Net-(R10-Pad1)*
X203900000Y-76100000D03*
X200900000Y-77100000D03*
G04 #@! TO.N,Net-(R11-Pad1)*
X202900000Y-79200000D03*
X205300000Y-77300000D03*
G04 #@! TD*
D25*
G04 #@! TO.N,GND*
X222000000Y-57000000D02*
X222000000Y-59400000D01*
X222000000Y-59400000D02*
X221500000Y-59900000D01*
D26*
X219500000Y-101600000D02*
X219500000Y-100850000D01*
X218850000Y-100200000D02*
X218300000Y-100200000D01*
X219000000Y-101600000D02*
X219000000Y-100350000D01*
X219500000Y-100850000D02*
X219000000Y-100350000D01*
X219000000Y-100350000D02*
X218850000Y-100200000D01*
X218500000Y-100400000D02*
X218300000Y-100200000D01*
X218500000Y-101600000D02*
X218500000Y-100400000D01*
D27*
X223000000Y-70125000D02*
X222875000Y-70000000D01*
X223000000Y-85000000D02*
X223000000Y-70125000D01*
X222000000Y-59250000D02*
X222000000Y-57000000D01*
X223700001Y-60950001D02*
X222000000Y-59250000D01*
X223700001Y-69174999D02*
X223700001Y-60950001D01*
X222875000Y-70000000D02*
X223700001Y-69174999D01*
X223000000Y-86850000D02*
X223000000Y-95380000D01*
X223000000Y-85000000D02*
X223000000Y-86850000D01*
D25*
X198930000Y-60730000D02*
X197000000Y-58800000D01*
X205000000Y-60730000D02*
X198930000Y-60730000D01*
X220975000Y-68100000D02*
X222875000Y-70000000D01*
X218800000Y-68100000D02*
X220975000Y-68100000D01*
D27*
G04 #@! TO.N,+5V*
X207760000Y-59460000D02*
X211050417Y-62750417D01*
X205000000Y-59460000D02*
X207760000Y-59460000D01*
X211050417Y-62750417D02*
X211800416Y-63500416D01*
D25*
G04 #@! TO.N,Net-(C2-Pad1)*
X221400000Y-64960000D02*
X222000000Y-65560000D01*
X221400000Y-62500000D02*
X221400000Y-64960000D01*
X218900000Y-60000000D02*
X221400000Y-62500000D01*
X221640000Y-65200000D02*
X222000000Y-65560000D01*
X220400000Y-65200000D02*
X221640000Y-65200000D01*
X218900000Y-60000000D02*
X218900000Y-63700000D01*
X218900000Y-63700000D02*
X220400000Y-65200000D01*
X209667998Y-67199998D02*
X209868616Y-67199998D01*
X214600000Y-55100000D02*
X216300000Y-55100000D01*
X185000000Y-67800000D02*
X209067996Y-67800000D01*
X209067996Y-67800000D02*
X209667998Y-67199998D01*
X209868616Y-67199998D02*
X213849988Y-63218626D01*
X218900000Y-57700000D02*
X218900000Y-60000000D01*
X213849988Y-55850012D02*
X214600000Y-55100000D01*
X216300000Y-55100000D02*
X218900000Y-57700000D01*
X213849988Y-63218626D02*
X213849988Y-55850012D01*
X184600000Y-67400000D02*
X185000000Y-67800000D01*
D26*
G04 #@! TO.N,+3V3*
X223000000Y-101900000D02*
X223000000Y-103000000D01*
X222700000Y-101600000D02*
X223000000Y-101900000D01*
X220000000Y-101600000D02*
X222700000Y-101600000D01*
X219000000Y-105150000D02*
X218750001Y-105399999D01*
X219000000Y-104400000D02*
X219000000Y-105150000D01*
X218500000Y-105150000D02*
X218500000Y-105400000D01*
X218500000Y-104400000D02*
X218500000Y-105150000D01*
X223000000Y-104100000D02*
X223000000Y-103000000D01*
X221700001Y-105399999D02*
X223000000Y-104100000D01*
X218750001Y-105399999D02*
X221700001Y-105399999D01*
X216225001Y-105225001D02*
X216162660Y-105162660D01*
X217986412Y-105399999D02*
X217823752Y-105562659D01*
X218750001Y-105399999D02*
X217986412Y-105399999D01*
X217823752Y-105562659D02*
X216237339Y-105562659D01*
X216162660Y-105162660D02*
X215837340Y-105162660D01*
D25*
X211674680Y-101000000D02*
X215837340Y-105162660D01*
X201000000Y-101000000D02*
X211674680Y-101000000D01*
X223000000Y-104450000D02*
X223000000Y-103000000D01*
X221887341Y-105562659D02*
X223000000Y-104450000D01*
X216237339Y-105562659D02*
X221887341Y-105562659D01*
X215837340Y-105162660D02*
X216237339Y-105562659D01*
G04 #@! TO.N,/EN_32*
X211039998Y-69500002D02*
X180967998Y-69500002D01*
X180786405Y-78413597D02*
X181186404Y-78813596D01*
X216000000Y-64540000D02*
X211039998Y-69500002D01*
X180600000Y-57600000D02*
X181400002Y-58400002D01*
X181400002Y-58400002D02*
X181400002Y-66332002D01*
X181400002Y-66332002D02*
X180200001Y-67532003D01*
X180200001Y-77827193D02*
X180786405Y-78413597D01*
X180200001Y-67532003D02*
X180200001Y-77827193D01*
X180200001Y-68732005D02*
X180200001Y-67532003D01*
X180967998Y-69500002D02*
X180200001Y-68732005D01*
G04 #@! TO.N,/DTR*
X217350001Y-60810001D02*
X217350001Y-75950001D01*
X217350001Y-75950001D02*
X214200002Y-79100000D01*
X216000000Y-59460000D02*
X217350001Y-60810001D01*
X214200002Y-79100000D02*
X212100000Y-79100000D01*
X212100000Y-79100000D02*
X212000000Y-79000000D01*
G04 #@! TO.N,/RTS*
X214649999Y-58270001D02*
X214649999Y-63550001D01*
X214649999Y-63550001D02*
X210100000Y-68100000D01*
X216000000Y-56920000D02*
X214649999Y-58270001D01*
X204200000Y-91400000D02*
X201700000Y-91400000D01*
X201700000Y-91400000D02*
X200800000Y-92300000D01*
G04 #@! TO.N,/ONEWIRE*
X223000000Y-100460000D02*
X220940000Y-98400000D01*
X220940000Y-98400000D02*
X217200000Y-98400000D01*
X217200000Y-98400000D02*
X217100000Y-98500000D01*
X217100000Y-97934315D02*
X213365685Y-94200000D01*
X217100000Y-98500000D02*
X217100000Y-97934315D01*
X213365685Y-94200000D02*
X193900000Y-94200000D01*
X193900000Y-94200000D02*
X178600000Y-78900000D01*
X178600000Y-67800000D02*
X180500000Y-65900000D01*
X178600000Y-78900000D02*
X178600000Y-67800000D01*
D26*
G04 #@! TO.N,/SDA*
X193641112Y-94825011D02*
X177374990Y-78558888D01*
X176399999Y-64699999D02*
X176000000Y-64300000D01*
X218000000Y-101600000D02*
X217600000Y-101600000D01*
X217600000Y-101600000D02*
X210825011Y-94825011D01*
X177374990Y-78558888D02*
X177374990Y-78041112D01*
X177374990Y-78041112D02*
X177474990Y-77941112D01*
X177474990Y-65774990D02*
X176399999Y-64699999D01*
X177474990Y-77941112D02*
X177474990Y-65774990D01*
X210825011Y-94825011D02*
X193641112Y-94825011D01*
G04 #@! TO.N,/SCLK*
X207022704Y-95275022D02*
X193454712Y-95275022D01*
X176700000Y-71665685D02*
X176700000Y-71100000D01*
X176700000Y-78520308D02*
X176700000Y-71665685D01*
X193454712Y-95275022D02*
X176700000Y-78520308D01*
X216147682Y-104400000D02*
X207022704Y-95275022D01*
X218000000Y-104400000D02*
X216147682Y-104400000D01*
G04 #@! TO.N,Net-(R9-Pad1)*
X203832894Y-65000000D02*
X185000000Y-65000000D01*
X204292894Y-64540000D02*
X203832894Y-65000000D01*
X205000000Y-64540000D02*
X204292894Y-64540000D01*
X185000000Y-65000000D02*
X181400000Y-68600000D01*
D25*
G04 #@! TO.N,/MCU_TX*
X205990002Y-66300000D02*
X203500000Y-66300000D01*
X207270001Y-65020001D02*
X205990002Y-66300000D01*
X207270001Y-63562895D02*
X207270001Y-65020001D01*
X206270000Y-63270000D02*
X206977106Y-63270000D01*
X206977106Y-63270000D02*
X207270001Y-63562895D01*
G04 #@! TO.N,Net-(D1-Pad2)*
X221000000Y-73000000D02*
X221000000Y-74562774D01*
X221000000Y-74562774D02*
X214862752Y-80700022D01*
X214862752Y-80700022D02*
X210800010Y-80700020D01*
X209599989Y-79499999D02*
X209199990Y-79100000D01*
X210800010Y-80700020D02*
X209599989Y-79499999D01*
G04 #@! TO.N,Net-(D2-Pad2)*
X218150012Y-72849988D02*
X218150011Y-76281377D01*
X221000000Y-70000000D02*
X218150012Y-72849988D01*
X211476501Y-79900011D02*
X209199990Y-77623500D01*
X214531377Y-79900011D02*
X211476501Y-79900011D01*
X218150011Y-76281377D02*
X214531377Y-79900011D01*
X209199990Y-77623500D02*
X209199990Y-77057815D01*
G04 #@! TO.N,Net-(R10-Pad1)*
X201900000Y-76100000D02*
X200900000Y-77100000D01*
X203900000Y-76100000D02*
X201900000Y-76100000D01*
G04 #@! TO.N,Net-(R11-Pad1)*
X202900000Y-79200000D02*
X203400000Y-79200000D01*
X203400000Y-79200000D02*
X205300000Y-77300000D01*
G04 #@! TD*
D28*
G04 #@! TO.N,GND*
G36*
X225544001Y-54955091D02*
X225544000Y-106544000D01*
X171456000Y-106544000D01*
X171456000Y-102605955D01*
X173019000Y-102605955D01*
X173019000Y-103394045D01*
X173320589Y-104122146D01*
X173877854Y-104679411D01*
X174605955Y-104981000D01*
X175394045Y-104981000D01*
X176122146Y-104679411D01*
X176679411Y-104122146D01*
X176981000Y-103394045D01*
X176981000Y-102605955D01*
X176679411Y-101877854D01*
X176122146Y-101320589D01*
X175394045Y-101019000D01*
X174605955Y-101019000D01*
X173877854Y-101320589D01*
X173320589Y-101877854D01*
X173019000Y-102605955D01*
X171456000Y-102605955D01*
X171456000Y-64144649D01*
X175219000Y-64144649D01*
X175219000Y-64455351D01*
X175337900Y-64742401D01*
X175557599Y-64962100D01*
X175844649Y-65081000D01*
X176065408Y-65081000D01*
X176077441Y-65093033D01*
X176077444Y-65093035D01*
X176968991Y-65984583D01*
X176968991Y-70366071D01*
X176855351Y-70319000D01*
X176544649Y-70319000D01*
X176257599Y-70437900D01*
X176037900Y-70657599D01*
X175919000Y-70944649D01*
X175919000Y-71255351D01*
X176037900Y-71542401D01*
X176194000Y-71698501D01*
X176194000Y-71715519D01*
X176194001Y-71715524D01*
X176194000Y-78470474D01*
X176184087Y-78520308D01*
X176194000Y-78570142D01*
X176223359Y-78717738D01*
X176335194Y-78885114D01*
X176377448Y-78913347D01*
X193061675Y-95597577D01*
X193089906Y-95639828D01*
X193257281Y-95751663D01*
X193404877Y-95781022D01*
X193454711Y-95790935D01*
X193504545Y-95781022D01*
X206813113Y-95781022D01*
X211351090Y-100319000D01*
X201396772Y-100319000D01*
X201155351Y-100219000D01*
X200844649Y-100219000D01*
X200557599Y-100337900D01*
X200337900Y-100557599D01*
X200219000Y-100844649D01*
X200219000Y-101155351D01*
X200337900Y-101442401D01*
X200557599Y-101662100D01*
X200844649Y-101781000D01*
X201155351Y-101781000D01*
X201396772Y-101681000D01*
X211392602Y-101681000D01*
X215075239Y-105363638D01*
X215175240Y-105605061D01*
X215394939Y-105824760D01*
X215636363Y-105924761D01*
X215708372Y-105996770D01*
X215746366Y-106053632D01*
X215971626Y-106204146D01*
X216170270Y-106243659D01*
X216170273Y-106243659D01*
X216237338Y-106256999D01*
X216304403Y-106243659D01*
X221820276Y-106243659D01*
X221887341Y-106256999D01*
X221954406Y-106243659D01*
X221954410Y-106243659D01*
X222153054Y-106204146D01*
X222378314Y-106053632D01*
X222416308Y-105996770D01*
X223434119Y-104978961D01*
X223490972Y-104940973D01*
X223528961Y-104884119D01*
X223528964Y-104884116D01*
X223605463Y-104769626D01*
X223641487Y-104715713D01*
X223681000Y-104517069D01*
X223681000Y-104517065D01*
X223694340Y-104450001D01*
X223681000Y-104382937D01*
X223681000Y-104238464D01*
X223850000Y-104238464D01*
X223998659Y-104208894D01*
X224124686Y-104124686D01*
X224208894Y-103998659D01*
X224238464Y-103850000D01*
X224238464Y-102150000D01*
X224208894Y-102001341D01*
X224124686Y-101875314D01*
X223998659Y-101791106D01*
X223850000Y-101761536D01*
X223488370Y-101761536D01*
X223476641Y-101702569D01*
X223428124Y-101629957D01*
X223480312Y-101619576D01*
X223887501Y-101347501D01*
X224159576Y-100940312D01*
X224255116Y-100460000D01*
X224159576Y-99979688D01*
X223887501Y-99572499D01*
X223480312Y-99300424D01*
X223121239Y-99229000D01*
X222878761Y-99229000D01*
X222756415Y-99253336D01*
X222598289Y-99095211D01*
X222878761Y-99151000D01*
X223121239Y-99151000D01*
X223480312Y-99079576D01*
X223887501Y-98807501D01*
X224159576Y-98400312D01*
X224255116Y-97920000D01*
X224159576Y-97439688D01*
X223887501Y-97032499D01*
X223483037Y-96762245D01*
X223881358Y-96575183D01*
X224271645Y-96146924D01*
X224441476Y-95736890D01*
X224320155Y-95507000D01*
X223127000Y-95507000D01*
X223127000Y-95527000D01*
X222873000Y-95527000D01*
X222873000Y-95507000D01*
X221679845Y-95507000D01*
X221558524Y-95736890D01*
X221728355Y-96146924D01*
X222118642Y-96575183D01*
X222516963Y-96762245D01*
X222112499Y-97032499D01*
X221840424Y-97439688D01*
X221744884Y-97920000D01*
X221824789Y-98321711D01*
X221468967Y-97965889D01*
X221430973Y-97909027D01*
X221205713Y-97758513D01*
X221007069Y-97719000D01*
X221007065Y-97719000D01*
X220940000Y-97705660D01*
X220872935Y-97719000D01*
X217751512Y-97719000D01*
X217741487Y-97668602D01*
X217590973Y-97443342D01*
X217534114Y-97405350D01*
X215151874Y-95023110D01*
X221558524Y-95023110D01*
X221679845Y-95253000D01*
X222873000Y-95253000D01*
X222873000Y-94059181D01*
X223127000Y-94059181D01*
X223127000Y-95253000D01*
X224320155Y-95253000D01*
X224441476Y-95023110D01*
X224271645Y-94613076D01*
X223881358Y-94184817D01*
X223356892Y-93938514D01*
X223127000Y-94059181D01*
X222873000Y-94059181D01*
X222643108Y-93938514D01*
X222118642Y-94184817D01*
X221728355Y-94613076D01*
X221558524Y-95023110D01*
X215151874Y-95023110D01*
X213894652Y-93765889D01*
X213856658Y-93709027D01*
X213631398Y-93558513D01*
X213432754Y-93519000D01*
X213432750Y-93519000D01*
X213365685Y-93505660D01*
X213298620Y-93519000D01*
X194182080Y-93519000D01*
X192807729Y-92144649D01*
X200019000Y-92144649D01*
X200019000Y-92455351D01*
X200137900Y-92742401D01*
X200357599Y-92962100D01*
X200644649Y-93081000D01*
X200955351Y-93081000D01*
X201242401Y-92962100D01*
X201462100Y-92742401D01*
X201562101Y-92500977D01*
X201982079Y-92081000D01*
X203803228Y-92081000D01*
X204044649Y-92181000D01*
X204355351Y-92181000D01*
X204642401Y-92062100D01*
X204862100Y-91842401D01*
X204981000Y-91555351D01*
X204981000Y-91244649D01*
X204862100Y-90957599D01*
X204642401Y-90737900D01*
X204355351Y-90619000D01*
X204044649Y-90619000D01*
X203803228Y-90719000D01*
X201767064Y-90719000D01*
X201699999Y-90705660D01*
X201632934Y-90719000D01*
X201632931Y-90719000D01*
X201434287Y-90758513D01*
X201209027Y-90909027D01*
X201171035Y-90965886D01*
X200599023Y-91537899D01*
X200357599Y-91637900D01*
X200137900Y-91857599D01*
X200019000Y-92144649D01*
X192807729Y-92144649D01*
X189488080Y-88825000D01*
X217861536Y-88825000D01*
X217861536Y-90575000D01*
X217957711Y-91058507D01*
X218231596Y-91468404D01*
X218641493Y-91742289D01*
X219125000Y-91838464D01*
X220875000Y-91838464D01*
X221358507Y-91742289D01*
X221768404Y-91468404D01*
X222042289Y-91058507D01*
X222138464Y-90575000D01*
X222138464Y-88825000D01*
X222042289Y-88341493D01*
X221768404Y-87931596D01*
X221358507Y-87657711D01*
X220875000Y-87561536D01*
X219125000Y-87561536D01*
X218641493Y-87657711D01*
X218231596Y-87931596D01*
X217957711Y-88341493D01*
X217861536Y-88825000D01*
X189488080Y-88825000D01*
X183913079Y-83250000D01*
X214861536Y-83250000D01*
X214861536Y-86750000D01*
X214891106Y-86898659D01*
X214975314Y-87024686D01*
X215101341Y-87108894D01*
X215250000Y-87138464D01*
X218750000Y-87138464D01*
X218898659Y-87108894D01*
X219024686Y-87024686D01*
X219108894Y-86898659D01*
X219138464Y-86750000D01*
X219138464Y-85285750D01*
X220865000Y-85285750D01*
X220865000Y-86876310D01*
X220961673Y-87109699D01*
X221140302Y-87288327D01*
X221373691Y-87385000D01*
X222714250Y-87385000D01*
X222873000Y-87226250D01*
X222873000Y-85127000D01*
X223127000Y-85127000D01*
X223127000Y-87226250D01*
X223285750Y-87385000D01*
X224626309Y-87385000D01*
X224859698Y-87288327D01*
X225038327Y-87109699D01*
X225135000Y-86876310D01*
X225135000Y-85285750D01*
X224976250Y-85127000D01*
X223127000Y-85127000D01*
X222873000Y-85127000D01*
X221023750Y-85127000D01*
X220865000Y-85285750D01*
X219138464Y-85285750D01*
X219138464Y-83250000D01*
X219113340Y-83123690D01*
X220865000Y-83123690D01*
X220865000Y-84714250D01*
X221023750Y-84873000D01*
X222873000Y-84873000D01*
X222873000Y-82773750D01*
X223127000Y-82773750D01*
X223127000Y-84873000D01*
X224976250Y-84873000D01*
X225135000Y-84714250D01*
X225135000Y-83123690D01*
X225038327Y-82890301D01*
X224859698Y-82711673D01*
X224626309Y-82615000D01*
X223285750Y-82615000D01*
X223127000Y-82773750D01*
X222873000Y-82773750D01*
X222714250Y-82615000D01*
X221373691Y-82615000D01*
X221140302Y-82711673D01*
X220961673Y-82890301D01*
X220865000Y-83123690D01*
X219113340Y-83123690D01*
X219108894Y-83101341D01*
X219024686Y-82975314D01*
X218898659Y-82891106D01*
X218750000Y-82861536D01*
X215250000Y-82861536D01*
X215101341Y-82891106D01*
X214975314Y-82975314D01*
X214891106Y-83101341D01*
X214861536Y-83250000D01*
X183913079Y-83250000D01*
X179281000Y-78617922D01*
X179281000Y-68082078D01*
X179519001Y-67844077D01*
X179519001Y-68664939D01*
X179505661Y-68732005D01*
X179519001Y-68799071D01*
X179519002Y-77760123D01*
X179505661Y-77827193D01*
X179558514Y-78092905D01*
X179655827Y-78238543D01*
X179709029Y-78318166D01*
X179765887Y-78356157D01*
X180352289Y-78942561D01*
X180352295Y-78942565D01*
X180424303Y-79014573D01*
X180524304Y-79255997D01*
X180744003Y-79475696D01*
X181031053Y-79594596D01*
X181341755Y-79594596D01*
X181628805Y-79475696D01*
X181848504Y-79255997D01*
X181967404Y-78968947D01*
X181967404Y-78658245D01*
X181848504Y-78371195D01*
X181628805Y-78151496D01*
X181387381Y-78051495D01*
X181315373Y-77979487D01*
X181315369Y-77979481D01*
X180881001Y-77545114D01*
X180881001Y-76875030D01*
X199769000Y-76875030D01*
X199769000Y-77324970D01*
X199941184Y-77740660D01*
X200259340Y-78058816D01*
X200675030Y-78231000D01*
X201124970Y-78231000D01*
X201540660Y-78058816D01*
X201858816Y-77740660D01*
X202031000Y-77324970D01*
X202031000Y-76932079D01*
X202182079Y-76781000D01*
X202981524Y-76781000D01*
X203259340Y-77058816D01*
X203675030Y-77231000D01*
X204124970Y-77231000D01*
X204169000Y-77212762D01*
X204169000Y-77467921D01*
X203438184Y-78198737D01*
X203124970Y-78069000D01*
X202675030Y-78069000D01*
X202259340Y-78241184D01*
X201941184Y-78559340D01*
X201769000Y-78975030D01*
X201769000Y-79424970D01*
X201941184Y-79840660D01*
X202259340Y-80158816D01*
X202675030Y-80331000D01*
X203124970Y-80331000D01*
X203540660Y-80158816D01*
X203858816Y-79840660D01*
X203955263Y-79607815D01*
X205132079Y-78431000D01*
X205524970Y-78431000D01*
X205940660Y-78258816D01*
X206258816Y-77940660D01*
X206431000Y-77524970D01*
X206431000Y-77075030D01*
X206258816Y-76659340D01*
X205940660Y-76341184D01*
X205524970Y-76169000D01*
X205075030Y-76169000D01*
X205031000Y-76187238D01*
X205031000Y-75875030D01*
X204858816Y-75459340D01*
X204540660Y-75141184D01*
X204124970Y-74969000D01*
X203675030Y-74969000D01*
X203259340Y-75141184D01*
X202981524Y-75419000D01*
X201967065Y-75419000D01*
X201900000Y-75405660D01*
X201832935Y-75419000D01*
X201832931Y-75419000D01*
X201634287Y-75458513D01*
X201409027Y-75609027D01*
X201371035Y-75665886D01*
X201067921Y-75969000D01*
X200675030Y-75969000D01*
X200259340Y-76141184D01*
X199941184Y-76459340D01*
X199769000Y-76875030D01*
X180881001Y-76875030D01*
X180881001Y-70177038D01*
X180900929Y-70181002D01*
X180900933Y-70181002D01*
X180967998Y-70194342D01*
X181035063Y-70181002D01*
X210972933Y-70181002D01*
X211039998Y-70194342D01*
X211107063Y-70181002D01*
X211107067Y-70181002D01*
X211305711Y-70141489D01*
X211530971Y-69990975D01*
X211568965Y-69934113D01*
X214635019Y-66868060D01*
X214679845Y-66953000D01*
X215873000Y-66953000D01*
X215873000Y-66933000D01*
X216127000Y-66933000D01*
X216127000Y-66953000D01*
X216147000Y-66953000D01*
X216147000Y-67207000D01*
X216127000Y-67207000D01*
X216127000Y-67227000D01*
X215873000Y-67227000D01*
X215873000Y-67207000D01*
X214679845Y-67207000D01*
X214558524Y-67436890D01*
X214728355Y-67846924D01*
X215118642Y-68275183D01*
X215516963Y-68462245D01*
X215112499Y-68732499D01*
X214840424Y-69139688D01*
X214744884Y-69620000D01*
X214840424Y-70100312D01*
X215112499Y-70507501D01*
X215519688Y-70779576D01*
X215878761Y-70851000D01*
X216121239Y-70851000D01*
X216480312Y-70779576D01*
X216669002Y-70653498D01*
X216669002Y-71126502D01*
X216480312Y-71000424D01*
X216121239Y-70929000D01*
X215878761Y-70929000D01*
X215519688Y-71000424D01*
X215112499Y-71272499D01*
X214840424Y-71679688D01*
X214744884Y-72160000D01*
X214840424Y-72640312D01*
X215112499Y-73047501D01*
X215519688Y-73319576D01*
X215878761Y-73391000D01*
X216121239Y-73391000D01*
X216480312Y-73319576D01*
X216669002Y-73193497D01*
X216669002Y-73461536D01*
X215150000Y-73461536D01*
X215001341Y-73491106D01*
X214875314Y-73575314D01*
X214791106Y-73701341D01*
X214761536Y-73850000D01*
X214761536Y-75550000D01*
X214791106Y-75698659D01*
X214875314Y-75824686D01*
X215001341Y-75908894D01*
X215150000Y-75938464D01*
X216398459Y-75938464D01*
X213917924Y-78419000D01*
X212523501Y-78419000D01*
X212442401Y-78337900D01*
X212155351Y-78219000D01*
X211844649Y-78219000D01*
X211557599Y-78337900D01*
X211337900Y-78557599D01*
X211267391Y-78727822D01*
X209914135Y-77374567D01*
X209980990Y-77213166D01*
X209980990Y-76902464D01*
X209862090Y-76615414D01*
X209642391Y-76395715D01*
X209355341Y-76276815D01*
X209044639Y-76276815D01*
X208757589Y-76395715D01*
X208537890Y-76615414D01*
X208418990Y-76902464D01*
X208418990Y-77213166D01*
X208518990Y-77454587D01*
X208518990Y-77556435D01*
X208505650Y-77623500D01*
X208518990Y-77690565D01*
X208518990Y-77690568D01*
X208558503Y-77889212D01*
X208709017Y-78114472D01*
X208765877Y-78152465D01*
X208965282Y-78351871D01*
X208757589Y-78437900D01*
X208537890Y-78657599D01*
X208418990Y-78944649D01*
X208418990Y-79255351D01*
X208537890Y-79542401D01*
X208757589Y-79762100D01*
X208999013Y-79862101D01*
X209071025Y-79934113D01*
X210271047Y-81134136D01*
X210309037Y-81190992D01*
X210365893Y-81228982D01*
X210365895Y-81228984D01*
X210534297Y-81341507D01*
X210800010Y-81394360D01*
X210867080Y-81381019D01*
X214795686Y-81381022D01*
X214862752Y-81394362D01*
X214929817Y-81381022D01*
X214929820Y-81381022D01*
X215128464Y-81341509D01*
X215353724Y-81190995D01*
X215391716Y-81134136D01*
X221434117Y-75091737D01*
X221490973Y-75053747D01*
X221641487Y-74828487D01*
X221681000Y-74629843D01*
X221681000Y-74629840D01*
X221694340Y-74562775D01*
X221681000Y-74495710D01*
X221681000Y-73909836D01*
X221690793Y-73903293D01*
X221752500Y-73810942D01*
X221752500Y-73826310D01*
X221849173Y-74059699D01*
X222027802Y-74238327D01*
X222261191Y-74335000D01*
X222589250Y-74335000D01*
X222748000Y-74176250D01*
X222748000Y-73127000D01*
X223002000Y-73127000D01*
X223002000Y-74176250D01*
X223160750Y-74335000D01*
X223488809Y-74335000D01*
X223722198Y-74238327D01*
X223900827Y-74059699D01*
X223997500Y-73826310D01*
X223997500Y-73285750D01*
X223838750Y-73127000D01*
X223002000Y-73127000D01*
X222748000Y-73127000D01*
X222728000Y-73127000D01*
X222728000Y-72873000D01*
X222748000Y-72873000D01*
X222748000Y-71823750D01*
X223002000Y-71823750D01*
X223002000Y-72873000D01*
X223838750Y-72873000D01*
X223997500Y-72714250D01*
X223997500Y-72173690D01*
X223900827Y-71940301D01*
X223722198Y-71761673D01*
X223488809Y-71665000D01*
X223160750Y-71665000D01*
X223002000Y-71823750D01*
X222748000Y-71823750D01*
X222589250Y-71665000D01*
X222261191Y-71665000D01*
X222027802Y-71761673D01*
X221849173Y-71940301D01*
X221752500Y-72173690D01*
X221752500Y-72189058D01*
X221690793Y-72096707D01*
X221485688Y-71959660D01*
X221243750Y-71911536D01*
X220756250Y-71911536D01*
X220514312Y-71959660D01*
X220309207Y-72096707D01*
X220172160Y-72301812D01*
X220124036Y-72543750D01*
X220124036Y-73456250D01*
X220172160Y-73698188D01*
X220309207Y-73903293D01*
X220319001Y-73909837D01*
X220319001Y-74280693D01*
X218831010Y-75768684D01*
X218831012Y-73132066D01*
X220874615Y-71088464D01*
X221243750Y-71088464D01*
X221485688Y-71040340D01*
X221690793Y-70903293D01*
X221752500Y-70810942D01*
X221752500Y-70826310D01*
X221849173Y-71059699D01*
X222027802Y-71238327D01*
X222261191Y-71335000D01*
X222589250Y-71335000D01*
X222748000Y-71176250D01*
X222748000Y-70127000D01*
X223002000Y-70127000D01*
X223002000Y-71176250D01*
X223160750Y-71335000D01*
X223488809Y-71335000D01*
X223722198Y-71238327D01*
X223900827Y-71059699D01*
X223997500Y-70826310D01*
X223997500Y-70285750D01*
X223838750Y-70127000D01*
X223002000Y-70127000D01*
X222748000Y-70127000D01*
X222728000Y-70127000D01*
X222728000Y-69873000D01*
X222748000Y-69873000D01*
X222748000Y-68823750D01*
X223002000Y-68823750D01*
X223002000Y-69873000D01*
X223838750Y-69873000D01*
X223997500Y-69714250D01*
X223997500Y-69173690D01*
X223900827Y-68940301D01*
X223722198Y-68761673D01*
X223488809Y-68665000D01*
X223160750Y-68665000D01*
X223002000Y-68823750D01*
X222748000Y-68823750D01*
X222589250Y-68665000D01*
X222261191Y-68665000D01*
X222027802Y-68761673D01*
X221849173Y-68940301D01*
X221752500Y-69173690D01*
X221752500Y-69189058D01*
X221690793Y-69096707D01*
X221485688Y-68959660D01*
X221243750Y-68911536D01*
X220756250Y-68911536D01*
X220514312Y-68959660D01*
X220309207Y-69096707D01*
X220172160Y-69301812D01*
X220124036Y-69543750D01*
X220124036Y-69912885D01*
X218031001Y-72005921D01*
X218031001Y-60877066D01*
X218044341Y-60810001D01*
X218031001Y-60742936D01*
X218031001Y-60742932D01*
X217991488Y-60544288D01*
X217917872Y-60434114D01*
X217878965Y-60375886D01*
X217878964Y-60375885D01*
X217840973Y-60319028D01*
X217784117Y-60281038D01*
X217206664Y-59703585D01*
X217255116Y-59460000D01*
X217159576Y-58979688D01*
X216887501Y-58572499D01*
X216480312Y-58300424D01*
X216121239Y-58229000D01*
X215878761Y-58229000D01*
X215598289Y-58284789D01*
X215756415Y-58126664D01*
X215878761Y-58151000D01*
X216121239Y-58151000D01*
X216480312Y-58079576D01*
X216887501Y-57807501D01*
X217159576Y-57400312D01*
X217238824Y-57001903D01*
X218219000Y-57982079D01*
X218219001Y-59932927D01*
X218219000Y-59932932D01*
X218219000Y-59932935D01*
X218205660Y-60000000D01*
X218219000Y-60067065D01*
X218219001Y-63632930D01*
X218205660Y-63700000D01*
X218258513Y-63965712D01*
X218349958Y-64102569D01*
X218409028Y-64190973D01*
X218465887Y-64228965D01*
X219871037Y-65634117D01*
X219909027Y-65690973D01*
X219965883Y-65728963D01*
X219965884Y-65728964D01*
X220034767Y-65774990D01*
X220134287Y-65841487D01*
X220332931Y-65881000D01*
X220332934Y-65881000D01*
X220399999Y-65894340D01*
X220467064Y-65881000D01*
X220611536Y-65881000D01*
X220611536Y-66810000D01*
X220641106Y-66958659D01*
X220725314Y-67084686D01*
X220851341Y-67168894D01*
X221000000Y-67198464D01*
X223000000Y-67198464D01*
X223148659Y-67168894D01*
X223274686Y-67084686D01*
X223358894Y-66958659D01*
X223388464Y-66810000D01*
X223388464Y-64310000D01*
X223358894Y-64161341D01*
X223274686Y-64035314D01*
X223148659Y-63951106D01*
X223000000Y-63921536D01*
X222081000Y-63921536D01*
X222081000Y-62896772D01*
X222181000Y-62655351D01*
X222181000Y-62344649D01*
X222062100Y-62057599D01*
X221842401Y-61837900D01*
X221600978Y-61737899D01*
X219581000Y-59717922D01*
X219581000Y-57767064D01*
X219594340Y-57699999D01*
X219581000Y-57632932D01*
X219581000Y-57632931D01*
X219541487Y-57434287D01*
X219442238Y-57285750D01*
X220365000Y-57285750D01*
X220365000Y-58376309D01*
X220461673Y-58609698D01*
X220640301Y-58788327D01*
X220873690Y-58885000D01*
X221714250Y-58885000D01*
X221873000Y-58726250D01*
X221873000Y-57127000D01*
X222127000Y-57127000D01*
X222127000Y-58726250D01*
X222285750Y-58885000D01*
X223126310Y-58885000D01*
X223359699Y-58788327D01*
X223538327Y-58609698D01*
X223635000Y-58376309D01*
X223635000Y-57285750D01*
X223476250Y-57127000D01*
X222127000Y-57127000D01*
X221873000Y-57127000D01*
X220523750Y-57127000D01*
X220365000Y-57285750D01*
X219442238Y-57285750D01*
X219428964Y-57265885D01*
X219428963Y-57265884D01*
X219390972Y-57209027D01*
X219334116Y-57171037D01*
X217786770Y-55623691D01*
X220365000Y-55623691D01*
X220365000Y-56714250D01*
X220523750Y-56873000D01*
X221873000Y-56873000D01*
X221873000Y-55273750D01*
X222127000Y-55273750D01*
X222127000Y-56873000D01*
X223476250Y-56873000D01*
X223635000Y-56714250D01*
X223635000Y-55623691D01*
X223538327Y-55390302D01*
X223359699Y-55211673D01*
X223126310Y-55115000D01*
X222285750Y-55115000D01*
X222127000Y-55273750D01*
X221873000Y-55273750D01*
X221714250Y-55115000D01*
X220873690Y-55115000D01*
X220640301Y-55211673D01*
X220461673Y-55390302D01*
X220365000Y-55623691D01*
X217786770Y-55623691D01*
X216828967Y-54665889D01*
X216790973Y-54609027D01*
X216565713Y-54458513D01*
X216367069Y-54419000D01*
X216367065Y-54419000D01*
X216300000Y-54405660D01*
X216232935Y-54419000D01*
X214667064Y-54419000D01*
X214599999Y-54405660D01*
X214532934Y-54419000D01*
X214532931Y-54419000D01*
X214334287Y-54458513D01*
X214109027Y-54609027D01*
X214071035Y-54665886D01*
X213415875Y-55321047D01*
X213359016Y-55359039D01*
X213321024Y-55415898D01*
X213208501Y-55584300D01*
X213155648Y-55850012D01*
X213168989Y-55917082D01*
X213168988Y-62936547D01*
X212901738Y-63203797D01*
X212759232Y-62859756D01*
X212441076Y-62541600D01*
X212025386Y-62369416D01*
X211915337Y-62369416D01*
X211734733Y-62188812D01*
X211734731Y-62188809D01*
X208444317Y-58898396D01*
X208395165Y-58824835D01*
X208103749Y-58630117D01*
X207846767Y-58579000D01*
X207846763Y-58579000D01*
X207760000Y-58561742D01*
X207673237Y-58579000D01*
X206807524Y-58579000D01*
X206770000Y-58571536D01*
X205770000Y-58571536D01*
X205732476Y-58579000D01*
X204913233Y-58579000D01*
X204656251Y-58630117D01*
X204364835Y-58824835D01*
X204170117Y-59116251D01*
X204101741Y-59460000D01*
X204170117Y-59803749D01*
X204239458Y-59907526D01*
X204012873Y-60169791D01*
X203905881Y-60428126D01*
X204032046Y-60603000D01*
X204873000Y-60603000D01*
X204873000Y-60583000D01*
X205127000Y-60583000D01*
X205127000Y-60603000D01*
X206143000Y-60603000D01*
X206143000Y-60583000D01*
X206397000Y-60583000D01*
X206397000Y-60603000D01*
X207237954Y-60603000D01*
X207364119Y-60428126D01*
X207328035Y-60341000D01*
X207395079Y-60341000D01*
X210488809Y-63434731D01*
X210488812Y-63434733D01*
X210669416Y-63615337D01*
X210669416Y-63725386D01*
X210841600Y-64141076D01*
X211159756Y-64459232D01*
X211503797Y-64601738D01*
X209582965Y-66522571D01*
X209402285Y-66558511D01*
X209177025Y-66709025D01*
X209139033Y-66765884D01*
X208785918Y-67119000D01*
X185328954Y-67119000D01*
X185262100Y-66957599D01*
X185042401Y-66737900D01*
X184755351Y-66619000D01*
X184444649Y-66619000D01*
X184157599Y-66737900D01*
X183937900Y-66957599D01*
X183819000Y-67244649D01*
X183819000Y-67555351D01*
X183937900Y-67842401D01*
X184157599Y-68062100D01*
X184399022Y-68162101D01*
X184471035Y-68234113D01*
X184509027Y-68290973D01*
X184734287Y-68441487D01*
X184932931Y-68481000D01*
X184932935Y-68481000D01*
X184999999Y-68494340D01*
X185067063Y-68481000D01*
X209000931Y-68481000D01*
X209067996Y-68494340D01*
X209135061Y-68481000D01*
X209135065Y-68481000D01*
X209333709Y-68441487D01*
X209382575Y-68408836D01*
X209437900Y-68542401D01*
X209657599Y-68762100D01*
X209794973Y-68819002D01*
X182154635Y-68819002D01*
X182181000Y-68755351D01*
X182181000Y-68534591D01*
X185209592Y-65506000D01*
X203783060Y-65506000D01*
X203832894Y-65515913D01*
X203882728Y-65506000D01*
X203882729Y-65506000D01*
X204030325Y-65476641D01*
X204197700Y-65364806D01*
X204225932Y-65322553D01*
X204369922Y-65178564D01*
X204656251Y-65369883D01*
X204913233Y-65421000D01*
X205086767Y-65421000D01*
X205343749Y-65369883D01*
X205635000Y-65175275D01*
X205926251Y-65369883D01*
X205951932Y-65374991D01*
X205707924Y-65619000D01*
X203896772Y-65619000D01*
X203655351Y-65519000D01*
X203344649Y-65519000D01*
X203057599Y-65637900D01*
X202837900Y-65857599D01*
X202719000Y-66144649D01*
X202719000Y-66455351D01*
X202837900Y-66742401D01*
X203057599Y-66962100D01*
X203344649Y-67081000D01*
X203655351Y-67081000D01*
X203896772Y-66981000D01*
X205922937Y-66981000D01*
X205990002Y-66994340D01*
X206057067Y-66981000D01*
X206057071Y-66981000D01*
X206255715Y-66941487D01*
X206480975Y-66790973D01*
X206518969Y-66734111D01*
X207704115Y-65548966D01*
X207760974Y-65510974D01*
X207911488Y-65285714D01*
X207951001Y-65087070D01*
X207951001Y-65087066D01*
X207964341Y-65020001D01*
X207951001Y-64952936D01*
X207951001Y-63629959D01*
X207964341Y-63562894D01*
X207951001Y-63495827D01*
X207951001Y-63495826D01*
X207911488Y-63297182D01*
X207760973Y-63071922D01*
X207704114Y-63033930D01*
X207506073Y-62835889D01*
X207468079Y-62779027D01*
X207242819Y-62628513D01*
X207044175Y-62589000D01*
X207044171Y-62589000D01*
X206977106Y-62575660D01*
X206939992Y-62583042D01*
X207099883Y-62343749D01*
X207168259Y-62000000D01*
X207099883Y-61656251D01*
X207030542Y-61552474D01*
X207257127Y-61290209D01*
X207364119Y-61031874D01*
X207237954Y-60857000D01*
X206397000Y-60857000D01*
X206397000Y-60877000D01*
X206143000Y-60877000D01*
X206143000Y-60857000D01*
X205127000Y-60857000D01*
X205127000Y-60877000D01*
X204873000Y-60877000D01*
X204873000Y-60857000D01*
X204032046Y-60857000D01*
X203905881Y-61031874D01*
X204012873Y-61290209D01*
X204239458Y-61552474D01*
X204170117Y-61656251D01*
X204101741Y-62000000D01*
X204170117Y-62343749D01*
X204364725Y-62635000D01*
X204170117Y-62926251D01*
X204101741Y-63270000D01*
X204170117Y-63613749D01*
X204364725Y-63905000D01*
X204283967Y-64025863D01*
X204243059Y-64034000D01*
X204095463Y-64063359D01*
X203928088Y-64175194D01*
X203899857Y-64217445D01*
X203623303Y-64494000D01*
X195835000Y-64494000D01*
X195835000Y-61765750D01*
X195676250Y-61607000D01*
X192327000Y-61607000D01*
X192327000Y-61627000D01*
X192073000Y-61627000D01*
X192073000Y-61607000D01*
X188723750Y-61607000D01*
X188565000Y-61765750D01*
X188565000Y-64494000D01*
X185049835Y-64494000D01*
X185000000Y-64484087D01*
X184802568Y-64523359D01*
X184777662Y-64540001D01*
X184635194Y-64635194D01*
X184606963Y-64677445D01*
X181465409Y-67819000D01*
X181244649Y-67819000D01*
X180957599Y-67937900D01*
X180881001Y-68014498D01*
X180881001Y-67814081D01*
X181834116Y-66860967D01*
X181890975Y-66822975D01*
X182041489Y-66597715D01*
X182081002Y-66399071D01*
X182081002Y-66399067D01*
X182094342Y-66332002D01*
X182081002Y-66264937D01*
X182081002Y-58467067D01*
X182094342Y-58400002D01*
X182085131Y-58353690D01*
X188565000Y-58353690D01*
X188565000Y-61194250D01*
X188723750Y-61353000D01*
X192073000Y-61353000D01*
X192073000Y-58003750D01*
X192327000Y-58003750D01*
X192327000Y-61353000D01*
X195676250Y-61353000D01*
X195835000Y-61194250D01*
X195835000Y-58353690D01*
X195738327Y-58120301D01*
X195559698Y-57941673D01*
X195326309Y-57845000D01*
X192485750Y-57845000D01*
X192327000Y-58003750D01*
X192073000Y-58003750D01*
X191914250Y-57845000D01*
X189073691Y-57845000D01*
X188840302Y-57941673D01*
X188661673Y-58120301D01*
X188565000Y-58353690D01*
X182085131Y-58353690D01*
X182081002Y-58332937D01*
X182081002Y-58332933D01*
X182041489Y-58134289D01*
X181954625Y-58004289D01*
X181928966Y-57965887D01*
X181928965Y-57965886D01*
X181890974Y-57909029D01*
X181834118Y-57871039D01*
X181362101Y-57399023D01*
X181262100Y-57157599D01*
X181042401Y-56937900D01*
X180755351Y-56819000D01*
X180444649Y-56819000D01*
X180157599Y-56937900D01*
X179937900Y-57157599D01*
X179819000Y-57444649D01*
X179819000Y-57755351D01*
X179937900Y-58042401D01*
X180157599Y-58262100D01*
X180399023Y-58362101D01*
X180719002Y-58682081D01*
X180719003Y-65145365D01*
X180655351Y-65119000D01*
X180344649Y-65119000D01*
X180057599Y-65237900D01*
X179837900Y-65457599D01*
X179737899Y-65699022D01*
X178165887Y-67271035D01*
X178109028Y-67309027D01*
X178071037Y-67365885D01*
X178071036Y-67365886D01*
X177980990Y-67500649D01*
X177980990Y-65824824D01*
X177990903Y-65774990D01*
X177975902Y-65699576D01*
X177951631Y-65577559D01*
X177839796Y-65410184D01*
X177797545Y-65381953D01*
X176793035Y-64377444D01*
X176793033Y-64377441D01*
X176781000Y-64365408D01*
X176781000Y-64144649D01*
X176662100Y-63857599D01*
X176442401Y-63637900D01*
X176155351Y-63519000D01*
X175844649Y-63519000D01*
X175557599Y-63637900D01*
X175337900Y-63857599D01*
X175219000Y-64144649D01*
X171456000Y-64144649D01*
X171456000Y-52456000D01*
X225544000Y-52456000D01*
X225544001Y-54955091D01*
X225544001Y-54955091D01*
G37*
X225544001Y-54955091D02*
X225544000Y-106544000D01*
X171456000Y-106544000D01*
X171456000Y-102605955D01*
X173019000Y-102605955D01*
X173019000Y-103394045D01*
X173320589Y-104122146D01*
X173877854Y-104679411D01*
X174605955Y-104981000D01*
X175394045Y-104981000D01*
X176122146Y-104679411D01*
X176679411Y-104122146D01*
X176981000Y-103394045D01*
X176981000Y-102605955D01*
X176679411Y-101877854D01*
X176122146Y-101320589D01*
X175394045Y-101019000D01*
X174605955Y-101019000D01*
X173877854Y-101320589D01*
X173320589Y-101877854D01*
X173019000Y-102605955D01*
X171456000Y-102605955D01*
X171456000Y-64144649D01*
X175219000Y-64144649D01*
X175219000Y-64455351D01*
X175337900Y-64742401D01*
X175557599Y-64962100D01*
X175844649Y-65081000D01*
X176065408Y-65081000D01*
X176077441Y-65093033D01*
X176077444Y-65093035D01*
X176968991Y-65984583D01*
X176968991Y-70366071D01*
X176855351Y-70319000D01*
X176544649Y-70319000D01*
X176257599Y-70437900D01*
X176037900Y-70657599D01*
X175919000Y-70944649D01*
X175919000Y-71255351D01*
X176037900Y-71542401D01*
X176194000Y-71698501D01*
X176194000Y-71715519D01*
X176194001Y-71715524D01*
X176194000Y-78470474D01*
X176184087Y-78520308D01*
X176194000Y-78570142D01*
X176223359Y-78717738D01*
X176335194Y-78885114D01*
X176377448Y-78913347D01*
X193061675Y-95597577D01*
X193089906Y-95639828D01*
X193257281Y-95751663D01*
X193404877Y-95781022D01*
X193454711Y-95790935D01*
X193504545Y-95781022D01*
X206813113Y-95781022D01*
X211351090Y-100319000D01*
X201396772Y-100319000D01*
X201155351Y-100219000D01*
X200844649Y-100219000D01*
X200557599Y-100337900D01*
X200337900Y-100557599D01*
X200219000Y-100844649D01*
X200219000Y-101155351D01*
X200337900Y-101442401D01*
X200557599Y-101662100D01*
X200844649Y-101781000D01*
X201155351Y-101781000D01*
X201396772Y-101681000D01*
X211392602Y-101681000D01*
X215075239Y-105363638D01*
X215175240Y-105605061D01*
X215394939Y-105824760D01*
X215636363Y-105924761D01*
X215708372Y-105996770D01*
X215746366Y-106053632D01*
X215971626Y-106204146D01*
X216170270Y-106243659D01*
X216170273Y-106243659D01*
X216237338Y-106256999D01*
X216304403Y-106243659D01*
X221820276Y-106243659D01*
X221887341Y-106256999D01*
X221954406Y-106243659D01*
X221954410Y-106243659D01*
X222153054Y-106204146D01*
X222378314Y-106053632D01*
X222416308Y-105996770D01*
X223434119Y-104978961D01*
X223490972Y-104940973D01*
X223528961Y-104884119D01*
X223528964Y-104884116D01*
X223605463Y-104769626D01*
X223641487Y-104715713D01*
X223681000Y-104517069D01*
X223681000Y-104517065D01*
X223694340Y-104450001D01*
X223681000Y-104382937D01*
X223681000Y-104238464D01*
X223850000Y-104238464D01*
X223998659Y-104208894D01*
X224124686Y-104124686D01*
X224208894Y-103998659D01*
X224238464Y-103850000D01*
X224238464Y-102150000D01*
X224208894Y-102001341D01*
X224124686Y-101875314D01*
X223998659Y-101791106D01*
X223850000Y-101761536D01*
X223488370Y-101761536D01*
X223476641Y-101702569D01*
X223428124Y-101629957D01*
X223480312Y-101619576D01*
X223887501Y-101347501D01*
X224159576Y-100940312D01*
X224255116Y-100460000D01*
X224159576Y-99979688D01*
X223887501Y-99572499D01*
X223480312Y-99300424D01*
X223121239Y-99229000D01*
X222878761Y-99229000D01*
X222756415Y-99253336D01*
X222598289Y-99095211D01*
X222878761Y-99151000D01*
X223121239Y-99151000D01*
X223480312Y-99079576D01*
X223887501Y-98807501D01*
X224159576Y-98400312D01*
X224255116Y-97920000D01*
X224159576Y-97439688D01*
X223887501Y-97032499D01*
X223483037Y-96762245D01*
X223881358Y-96575183D01*
X224271645Y-96146924D01*
X224441476Y-95736890D01*
X224320155Y-95507000D01*
X223127000Y-95507000D01*
X223127000Y-95527000D01*
X222873000Y-95527000D01*
X222873000Y-95507000D01*
X221679845Y-95507000D01*
X221558524Y-95736890D01*
X221728355Y-96146924D01*
X222118642Y-96575183D01*
X222516963Y-96762245D01*
X222112499Y-97032499D01*
X221840424Y-97439688D01*
X221744884Y-97920000D01*
X221824789Y-98321711D01*
X221468967Y-97965889D01*
X221430973Y-97909027D01*
X221205713Y-97758513D01*
X221007069Y-97719000D01*
X221007065Y-97719000D01*
X220940000Y-97705660D01*
X220872935Y-97719000D01*
X217751512Y-97719000D01*
X217741487Y-97668602D01*
X217590973Y-97443342D01*
X217534114Y-97405350D01*
X215151874Y-95023110D01*
X221558524Y-95023110D01*
X221679845Y-95253000D01*
X222873000Y-95253000D01*
X222873000Y-94059181D01*
X223127000Y-94059181D01*
X223127000Y-95253000D01*
X224320155Y-95253000D01*
X224441476Y-95023110D01*
X224271645Y-94613076D01*
X223881358Y-94184817D01*
X223356892Y-93938514D01*
X223127000Y-94059181D01*
X222873000Y-94059181D01*
X222643108Y-93938514D01*
X222118642Y-94184817D01*
X221728355Y-94613076D01*
X221558524Y-95023110D01*
X215151874Y-95023110D01*
X213894652Y-93765889D01*
X213856658Y-93709027D01*
X213631398Y-93558513D01*
X213432754Y-93519000D01*
X213432750Y-93519000D01*
X213365685Y-93505660D01*
X213298620Y-93519000D01*
X194182080Y-93519000D01*
X192807729Y-92144649D01*
X200019000Y-92144649D01*
X200019000Y-92455351D01*
X200137900Y-92742401D01*
X200357599Y-92962100D01*
X200644649Y-93081000D01*
X200955351Y-93081000D01*
X201242401Y-92962100D01*
X201462100Y-92742401D01*
X201562101Y-92500977D01*
X201982079Y-92081000D01*
X203803228Y-92081000D01*
X204044649Y-92181000D01*
X204355351Y-92181000D01*
X204642401Y-92062100D01*
X204862100Y-91842401D01*
X204981000Y-91555351D01*
X204981000Y-91244649D01*
X204862100Y-90957599D01*
X204642401Y-90737900D01*
X204355351Y-90619000D01*
X204044649Y-90619000D01*
X203803228Y-90719000D01*
X201767064Y-90719000D01*
X201699999Y-90705660D01*
X201632934Y-90719000D01*
X201632931Y-90719000D01*
X201434287Y-90758513D01*
X201209027Y-90909027D01*
X201171035Y-90965886D01*
X200599023Y-91537899D01*
X200357599Y-91637900D01*
X200137900Y-91857599D01*
X200019000Y-92144649D01*
X192807729Y-92144649D01*
X189488080Y-88825000D01*
X217861536Y-88825000D01*
X217861536Y-90575000D01*
X217957711Y-91058507D01*
X218231596Y-91468404D01*
X218641493Y-91742289D01*
X219125000Y-91838464D01*
X220875000Y-91838464D01*
X221358507Y-91742289D01*
X221768404Y-91468404D01*
X222042289Y-91058507D01*
X222138464Y-90575000D01*
X222138464Y-88825000D01*
X222042289Y-88341493D01*
X221768404Y-87931596D01*
X221358507Y-87657711D01*
X220875000Y-87561536D01*
X219125000Y-87561536D01*
X218641493Y-87657711D01*
X218231596Y-87931596D01*
X217957711Y-88341493D01*
X217861536Y-88825000D01*
X189488080Y-88825000D01*
X183913079Y-83250000D01*
X214861536Y-83250000D01*
X214861536Y-86750000D01*
X214891106Y-86898659D01*
X214975314Y-87024686D01*
X215101341Y-87108894D01*
X215250000Y-87138464D01*
X218750000Y-87138464D01*
X218898659Y-87108894D01*
X219024686Y-87024686D01*
X219108894Y-86898659D01*
X219138464Y-86750000D01*
X219138464Y-85285750D01*
X220865000Y-85285750D01*
X220865000Y-86876310D01*
X220961673Y-87109699D01*
X221140302Y-87288327D01*
X221373691Y-87385000D01*
X222714250Y-87385000D01*
X222873000Y-87226250D01*
X222873000Y-85127000D01*
X223127000Y-85127000D01*
X223127000Y-87226250D01*
X223285750Y-87385000D01*
X224626309Y-87385000D01*
X224859698Y-87288327D01*
X225038327Y-87109699D01*
X225135000Y-86876310D01*
X225135000Y-85285750D01*
X224976250Y-85127000D01*
X223127000Y-85127000D01*
X222873000Y-85127000D01*
X221023750Y-85127000D01*
X220865000Y-85285750D01*
X219138464Y-85285750D01*
X219138464Y-83250000D01*
X219113340Y-83123690D01*
X220865000Y-83123690D01*
X220865000Y-84714250D01*
X221023750Y-84873000D01*
X222873000Y-84873000D01*
X222873000Y-82773750D01*
X223127000Y-82773750D01*
X223127000Y-84873000D01*
X224976250Y-84873000D01*
X225135000Y-84714250D01*
X225135000Y-83123690D01*
X225038327Y-82890301D01*
X224859698Y-82711673D01*
X224626309Y-82615000D01*
X223285750Y-82615000D01*
X223127000Y-82773750D01*
X222873000Y-82773750D01*
X222714250Y-82615000D01*
X221373691Y-82615000D01*
X221140302Y-82711673D01*
X220961673Y-82890301D01*
X220865000Y-83123690D01*
X219113340Y-83123690D01*
X219108894Y-83101341D01*
X219024686Y-82975314D01*
X218898659Y-82891106D01*
X218750000Y-82861536D01*
X215250000Y-82861536D01*
X215101341Y-82891106D01*
X214975314Y-82975314D01*
X214891106Y-83101341D01*
X214861536Y-83250000D01*
X183913079Y-83250000D01*
X179281000Y-78617922D01*
X179281000Y-68082078D01*
X179519001Y-67844077D01*
X179519001Y-68664939D01*
X179505661Y-68732005D01*
X179519001Y-68799071D01*
X179519002Y-77760123D01*
X179505661Y-77827193D01*
X179558514Y-78092905D01*
X179655827Y-78238543D01*
X179709029Y-78318166D01*
X179765887Y-78356157D01*
X180352289Y-78942561D01*
X180352295Y-78942565D01*
X180424303Y-79014573D01*
X180524304Y-79255997D01*
X180744003Y-79475696D01*
X181031053Y-79594596D01*
X181341755Y-79594596D01*
X181628805Y-79475696D01*
X181848504Y-79255997D01*
X181967404Y-78968947D01*
X181967404Y-78658245D01*
X181848504Y-78371195D01*
X181628805Y-78151496D01*
X181387381Y-78051495D01*
X181315373Y-77979487D01*
X181315369Y-77979481D01*
X180881001Y-77545114D01*
X180881001Y-76875030D01*
X199769000Y-76875030D01*
X199769000Y-77324970D01*
X199941184Y-77740660D01*
X200259340Y-78058816D01*
X200675030Y-78231000D01*
X201124970Y-78231000D01*
X201540660Y-78058816D01*
X201858816Y-77740660D01*
X202031000Y-77324970D01*
X202031000Y-76932079D01*
X202182079Y-76781000D01*
X202981524Y-76781000D01*
X203259340Y-77058816D01*
X203675030Y-77231000D01*
X204124970Y-77231000D01*
X204169000Y-77212762D01*
X204169000Y-77467921D01*
X203438184Y-78198737D01*
X203124970Y-78069000D01*
X202675030Y-78069000D01*
X202259340Y-78241184D01*
X201941184Y-78559340D01*
X201769000Y-78975030D01*
X201769000Y-79424970D01*
X201941184Y-79840660D01*
X202259340Y-80158816D01*
X202675030Y-80331000D01*
X203124970Y-80331000D01*
X203540660Y-80158816D01*
X203858816Y-79840660D01*
X203955263Y-79607815D01*
X205132079Y-78431000D01*
X205524970Y-78431000D01*
X205940660Y-78258816D01*
X206258816Y-77940660D01*
X206431000Y-77524970D01*
X206431000Y-77075030D01*
X206258816Y-76659340D01*
X205940660Y-76341184D01*
X205524970Y-76169000D01*
X205075030Y-76169000D01*
X205031000Y-76187238D01*
X205031000Y-75875030D01*
X204858816Y-75459340D01*
X204540660Y-75141184D01*
X204124970Y-74969000D01*
X203675030Y-74969000D01*
X203259340Y-75141184D01*
X202981524Y-75419000D01*
X201967065Y-75419000D01*
X201900000Y-75405660D01*
X201832935Y-75419000D01*
X201832931Y-75419000D01*
X201634287Y-75458513D01*
X201409027Y-75609027D01*
X201371035Y-75665886D01*
X201067921Y-75969000D01*
X200675030Y-75969000D01*
X200259340Y-76141184D01*
X199941184Y-76459340D01*
X199769000Y-76875030D01*
X180881001Y-76875030D01*
X180881001Y-70177038D01*
X180900929Y-70181002D01*
X180900933Y-70181002D01*
X180967998Y-70194342D01*
X181035063Y-70181002D01*
X210972933Y-70181002D01*
X211039998Y-70194342D01*
X211107063Y-70181002D01*
X211107067Y-70181002D01*
X211305711Y-70141489D01*
X211530971Y-69990975D01*
X211568965Y-69934113D01*
X214635019Y-66868060D01*
X214679845Y-66953000D01*
X215873000Y-66953000D01*
X215873000Y-66933000D01*
X216127000Y-66933000D01*
X216127000Y-66953000D01*
X216147000Y-66953000D01*
X216147000Y-67207000D01*
X216127000Y-67207000D01*
X216127000Y-67227000D01*
X215873000Y-67227000D01*
X215873000Y-67207000D01*
X214679845Y-67207000D01*
X214558524Y-67436890D01*
X214728355Y-67846924D01*
X215118642Y-68275183D01*
X215516963Y-68462245D01*
X215112499Y-68732499D01*
X214840424Y-69139688D01*
X214744884Y-69620000D01*
X214840424Y-70100312D01*
X215112499Y-70507501D01*
X215519688Y-70779576D01*
X215878761Y-70851000D01*
X216121239Y-70851000D01*
X216480312Y-70779576D01*
X216669002Y-70653498D01*
X216669002Y-71126502D01*
X216480312Y-71000424D01*
X216121239Y-70929000D01*
X215878761Y-70929000D01*
X215519688Y-71000424D01*
X215112499Y-71272499D01*
X214840424Y-71679688D01*
X214744884Y-72160000D01*
X214840424Y-72640312D01*
X215112499Y-73047501D01*
X215519688Y-73319576D01*
X215878761Y-73391000D01*
X216121239Y-73391000D01*
X216480312Y-73319576D01*
X216669002Y-73193497D01*
X216669002Y-73461536D01*
X215150000Y-73461536D01*
X215001341Y-73491106D01*
X214875314Y-73575314D01*
X214791106Y-73701341D01*
X214761536Y-73850000D01*
X214761536Y-75550000D01*
X214791106Y-75698659D01*
X214875314Y-75824686D01*
X215001341Y-75908894D01*
X215150000Y-75938464D01*
X216398459Y-75938464D01*
X213917924Y-78419000D01*
X212523501Y-78419000D01*
X212442401Y-78337900D01*
X212155351Y-78219000D01*
X211844649Y-78219000D01*
X211557599Y-78337900D01*
X211337900Y-78557599D01*
X211267391Y-78727822D01*
X209914135Y-77374567D01*
X209980990Y-77213166D01*
X209980990Y-76902464D01*
X209862090Y-76615414D01*
X209642391Y-76395715D01*
X209355341Y-76276815D01*
X209044639Y-76276815D01*
X208757589Y-76395715D01*
X208537890Y-76615414D01*
X208418990Y-76902464D01*
X208418990Y-77213166D01*
X208518990Y-77454587D01*
X208518990Y-77556435D01*
X208505650Y-77623500D01*
X208518990Y-77690565D01*
X208518990Y-77690568D01*
X208558503Y-77889212D01*
X208709017Y-78114472D01*
X208765877Y-78152465D01*
X208965282Y-78351871D01*
X208757589Y-78437900D01*
X208537890Y-78657599D01*
X208418990Y-78944649D01*
X208418990Y-79255351D01*
X208537890Y-79542401D01*
X208757589Y-79762100D01*
X208999013Y-79862101D01*
X209071025Y-79934113D01*
X210271047Y-81134136D01*
X210309037Y-81190992D01*
X210365893Y-81228982D01*
X210365895Y-81228984D01*
X210534297Y-81341507D01*
X210800010Y-81394360D01*
X210867080Y-81381019D01*
X214795686Y-81381022D01*
X214862752Y-81394362D01*
X214929817Y-81381022D01*
X214929820Y-81381022D01*
X215128464Y-81341509D01*
X215353724Y-81190995D01*
X215391716Y-81134136D01*
X221434117Y-75091737D01*
X221490973Y-75053747D01*
X221641487Y-74828487D01*
X221681000Y-74629843D01*
X221681000Y-74629840D01*
X221694340Y-74562775D01*
X221681000Y-74495710D01*
X221681000Y-73909836D01*
X221690793Y-73903293D01*
X221752500Y-73810942D01*
X221752500Y-73826310D01*
X221849173Y-74059699D01*
X222027802Y-74238327D01*
X222261191Y-74335000D01*
X222589250Y-74335000D01*
X222748000Y-74176250D01*
X222748000Y-73127000D01*
X223002000Y-73127000D01*
X223002000Y-74176250D01*
X223160750Y-74335000D01*
X223488809Y-74335000D01*
X223722198Y-74238327D01*
X223900827Y-74059699D01*
X223997500Y-73826310D01*
X223997500Y-73285750D01*
X223838750Y-73127000D01*
X223002000Y-73127000D01*
X222748000Y-73127000D01*
X222728000Y-73127000D01*
X222728000Y-72873000D01*
X222748000Y-72873000D01*
X222748000Y-71823750D01*
X223002000Y-71823750D01*
X223002000Y-72873000D01*
X223838750Y-72873000D01*
X223997500Y-72714250D01*
X223997500Y-72173690D01*
X223900827Y-71940301D01*
X223722198Y-71761673D01*
X223488809Y-71665000D01*
X223160750Y-71665000D01*
X223002000Y-71823750D01*
X222748000Y-71823750D01*
X222589250Y-71665000D01*
X222261191Y-71665000D01*
X222027802Y-71761673D01*
X221849173Y-71940301D01*
X221752500Y-72173690D01*
X221752500Y-72189058D01*
X221690793Y-72096707D01*
X221485688Y-71959660D01*
X221243750Y-71911536D01*
X220756250Y-71911536D01*
X220514312Y-71959660D01*
X220309207Y-72096707D01*
X220172160Y-72301812D01*
X220124036Y-72543750D01*
X220124036Y-73456250D01*
X220172160Y-73698188D01*
X220309207Y-73903293D01*
X220319001Y-73909837D01*
X220319001Y-74280693D01*
X218831010Y-75768684D01*
X218831012Y-73132066D01*
X220874615Y-71088464D01*
X221243750Y-71088464D01*
X221485688Y-71040340D01*
X221690793Y-70903293D01*
X221752500Y-70810942D01*
X221752500Y-70826310D01*
X221849173Y-71059699D01*
X222027802Y-71238327D01*
X222261191Y-71335000D01*
X222589250Y-71335000D01*
X222748000Y-71176250D01*
X222748000Y-70127000D01*
X223002000Y-70127000D01*
X223002000Y-71176250D01*
X223160750Y-71335000D01*
X223488809Y-71335000D01*
X223722198Y-71238327D01*
X223900827Y-71059699D01*
X223997500Y-70826310D01*
X223997500Y-70285750D01*
X223838750Y-70127000D01*
X223002000Y-70127000D01*
X222748000Y-70127000D01*
X222728000Y-70127000D01*
X222728000Y-69873000D01*
X222748000Y-69873000D01*
X222748000Y-68823750D01*
X223002000Y-68823750D01*
X223002000Y-69873000D01*
X223838750Y-69873000D01*
X223997500Y-69714250D01*
X223997500Y-69173690D01*
X223900827Y-68940301D01*
X223722198Y-68761673D01*
X223488809Y-68665000D01*
X223160750Y-68665000D01*
X223002000Y-68823750D01*
X222748000Y-68823750D01*
X222589250Y-68665000D01*
X222261191Y-68665000D01*
X222027802Y-68761673D01*
X221849173Y-68940301D01*
X221752500Y-69173690D01*
X221752500Y-69189058D01*
X221690793Y-69096707D01*
X221485688Y-68959660D01*
X221243750Y-68911536D01*
X220756250Y-68911536D01*
X220514312Y-68959660D01*
X220309207Y-69096707D01*
X220172160Y-69301812D01*
X220124036Y-69543750D01*
X220124036Y-69912885D01*
X218031001Y-72005921D01*
X218031001Y-60877066D01*
X218044341Y-60810001D01*
X218031001Y-60742936D01*
X218031001Y-60742932D01*
X217991488Y-60544288D01*
X217917872Y-60434114D01*
X217878965Y-60375886D01*
X217878964Y-60375885D01*
X217840973Y-60319028D01*
X217784117Y-60281038D01*
X217206664Y-59703585D01*
X217255116Y-59460000D01*
X217159576Y-58979688D01*
X216887501Y-58572499D01*
X216480312Y-58300424D01*
X216121239Y-58229000D01*
X215878761Y-58229000D01*
X215598289Y-58284789D01*
X215756415Y-58126664D01*
X215878761Y-58151000D01*
X216121239Y-58151000D01*
X216480312Y-58079576D01*
X216887501Y-57807501D01*
X217159576Y-57400312D01*
X217238824Y-57001903D01*
X218219000Y-57982079D01*
X218219001Y-59932927D01*
X218219000Y-59932932D01*
X218219000Y-59932935D01*
X218205660Y-60000000D01*
X218219000Y-60067065D01*
X218219001Y-63632930D01*
X218205660Y-63700000D01*
X218258513Y-63965712D01*
X218349958Y-64102569D01*
X218409028Y-64190973D01*
X218465887Y-64228965D01*
X219871037Y-65634117D01*
X219909027Y-65690973D01*
X219965883Y-65728963D01*
X219965884Y-65728964D01*
X220034767Y-65774990D01*
X220134287Y-65841487D01*
X220332931Y-65881000D01*
X220332934Y-65881000D01*
X220399999Y-65894340D01*
X220467064Y-65881000D01*
X220611536Y-65881000D01*
X220611536Y-66810000D01*
X220641106Y-66958659D01*
X220725314Y-67084686D01*
X220851341Y-67168894D01*
X221000000Y-67198464D01*
X223000000Y-67198464D01*
X223148659Y-67168894D01*
X223274686Y-67084686D01*
X223358894Y-66958659D01*
X223388464Y-66810000D01*
X223388464Y-64310000D01*
X223358894Y-64161341D01*
X223274686Y-64035314D01*
X223148659Y-63951106D01*
X223000000Y-63921536D01*
X222081000Y-63921536D01*
X222081000Y-62896772D01*
X222181000Y-62655351D01*
X222181000Y-62344649D01*
X222062100Y-62057599D01*
X221842401Y-61837900D01*
X221600978Y-61737899D01*
X219581000Y-59717922D01*
X219581000Y-57767064D01*
X219594340Y-57699999D01*
X219581000Y-57632932D01*
X219581000Y-57632931D01*
X219541487Y-57434287D01*
X219442238Y-57285750D01*
X220365000Y-57285750D01*
X220365000Y-58376309D01*
X220461673Y-58609698D01*
X220640301Y-58788327D01*
X220873690Y-58885000D01*
X221714250Y-58885000D01*
X221873000Y-58726250D01*
X221873000Y-57127000D01*
X222127000Y-57127000D01*
X222127000Y-58726250D01*
X222285750Y-58885000D01*
X223126310Y-58885000D01*
X223359699Y-58788327D01*
X223538327Y-58609698D01*
X223635000Y-58376309D01*
X223635000Y-57285750D01*
X223476250Y-57127000D01*
X222127000Y-57127000D01*
X221873000Y-57127000D01*
X220523750Y-57127000D01*
X220365000Y-57285750D01*
X219442238Y-57285750D01*
X219428964Y-57265885D01*
X219428963Y-57265884D01*
X219390972Y-57209027D01*
X219334116Y-57171037D01*
X217786770Y-55623691D01*
X220365000Y-55623691D01*
X220365000Y-56714250D01*
X220523750Y-56873000D01*
X221873000Y-56873000D01*
X221873000Y-55273750D01*
X222127000Y-55273750D01*
X222127000Y-56873000D01*
X223476250Y-56873000D01*
X223635000Y-56714250D01*
X223635000Y-55623691D01*
X223538327Y-55390302D01*
X223359699Y-55211673D01*
X223126310Y-55115000D01*
X222285750Y-55115000D01*
X222127000Y-55273750D01*
X221873000Y-55273750D01*
X221714250Y-55115000D01*
X220873690Y-55115000D01*
X220640301Y-55211673D01*
X220461673Y-55390302D01*
X220365000Y-55623691D01*
X217786770Y-55623691D01*
X216828967Y-54665889D01*
X216790973Y-54609027D01*
X216565713Y-54458513D01*
X216367069Y-54419000D01*
X216367065Y-54419000D01*
X216300000Y-54405660D01*
X216232935Y-54419000D01*
X214667064Y-54419000D01*
X214599999Y-54405660D01*
X214532934Y-54419000D01*
X214532931Y-54419000D01*
X214334287Y-54458513D01*
X214109027Y-54609027D01*
X214071035Y-54665886D01*
X213415875Y-55321047D01*
X213359016Y-55359039D01*
X213321024Y-55415898D01*
X213208501Y-55584300D01*
X213155648Y-55850012D01*
X213168989Y-55917082D01*
X213168988Y-62936547D01*
X212901738Y-63203797D01*
X212759232Y-62859756D01*
X212441076Y-62541600D01*
X212025386Y-62369416D01*
X211915337Y-62369416D01*
X211734733Y-62188812D01*
X211734731Y-62188809D01*
X208444317Y-58898396D01*
X208395165Y-58824835D01*
X208103749Y-58630117D01*
X207846767Y-58579000D01*
X207846763Y-58579000D01*
X207760000Y-58561742D01*
X207673237Y-58579000D01*
X206807524Y-58579000D01*
X206770000Y-58571536D01*
X205770000Y-58571536D01*
X205732476Y-58579000D01*
X204913233Y-58579000D01*
X204656251Y-58630117D01*
X204364835Y-58824835D01*
X204170117Y-59116251D01*
X204101741Y-59460000D01*
X204170117Y-59803749D01*
X204239458Y-59907526D01*
X204012873Y-60169791D01*
X203905881Y-60428126D01*
X204032046Y-60603000D01*
X204873000Y-60603000D01*
X204873000Y-60583000D01*
X205127000Y-60583000D01*
X205127000Y-60603000D01*
X206143000Y-60603000D01*
X206143000Y-60583000D01*
X206397000Y-60583000D01*
X206397000Y-60603000D01*
X207237954Y-60603000D01*
X207364119Y-60428126D01*
X207328035Y-60341000D01*
X207395079Y-60341000D01*
X210488809Y-63434731D01*
X210488812Y-63434733D01*
X210669416Y-63615337D01*
X210669416Y-63725386D01*
X210841600Y-64141076D01*
X211159756Y-64459232D01*
X211503797Y-64601738D01*
X209582965Y-66522571D01*
X209402285Y-66558511D01*
X209177025Y-66709025D01*
X209139033Y-66765884D01*
X208785918Y-67119000D01*
X185328954Y-67119000D01*
X185262100Y-66957599D01*
X185042401Y-66737900D01*
X184755351Y-66619000D01*
X184444649Y-66619000D01*
X184157599Y-66737900D01*
X183937900Y-66957599D01*
X183819000Y-67244649D01*
X183819000Y-67555351D01*
X183937900Y-67842401D01*
X184157599Y-68062100D01*
X184399022Y-68162101D01*
X184471035Y-68234113D01*
X184509027Y-68290973D01*
X184734287Y-68441487D01*
X184932931Y-68481000D01*
X184932935Y-68481000D01*
X184999999Y-68494340D01*
X185067063Y-68481000D01*
X209000931Y-68481000D01*
X209067996Y-68494340D01*
X209135061Y-68481000D01*
X209135065Y-68481000D01*
X209333709Y-68441487D01*
X209382575Y-68408836D01*
X209437900Y-68542401D01*
X209657599Y-68762100D01*
X209794973Y-68819002D01*
X182154635Y-68819002D01*
X182181000Y-68755351D01*
X182181000Y-68534591D01*
X185209592Y-65506000D01*
X203783060Y-65506000D01*
X203832894Y-65515913D01*
X203882728Y-65506000D01*
X203882729Y-65506000D01*
X204030325Y-65476641D01*
X204197700Y-65364806D01*
X204225932Y-65322553D01*
X204369922Y-65178564D01*
X204656251Y-65369883D01*
X204913233Y-65421000D01*
X205086767Y-65421000D01*
X205343749Y-65369883D01*
X205635000Y-65175275D01*
X205926251Y-65369883D01*
X205951932Y-65374991D01*
X205707924Y-65619000D01*
X203896772Y-65619000D01*
X203655351Y-65519000D01*
X203344649Y-65519000D01*
X203057599Y-65637900D01*
X202837900Y-65857599D01*
X202719000Y-66144649D01*
X202719000Y-66455351D01*
X202837900Y-66742401D01*
X203057599Y-66962100D01*
X203344649Y-67081000D01*
X203655351Y-67081000D01*
X203896772Y-66981000D01*
X205922937Y-66981000D01*
X205990002Y-66994340D01*
X206057067Y-66981000D01*
X206057071Y-66981000D01*
X206255715Y-66941487D01*
X206480975Y-66790973D01*
X206518969Y-66734111D01*
X207704115Y-65548966D01*
X207760974Y-65510974D01*
X207911488Y-65285714D01*
X207951001Y-65087070D01*
X207951001Y-65087066D01*
X207964341Y-65020001D01*
X207951001Y-64952936D01*
X207951001Y-63629959D01*
X207964341Y-63562894D01*
X207951001Y-63495827D01*
X207951001Y-63495826D01*
X207911488Y-63297182D01*
X207760973Y-63071922D01*
X207704114Y-63033930D01*
X207506073Y-62835889D01*
X207468079Y-62779027D01*
X207242819Y-62628513D01*
X207044175Y-62589000D01*
X207044171Y-62589000D01*
X206977106Y-62575660D01*
X206939992Y-62583042D01*
X207099883Y-62343749D01*
X207168259Y-62000000D01*
X207099883Y-61656251D01*
X207030542Y-61552474D01*
X207257127Y-61290209D01*
X207364119Y-61031874D01*
X207237954Y-60857000D01*
X206397000Y-60857000D01*
X206397000Y-60877000D01*
X206143000Y-60877000D01*
X206143000Y-60857000D01*
X205127000Y-60857000D01*
X205127000Y-60877000D01*
X204873000Y-60877000D01*
X204873000Y-60857000D01*
X204032046Y-60857000D01*
X203905881Y-61031874D01*
X204012873Y-61290209D01*
X204239458Y-61552474D01*
X204170117Y-61656251D01*
X204101741Y-62000000D01*
X204170117Y-62343749D01*
X204364725Y-62635000D01*
X204170117Y-62926251D01*
X204101741Y-63270000D01*
X204170117Y-63613749D01*
X204364725Y-63905000D01*
X204283967Y-64025863D01*
X204243059Y-64034000D01*
X204095463Y-64063359D01*
X203928088Y-64175194D01*
X203899857Y-64217445D01*
X203623303Y-64494000D01*
X195835000Y-64494000D01*
X195835000Y-61765750D01*
X195676250Y-61607000D01*
X192327000Y-61607000D01*
X192327000Y-61627000D01*
X192073000Y-61627000D01*
X192073000Y-61607000D01*
X188723750Y-61607000D01*
X188565000Y-61765750D01*
X188565000Y-64494000D01*
X185049835Y-64494000D01*
X185000000Y-64484087D01*
X184802568Y-64523359D01*
X184777662Y-64540001D01*
X184635194Y-64635194D01*
X184606963Y-64677445D01*
X181465409Y-67819000D01*
X181244649Y-67819000D01*
X180957599Y-67937900D01*
X180881001Y-68014498D01*
X180881001Y-67814081D01*
X181834116Y-66860967D01*
X181890975Y-66822975D01*
X182041489Y-66597715D01*
X182081002Y-66399071D01*
X182081002Y-66399067D01*
X182094342Y-66332002D01*
X182081002Y-66264937D01*
X182081002Y-58467067D01*
X182094342Y-58400002D01*
X182085131Y-58353690D01*
X188565000Y-58353690D01*
X188565000Y-61194250D01*
X188723750Y-61353000D01*
X192073000Y-61353000D01*
X192073000Y-58003750D01*
X192327000Y-58003750D01*
X192327000Y-61353000D01*
X195676250Y-61353000D01*
X195835000Y-61194250D01*
X195835000Y-58353690D01*
X195738327Y-58120301D01*
X195559698Y-57941673D01*
X195326309Y-57845000D01*
X192485750Y-57845000D01*
X192327000Y-58003750D01*
X192073000Y-58003750D01*
X191914250Y-57845000D01*
X189073691Y-57845000D01*
X188840302Y-57941673D01*
X188661673Y-58120301D01*
X188565000Y-58353690D01*
X182085131Y-58353690D01*
X182081002Y-58332937D01*
X182081002Y-58332933D01*
X182041489Y-58134289D01*
X181954625Y-58004289D01*
X181928966Y-57965887D01*
X181928965Y-57965886D01*
X181890974Y-57909029D01*
X181834118Y-57871039D01*
X181362101Y-57399023D01*
X181262100Y-57157599D01*
X181042401Y-56937900D01*
X180755351Y-56819000D01*
X180444649Y-56819000D01*
X180157599Y-56937900D01*
X179937900Y-57157599D01*
X179819000Y-57444649D01*
X179819000Y-57755351D01*
X179937900Y-58042401D01*
X180157599Y-58262100D01*
X180399023Y-58362101D01*
X180719002Y-58682081D01*
X180719003Y-65145365D01*
X180655351Y-65119000D01*
X180344649Y-65119000D01*
X180057599Y-65237900D01*
X179837900Y-65457599D01*
X179737899Y-65699022D01*
X178165887Y-67271035D01*
X178109028Y-67309027D01*
X178071037Y-67365885D01*
X178071036Y-67365886D01*
X177980990Y-67500649D01*
X177980990Y-65824824D01*
X177990903Y-65774990D01*
X177975902Y-65699576D01*
X177951631Y-65577559D01*
X177839796Y-65410184D01*
X177797545Y-65381953D01*
X176793035Y-64377444D01*
X176793033Y-64377441D01*
X176781000Y-64365408D01*
X176781000Y-64144649D01*
X176662100Y-63857599D01*
X176442401Y-63637900D01*
X176155351Y-63519000D01*
X175844649Y-63519000D01*
X175557599Y-63637900D01*
X175337900Y-63857599D01*
X175219000Y-64144649D01*
X171456000Y-64144649D01*
X171456000Y-52456000D01*
X225544000Y-52456000D01*
X225544001Y-54955091D01*
G36*
X217206963Y-101922555D02*
X217235194Y-101964806D01*
X217394584Y-102071305D01*
X217341106Y-102151341D01*
X217311536Y-102300000D01*
X217311536Y-103700000D01*
X217341106Y-103848659D01*
X217371402Y-103894000D01*
X216357274Y-103894000D01*
X207794284Y-95331011D01*
X210615420Y-95331011D01*
X217206963Y-101922555D01*
X217206963Y-101922555D01*
G37*
X217206963Y-101922555D02*
X217235194Y-101964806D01*
X217394584Y-102071305D01*
X217341106Y-102151341D01*
X217311536Y-102300000D01*
X217311536Y-103700000D01*
X217341106Y-103848659D01*
X217371402Y-103894000D01*
X216357274Y-103894000D01*
X207794284Y-95331011D01*
X210615420Y-95331011D01*
X217206963Y-101922555D01*
G36*
X219147000Y-101727000D02*
X218853000Y-101727000D01*
X218853000Y-101473000D01*
X219147000Y-101473000D01*
X219147000Y-101727000D01*
X219147000Y-101727000D01*
G37*
X219147000Y-101727000D02*
X218853000Y-101727000D01*
X218853000Y-101473000D01*
X219147000Y-101473000D01*
X219147000Y-101727000D01*
G36*
X216385854Y-98183248D02*
X216319000Y-98344649D01*
X216319000Y-98655351D01*
X216437900Y-98942401D01*
X216657599Y-99162100D01*
X216944649Y-99281000D01*
X217255351Y-99281000D01*
X217542401Y-99162100D01*
X217623501Y-99081000D01*
X220657922Y-99081000D01*
X221793336Y-100216415D01*
X221744884Y-100460000D01*
X221840424Y-100940312D01*
X221943115Y-101094000D01*
X220537271Y-101094000D01*
X220508894Y-100951341D01*
X220424686Y-100825314D01*
X220298659Y-100741106D01*
X220161935Y-100713910D01*
X220009699Y-100561673D01*
X219776310Y-100465000D01*
X219733750Y-100465000D01*
X219575000Y-100623750D01*
X219575000Y-100626974D01*
X219509699Y-100561673D01*
X219276310Y-100465000D01*
X219223690Y-100465000D01*
X219000000Y-100557656D01*
X218776310Y-100465000D01*
X218723690Y-100465000D01*
X218490301Y-100561673D01*
X218425000Y-100626974D01*
X218425000Y-100623750D01*
X218266250Y-100465000D01*
X218223690Y-100465000D01*
X217990301Y-100561673D01*
X217838065Y-100713910D01*
X217701341Y-100741106D01*
X217575314Y-100825314D01*
X217561532Y-100845940D01*
X211596591Y-94881000D01*
X213083607Y-94881000D01*
X216385854Y-98183248D01*
X216385854Y-98183248D01*
G37*
X216385854Y-98183248D02*
X216319000Y-98344649D01*
X216319000Y-98655351D01*
X216437900Y-98942401D01*
X216657599Y-99162100D01*
X216944649Y-99281000D01*
X217255351Y-99281000D01*
X217542401Y-99162100D01*
X217623501Y-99081000D01*
X220657922Y-99081000D01*
X221793336Y-100216415D01*
X221744884Y-100460000D01*
X221840424Y-100940312D01*
X221943115Y-101094000D01*
X220537271Y-101094000D01*
X220508894Y-100951341D01*
X220424686Y-100825314D01*
X220298659Y-100741106D01*
X220161935Y-100713910D01*
X220009699Y-100561673D01*
X219776310Y-100465000D01*
X219733750Y-100465000D01*
X219575000Y-100623750D01*
X219575000Y-100626974D01*
X219509699Y-100561673D01*
X219276310Y-100465000D01*
X219223690Y-100465000D01*
X219000000Y-100557656D01*
X218776310Y-100465000D01*
X218723690Y-100465000D01*
X218490301Y-100561673D01*
X218425000Y-100626974D01*
X218425000Y-100623750D01*
X218266250Y-100465000D01*
X218223690Y-100465000D01*
X217990301Y-100561673D01*
X217838065Y-100713910D01*
X217701341Y-100741106D01*
X217575314Y-100825314D01*
X217561532Y-100845940D01*
X211596591Y-94881000D01*
X213083607Y-94881000D01*
X216385854Y-98183248D01*
G04 #@! TD*
M02*
