G04 #@! TF.GenerationSoftware,KiCad,Pcbnew,(5.0.0)*
G04 #@! TF.CreationDate,2019-06-18T20:36:07+02:00*
G04 #@! TF.ProjectId,PMS7003wifi,504D5337303033776966692E6B696361,rev?*
G04 #@! TF.SameCoordinates,Original*
G04 #@! TF.FileFunction,Soldermask,Top*
G04 #@! TF.FilePolarity,Negative*
%FSLAX46Y46*%
G04 Gerber Fmt 4.6, Leading zero omitted, Abs format (unit mm)*
G04 Created by KiCad (PCBNEW (5.0.0)) date 06/18/19 20:36:07*
%MOMM*%
%LPD*%
G01*
G04 APERTURE LIST*
%ADD10R,3.900000X3.900000*%
%ADD11C,0.100000*%
%ADD12C,3.400000*%
%ADD13C,3.900000*%
%ADD14C,1.275000*%
%ADD15C,2.475000*%
%ADD16R,2.100000X2.100000*%
%ADD17O,2.100000X2.100000*%
%ADD18R,1.200000X1.300000*%
%ADD19R,1.300000X1.200000*%
%ADD20R,2.900000X2.400000*%
%ADD21R,4.200000X2.400000*%
%ADD22R,1.900000X2.400000*%
%ADD23R,1.800000X1.300000*%
%ADD24R,1.300000X1.800000*%
%ADD25R,6.400000X6.400000*%
%ADD26R,1.400000X1.400000*%
%ADD27O,1.400000X1.400000*%
%ADD28C,3.600000*%
G04 APERTURE END LIST*
D10*
G04 #@! TO.C,J3*
X217000000Y-85000000D03*
D11*
G36*
X223933315Y-83054093D02*
X224015827Y-83066333D01*
X224096742Y-83086601D01*
X224175281Y-83114702D01*
X224250687Y-83150367D01*
X224322235Y-83193251D01*
X224389234Y-83242941D01*
X224451041Y-83298959D01*
X224507059Y-83360766D01*
X224556749Y-83427765D01*
X224599633Y-83499313D01*
X224635298Y-83574719D01*
X224663399Y-83653258D01*
X224683667Y-83734173D01*
X224695907Y-83816685D01*
X224700000Y-83900000D01*
X224700000Y-86100000D01*
X224695907Y-86183315D01*
X224683667Y-86265827D01*
X224663399Y-86346742D01*
X224635298Y-86425281D01*
X224599633Y-86500687D01*
X224556749Y-86572235D01*
X224507059Y-86639234D01*
X224451041Y-86701041D01*
X224389234Y-86757059D01*
X224322235Y-86806749D01*
X224250687Y-86849633D01*
X224175281Y-86885298D01*
X224096742Y-86913399D01*
X224015827Y-86933667D01*
X223933315Y-86945907D01*
X223850000Y-86950000D01*
X222150000Y-86950000D01*
X222066685Y-86945907D01*
X221984173Y-86933667D01*
X221903258Y-86913399D01*
X221824719Y-86885298D01*
X221749313Y-86849633D01*
X221677765Y-86806749D01*
X221610766Y-86757059D01*
X221548959Y-86701041D01*
X221492941Y-86639234D01*
X221443251Y-86572235D01*
X221400367Y-86500687D01*
X221364702Y-86425281D01*
X221336601Y-86346742D01*
X221316333Y-86265827D01*
X221304093Y-86183315D01*
X221300000Y-86100000D01*
X221300000Y-83900000D01*
X221304093Y-83816685D01*
X221316333Y-83734173D01*
X221336601Y-83653258D01*
X221364702Y-83574719D01*
X221400367Y-83499313D01*
X221443251Y-83427765D01*
X221492941Y-83360766D01*
X221548959Y-83298959D01*
X221610766Y-83242941D01*
X221677765Y-83193251D01*
X221749313Y-83150367D01*
X221824719Y-83114702D01*
X221903258Y-83086601D01*
X221984173Y-83066333D01*
X222066685Y-83054093D01*
X222150000Y-83050000D01*
X223850000Y-83050000D01*
X223933315Y-83054093D01*
X223933315Y-83054093D01*
G37*
D12*
X223000000Y-85000000D03*
D11*
G36*
X221070567Y-87754695D02*
X221165213Y-87768734D01*
X221258028Y-87791983D01*
X221348116Y-87824217D01*
X221434612Y-87865127D01*
X221516681Y-87914317D01*
X221593533Y-87971315D01*
X221664429Y-88035571D01*
X221728685Y-88106467D01*
X221785683Y-88183319D01*
X221834873Y-88265388D01*
X221875783Y-88351884D01*
X221908017Y-88441972D01*
X221931266Y-88534787D01*
X221945305Y-88629433D01*
X221950000Y-88725000D01*
X221950000Y-90675000D01*
X221945305Y-90770567D01*
X221931266Y-90865213D01*
X221908017Y-90958028D01*
X221875783Y-91048116D01*
X221834873Y-91134612D01*
X221785683Y-91216681D01*
X221728685Y-91293533D01*
X221664429Y-91364429D01*
X221593533Y-91428685D01*
X221516681Y-91485683D01*
X221434612Y-91534873D01*
X221348116Y-91575783D01*
X221258028Y-91608017D01*
X221165213Y-91631266D01*
X221070567Y-91645305D01*
X220975000Y-91650000D01*
X219025000Y-91650000D01*
X218929433Y-91645305D01*
X218834787Y-91631266D01*
X218741972Y-91608017D01*
X218651884Y-91575783D01*
X218565388Y-91534873D01*
X218483319Y-91485683D01*
X218406467Y-91428685D01*
X218335571Y-91364429D01*
X218271315Y-91293533D01*
X218214317Y-91216681D01*
X218165127Y-91134612D01*
X218124217Y-91048116D01*
X218091983Y-90958028D01*
X218068734Y-90865213D01*
X218054695Y-90770567D01*
X218050000Y-90675000D01*
X218050000Y-88725000D01*
X218054695Y-88629433D01*
X218068734Y-88534787D01*
X218091983Y-88441972D01*
X218124217Y-88351884D01*
X218165127Y-88265388D01*
X218214317Y-88183319D01*
X218271315Y-88106467D01*
X218335571Y-88035571D01*
X218406467Y-87971315D01*
X218483319Y-87914317D01*
X218565388Y-87865127D01*
X218651884Y-87824217D01*
X218741972Y-87791983D01*
X218834787Y-87768734D01*
X218929433Y-87754695D01*
X219025000Y-87750000D01*
X220975000Y-87750000D01*
X221070567Y-87754695D01*
X221070567Y-87754695D01*
G37*
D13*
X220000000Y-89700000D03*
G04 #@! TD*
D11*
G04 #@! TO.C,C1*
G36*
X179349993Y-97326535D02*
X179380935Y-97331125D01*
X179411278Y-97338725D01*
X179440730Y-97349263D01*
X179469008Y-97362638D01*
X179495838Y-97378719D01*
X179520963Y-97397353D01*
X179544140Y-97418360D01*
X179565147Y-97441537D01*
X179583781Y-97466662D01*
X179599862Y-97493492D01*
X179613237Y-97521770D01*
X179623775Y-97551222D01*
X179631375Y-97581565D01*
X179635965Y-97612507D01*
X179637500Y-97643750D01*
X179637500Y-98356250D01*
X179635965Y-98387493D01*
X179631375Y-98418435D01*
X179623775Y-98448778D01*
X179613237Y-98478230D01*
X179599862Y-98506508D01*
X179583781Y-98533338D01*
X179565147Y-98558463D01*
X179544140Y-98581640D01*
X179520963Y-98602647D01*
X179495838Y-98621281D01*
X179469008Y-98637362D01*
X179440730Y-98650737D01*
X179411278Y-98661275D01*
X179380935Y-98668875D01*
X179349993Y-98673465D01*
X179318750Y-98675000D01*
X178681250Y-98675000D01*
X178650007Y-98673465D01*
X178619065Y-98668875D01*
X178588722Y-98661275D01*
X178559270Y-98650737D01*
X178530992Y-98637362D01*
X178504162Y-98621281D01*
X178479037Y-98602647D01*
X178455860Y-98581640D01*
X178434853Y-98558463D01*
X178416219Y-98533338D01*
X178400138Y-98506508D01*
X178386763Y-98478230D01*
X178376225Y-98448778D01*
X178368625Y-98418435D01*
X178364035Y-98387493D01*
X178362500Y-98356250D01*
X178362500Y-97643750D01*
X178364035Y-97612507D01*
X178368625Y-97581565D01*
X178376225Y-97551222D01*
X178386763Y-97521770D01*
X178400138Y-97493492D01*
X178416219Y-97466662D01*
X178434853Y-97441537D01*
X178455860Y-97418360D01*
X178479037Y-97397353D01*
X178504162Y-97378719D01*
X178530992Y-97362638D01*
X178559270Y-97349263D01*
X178588722Y-97338725D01*
X178619065Y-97331125D01*
X178650007Y-97326535D01*
X178681250Y-97325000D01*
X179318750Y-97325000D01*
X179349993Y-97326535D01*
X179349993Y-97326535D01*
G37*
D14*
X179000000Y-98000000D03*
D11*
G36*
X180924993Y-97326535D02*
X180955935Y-97331125D01*
X180986278Y-97338725D01*
X181015730Y-97349263D01*
X181044008Y-97362638D01*
X181070838Y-97378719D01*
X181095963Y-97397353D01*
X181119140Y-97418360D01*
X181140147Y-97441537D01*
X181158781Y-97466662D01*
X181174862Y-97493492D01*
X181188237Y-97521770D01*
X181198775Y-97551222D01*
X181206375Y-97581565D01*
X181210965Y-97612507D01*
X181212500Y-97643750D01*
X181212500Y-98356250D01*
X181210965Y-98387493D01*
X181206375Y-98418435D01*
X181198775Y-98448778D01*
X181188237Y-98478230D01*
X181174862Y-98506508D01*
X181158781Y-98533338D01*
X181140147Y-98558463D01*
X181119140Y-98581640D01*
X181095963Y-98602647D01*
X181070838Y-98621281D01*
X181044008Y-98637362D01*
X181015730Y-98650737D01*
X180986278Y-98661275D01*
X180955935Y-98668875D01*
X180924993Y-98673465D01*
X180893750Y-98675000D01*
X180256250Y-98675000D01*
X180225007Y-98673465D01*
X180194065Y-98668875D01*
X180163722Y-98661275D01*
X180134270Y-98650737D01*
X180105992Y-98637362D01*
X180079162Y-98621281D01*
X180054037Y-98602647D01*
X180030860Y-98581640D01*
X180009853Y-98558463D01*
X179991219Y-98533338D01*
X179975138Y-98506508D01*
X179961763Y-98478230D01*
X179951225Y-98448778D01*
X179943625Y-98418435D01*
X179939035Y-98387493D01*
X179937500Y-98356250D01*
X179937500Y-97643750D01*
X179939035Y-97612507D01*
X179943625Y-97581565D01*
X179951225Y-97551222D01*
X179961763Y-97521770D01*
X179975138Y-97493492D01*
X179991219Y-97466662D01*
X180009853Y-97441537D01*
X180030860Y-97418360D01*
X180054037Y-97397353D01*
X180079162Y-97378719D01*
X180105992Y-97362638D01*
X180134270Y-97349263D01*
X180163722Y-97338725D01*
X180194065Y-97331125D01*
X180225007Y-97326535D01*
X180256250Y-97325000D01*
X180893750Y-97325000D01*
X180924993Y-97326535D01*
X180924993Y-97326535D01*
G37*
D14*
X180575000Y-98000000D03*
G04 #@! TD*
D11*
G04 #@! TO.C,C2*
G36*
X220387493Y-60939035D02*
X220418435Y-60943625D01*
X220448778Y-60951225D01*
X220478230Y-60961763D01*
X220506508Y-60975138D01*
X220533338Y-60991219D01*
X220558463Y-61009853D01*
X220581640Y-61030860D01*
X220602647Y-61054037D01*
X220621281Y-61079162D01*
X220637362Y-61105992D01*
X220650737Y-61134270D01*
X220661275Y-61163722D01*
X220668875Y-61194065D01*
X220673465Y-61225007D01*
X220675000Y-61256250D01*
X220675000Y-61893750D01*
X220673465Y-61924993D01*
X220668875Y-61955935D01*
X220661275Y-61986278D01*
X220650737Y-62015730D01*
X220637362Y-62044008D01*
X220621281Y-62070838D01*
X220602647Y-62095963D01*
X220581640Y-62119140D01*
X220558463Y-62140147D01*
X220533338Y-62158781D01*
X220506508Y-62174862D01*
X220478230Y-62188237D01*
X220448778Y-62198775D01*
X220418435Y-62206375D01*
X220387493Y-62210965D01*
X220356250Y-62212500D01*
X219643750Y-62212500D01*
X219612507Y-62210965D01*
X219581565Y-62206375D01*
X219551222Y-62198775D01*
X219521770Y-62188237D01*
X219493492Y-62174862D01*
X219466662Y-62158781D01*
X219441537Y-62140147D01*
X219418360Y-62119140D01*
X219397353Y-62095963D01*
X219378719Y-62070838D01*
X219362638Y-62044008D01*
X219349263Y-62015730D01*
X219338725Y-61986278D01*
X219331125Y-61955935D01*
X219326535Y-61924993D01*
X219325000Y-61893750D01*
X219325000Y-61256250D01*
X219326535Y-61225007D01*
X219331125Y-61194065D01*
X219338725Y-61163722D01*
X219349263Y-61134270D01*
X219362638Y-61105992D01*
X219378719Y-61079162D01*
X219397353Y-61054037D01*
X219418360Y-61030860D01*
X219441537Y-61009853D01*
X219466662Y-60991219D01*
X219493492Y-60975138D01*
X219521770Y-60961763D01*
X219551222Y-60951225D01*
X219581565Y-60943625D01*
X219612507Y-60939035D01*
X219643750Y-60937500D01*
X220356250Y-60937500D01*
X220387493Y-60939035D01*
X220387493Y-60939035D01*
G37*
D14*
X220000000Y-61575000D03*
D11*
G36*
X220387493Y-59364035D02*
X220418435Y-59368625D01*
X220448778Y-59376225D01*
X220478230Y-59386763D01*
X220506508Y-59400138D01*
X220533338Y-59416219D01*
X220558463Y-59434853D01*
X220581640Y-59455860D01*
X220602647Y-59479037D01*
X220621281Y-59504162D01*
X220637362Y-59530992D01*
X220650737Y-59559270D01*
X220661275Y-59588722D01*
X220668875Y-59619065D01*
X220673465Y-59650007D01*
X220675000Y-59681250D01*
X220675000Y-60318750D01*
X220673465Y-60349993D01*
X220668875Y-60380935D01*
X220661275Y-60411278D01*
X220650737Y-60440730D01*
X220637362Y-60469008D01*
X220621281Y-60495838D01*
X220602647Y-60520963D01*
X220581640Y-60544140D01*
X220558463Y-60565147D01*
X220533338Y-60583781D01*
X220506508Y-60599862D01*
X220478230Y-60613237D01*
X220448778Y-60623775D01*
X220418435Y-60631375D01*
X220387493Y-60635965D01*
X220356250Y-60637500D01*
X219643750Y-60637500D01*
X219612507Y-60635965D01*
X219581565Y-60631375D01*
X219551222Y-60623775D01*
X219521770Y-60613237D01*
X219493492Y-60599862D01*
X219466662Y-60583781D01*
X219441537Y-60565147D01*
X219418360Y-60544140D01*
X219397353Y-60520963D01*
X219378719Y-60495838D01*
X219362638Y-60469008D01*
X219349263Y-60440730D01*
X219338725Y-60411278D01*
X219331125Y-60380935D01*
X219326535Y-60349993D01*
X219325000Y-60318750D01*
X219325000Y-59681250D01*
X219326535Y-59650007D01*
X219331125Y-59619065D01*
X219338725Y-59588722D01*
X219349263Y-59559270D01*
X219362638Y-59530992D01*
X219378719Y-59504162D01*
X219397353Y-59479037D01*
X219418360Y-59455860D01*
X219441537Y-59434853D01*
X219466662Y-59416219D01*
X219493492Y-59400138D01*
X219521770Y-59386763D01*
X219551222Y-59376225D01*
X219581565Y-59368625D01*
X219612507Y-59364035D01*
X219643750Y-59362500D01*
X220356250Y-59362500D01*
X220387493Y-59364035D01*
X220387493Y-59364035D01*
G37*
D14*
X220000000Y-60000000D03*
G04 #@! TD*
D11*
G04 #@! TO.C,C3*
G36*
X175306036Y-59788936D02*
X175334982Y-59793230D01*
X175363369Y-59800340D01*
X175390921Y-59810199D01*
X175417375Y-59822710D01*
X175442475Y-59837754D01*
X175465979Y-59855186D01*
X175487662Y-59874838D01*
X175507314Y-59896521D01*
X175524746Y-59920025D01*
X175539790Y-59945125D01*
X175552301Y-59971579D01*
X175562160Y-59999131D01*
X175569270Y-60027518D01*
X175573564Y-60056464D01*
X175575000Y-60085692D01*
X175575000Y-61964308D01*
X175573564Y-61993536D01*
X175569270Y-62022482D01*
X175562160Y-62050869D01*
X175552301Y-62078421D01*
X175539790Y-62104875D01*
X175524746Y-62129975D01*
X175507314Y-62153479D01*
X175487662Y-62175162D01*
X175465979Y-62194814D01*
X175442475Y-62212246D01*
X175417375Y-62227290D01*
X175390921Y-62239801D01*
X175363369Y-62249660D01*
X175334982Y-62256770D01*
X175306036Y-62261064D01*
X175276808Y-62262500D01*
X172923192Y-62262500D01*
X172893964Y-62261064D01*
X172865018Y-62256770D01*
X172836631Y-62249660D01*
X172809079Y-62239801D01*
X172782625Y-62227290D01*
X172757525Y-62212246D01*
X172734021Y-62194814D01*
X172712338Y-62175162D01*
X172692686Y-62153479D01*
X172675254Y-62129975D01*
X172660210Y-62104875D01*
X172647699Y-62078421D01*
X172637840Y-62050869D01*
X172630730Y-62022482D01*
X172626436Y-61993536D01*
X172625000Y-61964308D01*
X172625000Y-60085692D01*
X172626436Y-60056464D01*
X172630730Y-60027518D01*
X172637840Y-59999131D01*
X172647699Y-59971579D01*
X172660210Y-59945125D01*
X172675254Y-59920025D01*
X172692686Y-59896521D01*
X172712338Y-59874838D01*
X172734021Y-59855186D01*
X172757525Y-59837754D01*
X172782625Y-59822710D01*
X172809079Y-59810199D01*
X172836631Y-59800340D01*
X172865018Y-59793230D01*
X172893964Y-59788936D01*
X172923192Y-59787500D01*
X175276808Y-59787500D01*
X175306036Y-59788936D01*
X175306036Y-59788936D01*
G37*
D15*
X174100000Y-61025000D03*
D11*
G36*
X175306036Y-53563936D02*
X175334982Y-53568230D01*
X175363369Y-53575340D01*
X175390921Y-53585199D01*
X175417375Y-53597710D01*
X175442475Y-53612754D01*
X175465979Y-53630186D01*
X175487662Y-53649838D01*
X175507314Y-53671521D01*
X175524746Y-53695025D01*
X175539790Y-53720125D01*
X175552301Y-53746579D01*
X175562160Y-53774131D01*
X175569270Y-53802518D01*
X175573564Y-53831464D01*
X175575000Y-53860692D01*
X175575000Y-55739308D01*
X175573564Y-55768536D01*
X175569270Y-55797482D01*
X175562160Y-55825869D01*
X175552301Y-55853421D01*
X175539790Y-55879875D01*
X175524746Y-55904975D01*
X175507314Y-55928479D01*
X175487662Y-55950162D01*
X175465979Y-55969814D01*
X175442475Y-55987246D01*
X175417375Y-56002290D01*
X175390921Y-56014801D01*
X175363369Y-56024660D01*
X175334982Y-56031770D01*
X175306036Y-56036064D01*
X175276808Y-56037500D01*
X172923192Y-56037500D01*
X172893964Y-56036064D01*
X172865018Y-56031770D01*
X172836631Y-56024660D01*
X172809079Y-56014801D01*
X172782625Y-56002290D01*
X172757525Y-55987246D01*
X172734021Y-55969814D01*
X172712338Y-55950162D01*
X172692686Y-55928479D01*
X172675254Y-55904975D01*
X172660210Y-55879875D01*
X172647699Y-55853421D01*
X172637840Y-55825869D01*
X172630730Y-55797482D01*
X172626436Y-55768536D01*
X172625000Y-55739308D01*
X172625000Y-53860692D01*
X172626436Y-53831464D01*
X172630730Y-53802518D01*
X172637840Y-53774131D01*
X172647699Y-53746579D01*
X172660210Y-53720125D01*
X172675254Y-53695025D01*
X172692686Y-53671521D01*
X172712338Y-53649838D01*
X172734021Y-53630186D01*
X172757525Y-53612754D01*
X172782625Y-53597710D01*
X172809079Y-53585199D01*
X172836631Y-53575340D01*
X172865018Y-53568230D01*
X172893964Y-53563936D01*
X172923192Y-53562500D01*
X175276808Y-53562500D01*
X175306036Y-53563936D01*
X175306036Y-53563936D01*
G37*
D15*
X174100000Y-54800000D03*
G04 #@! TD*
D11*
G04 #@! TO.C,C4*
G36*
X215787493Y-102639035D02*
X215818435Y-102643625D01*
X215848778Y-102651225D01*
X215878230Y-102661763D01*
X215906508Y-102675138D01*
X215933338Y-102691219D01*
X215958463Y-102709853D01*
X215981640Y-102730860D01*
X216002647Y-102754037D01*
X216021281Y-102779162D01*
X216037362Y-102805992D01*
X216050737Y-102834270D01*
X216061275Y-102863722D01*
X216068875Y-102894065D01*
X216073465Y-102925007D01*
X216075000Y-102956250D01*
X216075000Y-103593750D01*
X216073465Y-103624993D01*
X216068875Y-103655935D01*
X216061275Y-103686278D01*
X216050737Y-103715730D01*
X216037362Y-103744008D01*
X216021281Y-103770838D01*
X216002647Y-103795963D01*
X215981640Y-103819140D01*
X215958463Y-103840147D01*
X215933338Y-103858781D01*
X215906508Y-103874862D01*
X215878230Y-103888237D01*
X215848778Y-103898775D01*
X215818435Y-103906375D01*
X215787493Y-103910965D01*
X215756250Y-103912500D01*
X215043750Y-103912500D01*
X215012507Y-103910965D01*
X214981565Y-103906375D01*
X214951222Y-103898775D01*
X214921770Y-103888237D01*
X214893492Y-103874862D01*
X214866662Y-103858781D01*
X214841537Y-103840147D01*
X214818360Y-103819140D01*
X214797353Y-103795963D01*
X214778719Y-103770838D01*
X214762638Y-103744008D01*
X214749263Y-103715730D01*
X214738725Y-103686278D01*
X214731125Y-103655935D01*
X214726535Y-103624993D01*
X214725000Y-103593750D01*
X214725000Y-102956250D01*
X214726535Y-102925007D01*
X214731125Y-102894065D01*
X214738725Y-102863722D01*
X214749263Y-102834270D01*
X214762638Y-102805992D01*
X214778719Y-102779162D01*
X214797353Y-102754037D01*
X214818360Y-102730860D01*
X214841537Y-102709853D01*
X214866662Y-102691219D01*
X214893492Y-102675138D01*
X214921770Y-102661763D01*
X214951222Y-102651225D01*
X214981565Y-102643625D01*
X215012507Y-102639035D01*
X215043750Y-102637500D01*
X215756250Y-102637500D01*
X215787493Y-102639035D01*
X215787493Y-102639035D01*
G37*
D14*
X215400000Y-103275000D03*
D11*
G36*
X215787493Y-101064035D02*
X215818435Y-101068625D01*
X215848778Y-101076225D01*
X215878230Y-101086763D01*
X215906508Y-101100138D01*
X215933338Y-101116219D01*
X215958463Y-101134853D01*
X215981640Y-101155860D01*
X216002647Y-101179037D01*
X216021281Y-101204162D01*
X216037362Y-101230992D01*
X216050737Y-101259270D01*
X216061275Y-101288722D01*
X216068875Y-101319065D01*
X216073465Y-101350007D01*
X216075000Y-101381250D01*
X216075000Y-102018750D01*
X216073465Y-102049993D01*
X216068875Y-102080935D01*
X216061275Y-102111278D01*
X216050737Y-102140730D01*
X216037362Y-102169008D01*
X216021281Y-102195838D01*
X216002647Y-102220963D01*
X215981640Y-102244140D01*
X215958463Y-102265147D01*
X215933338Y-102283781D01*
X215906508Y-102299862D01*
X215878230Y-102313237D01*
X215848778Y-102323775D01*
X215818435Y-102331375D01*
X215787493Y-102335965D01*
X215756250Y-102337500D01*
X215043750Y-102337500D01*
X215012507Y-102335965D01*
X214981565Y-102331375D01*
X214951222Y-102323775D01*
X214921770Y-102313237D01*
X214893492Y-102299862D01*
X214866662Y-102283781D01*
X214841537Y-102265147D01*
X214818360Y-102244140D01*
X214797353Y-102220963D01*
X214778719Y-102195838D01*
X214762638Y-102169008D01*
X214749263Y-102140730D01*
X214738725Y-102111278D01*
X214731125Y-102080935D01*
X214726535Y-102049993D01*
X214725000Y-102018750D01*
X214725000Y-101381250D01*
X214726535Y-101350007D01*
X214731125Y-101319065D01*
X214738725Y-101288722D01*
X214749263Y-101259270D01*
X214762638Y-101230992D01*
X214778719Y-101204162D01*
X214797353Y-101179037D01*
X214818360Y-101155860D01*
X214841537Y-101134853D01*
X214866662Y-101116219D01*
X214893492Y-101100138D01*
X214921770Y-101086763D01*
X214951222Y-101076225D01*
X214981565Y-101068625D01*
X215012507Y-101064035D01*
X215043750Y-101062500D01*
X215756250Y-101062500D01*
X215787493Y-101064035D01*
X215787493Y-101064035D01*
G37*
D14*
X215400000Y-101700000D03*
G04 #@! TD*
D11*
G04 #@! TO.C,C5*
G36*
X179387493Y-54064035D02*
X179418435Y-54068625D01*
X179448778Y-54076225D01*
X179478230Y-54086763D01*
X179506508Y-54100138D01*
X179533338Y-54116219D01*
X179558463Y-54134853D01*
X179581640Y-54155860D01*
X179602647Y-54179037D01*
X179621281Y-54204162D01*
X179637362Y-54230992D01*
X179650737Y-54259270D01*
X179661275Y-54288722D01*
X179668875Y-54319065D01*
X179673465Y-54350007D01*
X179675000Y-54381250D01*
X179675000Y-55018750D01*
X179673465Y-55049993D01*
X179668875Y-55080935D01*
X179661275Y-55111278D01*
X179650737Y-55140730D01*
X179637362Y-55169008D01*
X179621281Y-55195838D01*
X179602647Y-55220963D01*
X179581640Y-55244140D01*
X179558463Y-55265147D01*
X179533338Y-55283781D01*
X179506508Y-55299862D01*
X179478230Y-55313237D01*
X179448778Y-55323775D01*
X179418435Y-55331375D01*
X179387493Y-55335965D01*
X179356250Y-55337500D01*
X178643750Y-55337500D01*
X178612507Y-55335965D01*
X178581565Y-55331375D01*
X178551222Y-55323775D01*
X178521770Y-55313237D01*
X178493492Y-55299862D01*
X178466662Y-55283781D01*
X178441537Y-55265147D01*
X178418360Y-55244140D01*
X178397353Y-55220963D01*
X178378719Y-55195838D01*
X178362638Y-55169008D01*
X178349263Y-55140730D01*
X178338725Y-55111278D01*
X178331125Y-55080935D01*
X178326535Y-55049993D01*
X178325000Y-55018750D01*
X178325000Y-54381250D01*
X178326535Y-54350007D01*
X178331125Y-54319065D01*
X178338725Y-54288722D01*
X178349263Y-54259270D01*
X178362638Y-54230992D01*
X178378719Y-54204162D01*
X178397353Y-54179037D01*
X178418360Y-54155860D01*
X178441537Y-54134853D01*
X178466662Y-54116219D01*
X178493492Y-54100138D01*
X178521770Y-54086763D01*
X178551222Y-54076225D01*
X178581565Y-54068625D01*
X178612507Y-54064035D01*
X178643750Y-54062500D01*
X179356250Y-54062500D01*
X179387493Y-54064035D01*
X179387493Y-54064035D01*
G37*
D14*
X179000000Y-54700000D03*
D11*
G36*
X179387493Y-55639035D02*
X179418435Y-55643625D01*
X179448778Y-55651225D01*
X179478230Y-55661763D01*
X179506508Y-55675138D01*
X179533338Y-55691219D01*
X179558463Y-55709853D01*
X179581640Y-55730860D01*
X179602647Y-55754037D01*
X179621281Y-55779162D01*
X179637362Y-55805992D01*
X179650737Y-55834270D01*
X179661275Y-55863722D01*
X179668875Y-55894065D01*
X179673465Y-55925007D01*
X179675000Y-55956250D01*
X179675000Y-56593750D01*
X179673465Y-56624993D01*
X179668875Y-56655935D01*
X179661275Y-56686278D01*
X179650737Y-56715730D01*
X179637362Y-56744008D01*
X179621281Y-56770838D01*
X179602647Y-56795963D01*
X179581640Y-56819140D01*
X179558463Y-56840147D01*
X179533338Y-56858781D01*
X179506508Y-56874862D01*
X179478230Y-56888237D01*
X179448778Y-56898775D01*
X179418435Y-56906375D01*
X179387493Y-56910965D01*
X179356250Y-56912500D01*
X178643750Y-56912500D01*
X178612507Y-56910965D01*
X178581565Y-56906375D01*
X178551222Y-56898775D01*
X178521770Y-56888237D01*
X178493492Y-56874862D01*
X178466662Y-56858781D01*
X178441537Y-56840147D01*
X178418360Y-56819140D01*
X178397353Y-56795963D01*
X178378719Y-56770838D01*
X178362638Y-56744008D01*
X178349263Y-56715730D01*
X178338725Y-56686278D01*
X178331125Y-56655935D01*
X178326535Y-56624993D01*
X178325000Y-56593750D01*
X178325000Y-55956250D01*
X178326535Y-55925007D01*
X178331125Y-55894065D01*
X178338725Y-55863722D01*
X178349263Y-55834270D01*
X178362638Y-55805992D01*
X178378719Y-55779162D01*
X178397353Y-55754037D01*
X178418360Y-55730860D01*
X178441537Y-55709853D01*
X178466662Y-55691219D01*
X178493492Y-55675138D01*
X178521770Y-55661763D01*
X178551222Y-55651225D01*
X178581565Y-55643625D01*
X178612507Y-55639035D01*
X178643750Y-55637500D01*
X179356250Y-55637500D01*
X179387493Y-55639035D01*
X179387493Y-55639035D01*
G37*
D14*
X179000000Y-56275000D03*
G04 #@! TD*
D11*
G04 #@! TO.C,C6*
G36*
X219387493Y-98364035D02*
X219418435Y-98368625D01*
X219448778Y-98376225D01*
X219478230Y-98386763D01*
X219506508Y-98400138D01*
X219533338Y-98416219D01*
X219558463Y-98434853D01*
X219581640Y-98455860D01*
X219602647Y-98479037D01*
X219621281Y-98504162D01*
X219637362Y-98530992D01*
X219650737Y-98559270D01*
X219661275Y-98588722D01*
X219668875Y-98619065D01*
X219673465Y-98650007D01*
X219675000Y-98681250D01*
X219675000Y-99318750D01*
X219673465Y-99349993D01*
X219668875Y-99380935D01*
X219661275Y-99411278D01*
X219650737Y-99440730D01*
X219637362Y-99469008D01*
X219621281Y-99495838D01*
X219602647Y-99520963D01*
X219581640Y-99544140D01*
X219558463Y-99565147D01*
X219533338Y-99583781D01*
X219506508Y-99599862D01*
X219478230Y-99613237D01*
X219448778Y-99623775D01*
X219418435Y-99631375D01*
X219387493Y-99635965D01*
X219356250Y-99637500D01*
X218643750Y-99637500D01*
X218612507Y-99635965D01*
X218581565Y-99631375D01*
X218551222Y-99623775D01*
X218521770Y-99613237D01*
X218493492Y-99599862D01*
X218466662Y-99583781D01*
X218441537Y-99565147D01*
X218418360Y-99544140D01*
X218397353Y-99520963D01*
X218378719Y-99495838D01*
X218362638Y-99469008D01*
X218349263Y-99440730D01*
X218338725Y-99411278D01*
X218331125Y-99380935D01*
X218326535Y-99349993D01*
X218325000Y-99318750D01*
X218325000Y-98681250D01*
X218326535Y-98650007D01*
X218331125Y-98619065D01*
X218338725Y-98588722D01*
X218349263Y-98559270D01*
X218362638Y-98530992D01*
X218378719Y-98504162D01*
X218397353Y-98479037D01*
X218418360Y-98455860D01*
X218441537Y-98434853D01*
X218466662Y-98416219D01*
X218493492Y-98400138D01*
X218521770Y-98386763D01*
X218551222Y-98376225D01*
X218581565Y-98368625D01*
X218612507Y-98364035D01*
X218643750Y-98362500D01*
X219356250Y-98362500D01*
X219387493Y-98364035D01*
X219387493Y-98364035D01*
G37*
D14*
X219000000Y-99000000D03*
D11*
G36*
X219387493Y-96789035D02*
X219418435Y-96793625D01*
X219448778Y-96801225D01*
X219478230Y-96811763D01*
X219506508Y-96825138D01*
X219533338Y-96841219D01*
X219558463Y-96859853D01*
X219581640Y-96880860D01*
X219602647Y-96904037D01*
X219621281Y-96929162D01*
X219637362Y-96955992D01*
X219650737Y-96984270D01*
X219661275Y-97013722D01*
X219668875Y-97044065D01*
X219673465Y-97075007D01*
X219675000Y-97106250D01*
X219675000Y-97743750D01*
X219673465Y-97774993D01*
X219668875Y-97805935D01*
X219661275Y-97836278D01*
X219650737Y-97865730D01*
X219637362Y-97894008D01*
X219621281Y-97920838D01*
X219602647Y-97945963D01*
X219581640Y-97969140D01*
X219558463Y-97990147D01*
X219533338Y-98008781D01*
X219506508Y-98024862D01*
X219478230Y-98038237D01*
X219448778Y-98048775D01*
X219418435Y-98056375D01*
X219387493Y-98060965D01*
X219356250Y-98062500D01*
X218643750Y-98062500D01*
X218612507Y-98060965D01*
X218581565Y-98056375D01*
X218551222Y-98048775D01*
X218521770Y-98038237D01*
X218493492Y-98024862D01*
X218466662Y-98008781D01*
X218441537Y-97990147D01*
X218418360Y-97969140D01*
X218397353Y-97945963D01*
X218378719Y-97920838D01*
X218362638Y-97894008D01*
X218349263Y-97865730D01*
X218338725Y-97836278D01*
X218331125Y-97805935D01*
X218326535Y-97774993D01*
X218325000Y-97743750D01*
X218325000Y-97106250D01*
X218326535Y-97075007D01*
X218331125Y-97044065D01*
X218338725Y-97013722D01*
X218349263Y-96984270D01*
X218362638Y-96955992D01*
X218378719Y-96929162D01*
X218397353Y-96904037D01*
X218418360Y-96880860D01*
X218441537Y-96859853D01*
X218466662Y-96841219D01*
X218493492Y-96825138D01*
X218521770Y-96811763D01*
X218551222Y-96801225D01*
X218581565Y-96793625D01*
X218612507Y-96789035D01*
X218643750Y-96787500D01*
X219356250Y-96787500D01*
X219387493Y-96789035D01*
X219387493Y-96789035D01*
G37*
D14*
X219000000Y-97425000D03*
G04 #@! TD*
D16*
G04 #@! TO.C,J2*
X216000000Y-74700000D03*
D17*
X216000000Y-72160000D03*
X216000000Y-69620000D03*
X216000000Y-67080000D03*
X216000000Y-64540000D03*
X216000000Y-62000000D03*
X216000000Y-59460000D03*
X216000000Y-56920000D03*
G04 #@! TD*
D18*
G04 #@! TO.C,Q1*
X202950000Y-96000000D03*
X203900000Y-98000000D03*
X202000000Y-98000000D03*
G04 #@! TD*
D19*
G04 #@! TO.C,Q2*
X192000000Y-95950000D03*
X192000000Y-94050000D03*
X190000000Y-95000000D03*
G04 #@! TD*
D11*
G04 #@! TO.C,R1*
G36*
X198137493Y-100326535D02*
X198168435Y-100331125D01*
X198198778Y-100338725D01*
X198228230Y-100349263D01*
X198256508Y-100362638D01*
X198283338Y-100378719D01*
X198308463Y-100397353D01*
X198331640Y-100418360D01*
X198352647Y-100441537D01*
X198371281Y-100466662D01*
X198387362Y-100493492D01*
X198400737Y-100521770D01*
X198411275Y-100551222D01*
X198418875Y-100581565D01*
X198423465Y-100612507D01*
X198425000Y-100643750D01*
X198425000Y-101356250D01*
X198423465Y-101387493D01*
X198418875Y-101418435D01*
X198411275Y-101448778D01*
X198400737Y-101478230D01*
X198387362Y-101506508D01*
X198371281Y-101533338D01*
X198352647Y-101558463D01*
X198331640Y-101581640D01*
X198308463Y-101602647D01*
X198283338Y-101621281D01*
X198256508Y-101637362D01*
X198228230Y-101650737D01*
X198198778Y-101661275D01*
X198168435Y-101668875D01*
X198137493Y-101673465D01*
X198106250Y-101675000D01*
X197468750Y-101675000D01*
X197437507Y-101673465D01*
X197406565Y-101668875D01*
X197376222Y-101661275D01*
X197346770Y-101650737D01*
X197318492Y-101637362D01*
X197291662Y-101621281D01*
X197266537Y-101602647D01*
X197243360Y-101581640D01*
X197222353Y-101558463D01*
X197203719Y-101533338D01*
X197187638Y-101506508D01*
X197174263Y-101478230D01*
X197163725Y-101448778D01*
X197156125Y-101418435D01*
X197151535Y-101387493D01*
X197150000Y-101356250D01*
X197150000Y-100643750D01*
X197151535Y-100612507D01*
X197156125Y-100581565D01*
X197163725Y-100551222D01*
X197174263Y-100521770D01*
X197187638Y-100493492D01*
X197203719Y-100466662D01*
X197222353Y-100441537D01*
X197243360Y-100418360D01*
X197266537Y-100397353D01*
X197291662Y-100378719D01*
X197318492Y-100362638D01*
X197346770Y-100349263D01*
X197376222Y-100338725D01*
X197406565Y-100331125D01*
X197437507Y-100326535D01*
X197468750Y-100325000D01*
X198106250Y-100325000D01*
X198137493Y-100326535D01*
X198137493Y-100326535D01*
G37*
D14*
X197787500Y-101000000D03*
D11*
G36*
X196562493Y-100326535D02*
X196593435Y-100331125D01*
X196623778Y-100338725D01*
X196653230Y-100349263D01*
X196681508Y-100362638D01*
X196708338Y-100378719D01*
X196733463Y-100397353D01*
X196756640Y-100418360D01*
X196777647Y-100441537D01*
X196796281Y-100466662D01*
X196812362Y-100493492D01*
X196825737Y-100521770D01*
X196836275Y-100551222D01*
X196843875Y-100581565D01*
X196848465Y-100612507D01*
X196850000Y-100643750D01*
X196850000Y-101356250D01*
X196848465Y-101387493D01*
X196843875Y-101418435D01*
X196836275Y-101448778D01*
X196825737Y-101478230D01*
X196812362Y-101506508D01*
X196796281Y-101533338D01*
X196777647Y-101558463D01*
X196756640Y-101581640D01*
X196733463Y-101602647D01*
X196708338Y-101621281D01*
X196681508Y-101637362D01*
X196653230Y-101650737D01*
X196623778Y-101661275D01*
X196593435Y-101668875D01*
X196562493Y-101673465D01*
X196531250Y-101675000D01*
X195893750Y-101675000D01*
X195862507Y-101673465D01*
X195831565Y-101668875D01*
X195801222Y-101661275D01*
X195771770Y-101650737D01*
X195743492Y-101637362D01*
X195716662Y-101621281D01*
X195691537Y-101602647D01*
X195668360Y-101581640D01*
X195647353Y-101558463D01*
X195628719Y-101533338D01*
X195612638Y-101506508D01*
X195599263Y-101478230D01*
X195588725Y-101448778D01*
X195581125Y-101418435D01*
X195576535Y-101387493D01*
X195575000Y-101356250D01*
X195575000Y-100643750D01*
X195576535Y-100612507D01*
X195581125Y-100581565D01*
X195588725Y-100551222D01*
X195599263Y-100521770D01*
X195612638Y-100493492D01*
X195628719Y-100466662D01*
X195647353Y-100441537D01*
X195668360Y-100418360D01*
X195691537Y-100397353D01*
X195716662Y-100378719D01*
X195743492Y-100362638D01*
X195771770Y-100349263D01*
X195801222Y-100338725D01*
X195831565Y-100331125D01*
X195862507Y-100326535D01*
X195893750Y-100325000D01*
X196531250Y-100325000D01*
X196562493Y-100326535D01*
X196562493Y-100326535D01*
G37*
D14*
X196212500Y-101000000D03*
G04 #@! TD*
D11*
G04 #@! TO.C,R2*
G36*
X215387493Y-97939035D02*
X215418435Y-97943625D01*
X215448778Y-97951225D01*
X215478230Y-97961763D01*
X215506508Y-97975138D01*
X215533338Y-97991219D01*
X215558463Y-98009853D01*
X215581640Y-98030860D01*
X215602647Y-98054037D01*
X215621281Y-98079162D01*
X215637362Y-98105992D01*
X215650737Y-98134270D01*
X215661275Y-98163722D01*
X215668875Y-98194065D01*
X215673465Y-98225007D01*
X215675000Y-98256250D01*
X215675000Y-98893750D01*
X215673465Y-98924993D01*
X215668875Y-98955935D01*
X215661275Y-98986278D01*
X215650737Y-99015730D01*
X215637362Y-99044008D01*
X215621281Y-99070838D01*
X215602647Y-99095963D01*
X215581640Y-99119140D01*
X215558463Y-99140147D01*
X215533338Y-99158781D01*
X215506508Y-99174862D01*
X215478230Y-99188237D01*
X215448778Y-99198775D01*
X215418435Y-99206375D01*
X215387493Y-99210965D01*
X215356250Y-99212500D01*
X214643750Y-99212500D01*
X214612507Y-99210965D01*
X214581565Y-99206375D01*
X214551222Y-99198775D01*
X214521770Y-99188237D01*
X214493492Y-99174862D01*
X214466662Y-99158781D01*
X214441537Y-99140147D01*
X214418360Y-99119140D01*
X214397353Y-99095963D01*
X214378719Y-99070838D01*
X214362638Y-99044008D01*
X214349263Y-99015730D01*
X214338725Y-98986278D01*
X214331125Y-98955935D01*
X214326535Y-98924993D01*
X214325000Y-98893750D01*
X214325000Y-98256250D01*
X214326535Y-98225007D01*
X214331125Y-98194065D01*
X214338725Y-98163722D01*
X214349263Y-98134270D01*
X214362638Y-98105992D01*
X214378719Y-98079162D01*
X214397353Y-98054037D01*
X214418360Y-98030860D01*
X214441537Y-98009853D01*
X214466662Y-97991219D01*
X214493492Y-97975138D01*
X214521770Y-97961763D01*
X214551222Y-97951225D01*
X214581565Y-97943625D01*
X214612507Y-97939035D01*
X214643750Y-97937500D01*
X215356250Y-97937500D01*
X215387493Y-97939035D01*
X215387493Y-97939035D01*
G37*
D14*
X215000000Y-98575000D03*
D11*
G36*
X215387493Y-96364035D02*
X215418435Y-96368625D01*
X215448778Y-96376225D01*
X215478230Y-96386763D01*
X215506508Y-96400138D01*
X215533338Y-96416219D01*
X215558463Y-96434853D01*
X215581640Y-96455860D01*
X215602647Y-96479037D01*
X215621281Y-96504162D01*
X215637362Y-96530992D01*
X215650737Y-96559270D01*
X215661275Y-96588722D01*
X215668875Y-96619065D01*
X215673465Y-96650007D01*
X215675000Y-96681250D01*
X215675000Y-97318750D01*
X215673465Y-97349993D01*
X215668875Y-97380935D01*
X215661275Y-97411278D01*
X215650737Y-97440730D01*
X215637362Y-97469008D01*
X215621281Y-97495838D01*
X215602647Y-97520963D01*
X215581640Y-97544140D01*
X215558463Y-97565147D01*
X215533338Y-97583781D01*
X215506508Y-97599862D01*
X215478230Y-97613237D01*
X215448778Y-97623775D01*
X215418435Y-97631375D01*
X215387493Y-97635965D01*
X215356250Y-97637500D01*
X214643750Y-97637500D01*
X214612507Y-97635965D01*
X214581565Y-97631375D01*
X214551222Y-97623775D01*
X214521770Y-97613237D01*
X214493492Y-97599862D01*
X214466662Y-97583781D01*
X214441537Y-97565147D01*
X214418360Y-97544140D01*
X214397353Y-97520963D01*
X214378719Y-97495838D01*
X214362638Y-97469008D01*
X214349263Y-97440730D01*
X214338725Y-97411278D01*
X214331125Y-97380935D01*
X214326535Y-97349993D01*
X214325000Y-97318750D01*
X214325000Y-96681250D01*
X214326535Y-96650007D01*
X214331125Y-96619065D01*
X214338725Y-96588722D01*
X214349263Y-96559270D01*
X214362638Y-96530992D01*
X214378719Y-96504162D01*
X214397353Y-96479037D01*
X214418360Y-96455860D01*
X214441537Y-96434853D01*
X214466662Y-96416219D01*
X214493492Y-96400138D01*
X214521770Y-96386763D01*
X214551222Y-96376225D01*
X214581565Y-96368625D01*
X214612507Y-96364035D01*
X214643750Y-96362500D01*
X215356250Y-96362500D01*
X215387493Y-96364035D01*
X215387493Y-96364035D01*
G37*
D14*
X215000000Y-97000000D03*
G04 #@! TD*
D11*
G04 #@! TO.C,R3*
G36*
X174274993Y-66326535D02*
X174305935Y-66331125D01*
X174336278Y-66338725D01*
X174365730Y-66349263D01*
X174394008Y-66362638D01*
X174420838Y-66378719D01*
X174445963Y-66397353D01*
X174469140Y-66418360D01*
X174490147Y-66441537D01*
X174508781Y-66466662D01*
X174524862Y-66493492D01*
X174538237Y-66521770D01*
X174548775Y-66551222D01*
X174556375Y-66581565D01*
X174560965Y-66612507D01*
X174562500Y-66643750D01*
X174562500Y-67356250D01*
X174560965Y-67387493D01*
X174556375Y-67418435D01*
X174548775Y-67448778D01*
X174538237Y-67478230D01*
X174524862Y-67506508D01*
X174508781Y-67533338D01*
X174490147Y-67558463D01*
X174469140Y-67581640D01*
X174445963Y-67602647D01*
X174420838Y-67621281D01*
X174394008Y-67637362D01*
X174365730Y-67650737D01*
X174336278Y-67661275D01*
X174305935Y-67668875D01*
X174274993Y-67673465D01*
X174243750Y-67675000D01*
X173606250Y-67675000D01*
X173575007Y-67673465D01*
X173544065Y-67668875D01*
X173513722Y-67661275D01*
X173484270Y-67650737D01*
X173455992Y-67637362D01*
X173429162Y-67621281D01*
X173404037Y-67602647D01*
X173380860Y-67581640D01*
X173359853Y-67558463D01*
X173341219Y-67533338D01*
X173325138Y-67506508D01*
X173311763Y-67478230D01*
X173301225Y-67448778D01*
X173293625Y-67418435D01*
X173289035Y-67387493D01*
X173287500Y-67356250D01*
X173287500Y-66643750D01*
X173289035Y-66612507D01*
X173293625Y-66581565D01*
X173301225Y-66551222D01*
X173311763Y-66521770D01*
X173325138Y-66493492D01*
X173341219Y-66466662D01*
X173359853Y-66441537D01*
X173380860Y-66418360D01*
X173404037Y-66397353D01*
X173429162Y-66378719D01*
X173455992Y-66362638D01*
X173484270Y-66349263D01*
X173513722Y-66338725D01*
X173544065Y-66331125D01*
X173575007Y-66326535D01*
X173606250Y-66325000D01*
X174243750Y-66325000D01*
X174274993Y-66326535D01*
X174274993Y-66326535D01*
G37*
D14*
X173925000Y-67000000D03*
D11*
G36*
X175849993Y-66326535D02*
X175880935Y-66331125D01*
X175911278Y-66338725D01*
X175940730Y-66349263D01*
X175969008Y-66362638D01*
X175995838Y-66378719D01*
X176020963Y-66397353D01*
X176044140Y-66418360D01*
X176065147Y-66441537D01*
X176083781Y-66466662D01*
X176099862Y-66493492D01*
X176113237Y-66521770D01*
X176123775Y-66551222D01*
X176131375Y-66581565D01*
X176135965Y-66612507D01*
X176137500Y-66643750D01*
X176137500Y-67356250D01*
X176135965Y-67387493D01*
X176131375Y-67418435D01*
X176123775Y-67448778D01*
X176113237Y-67478230D01*
X176099862Y-67506508D01*
X176083781Y-67533338D01*
X176065147Y-67558463D01*
X176044140Y-67581640D01*
X176020963Y-67602647D01*
X175995838Y-67621281D01*
X175969008Y-67637362D01*
X175940730Y-67650737D01*
X175911278Y-67661275D01*
X175880935Y-67668875D01*
X175849993Y-67673465D01*
X175818750Y-67675000D01*
X175181250Y-67675000D01*
X175150007Y-67673465D01*
X175119065Y-67668875D01*
X175088722Y-67661275D01*
X175059270Y-67650737D01*
X175030992Y-67637362D01*
X175004162Y-67621281D01*
X174979037Y-67602647D01*
X174955860Y-67581640D01*
X174934853Y-67558463D01*
X174916219Y-67533338D01*
X174900138Y-67506508D01*
X174886763Y-67478230D01*
X174876225Y-67448778D01*
X174868625Y-67418435D01*
X174864035Y-67387493D01*
X174862500Y-67356250D01*
X174862500Y-66643750D01*
X174864035Y-66612507D01*
X174868625Y-66581565D01*
X174876225Y-66551222D01*
X174886763Y-66521770D01*
X174900138Y-66493492D01*
X174916219Y-66466662D01*
X174934853Y-66441537D01*
X174955860Y-66418360D01*
X174979037Y-66397353D01*
X175004162Y-66378719D01*
X175030992Y-66362638D01*
X175059270Y-66349263D01*
X175088722Y-66338725D01*
X175119065Y-66331125D01*
X175150007Y-66326535D01*
X175181250Y-66325000D01*
X175818750Y-66325000D01*
X175849993Y-66326535D01*
X175849993Y-66326535D01*
G37*
D14*
X175500000Y-67000000D03*
G04 #@! TD*
D11*
G04 #@! TO.C,R4*
G36*
X175849993Y-68326535D02*
X175880935Y-68331125D01*
X175911278Y-68338725D01*
X175940730Y-68349263D01*
X175969008Y-68362638D01*
X175995838Y-68378719D01*
X176020963Y-68397353D01*
X176044140Y-68418360D01*
X176065147Y-68441537D01*
X176083781Y-68466662D01*
X176099862Y-68493492D01*
X176113237Y-68521770D01*
X176123775Y-68551222D01*
X176131375Y-68581565D01*
X176135965Y-68612507D01*
X176137500Y-68643750D01*
X176137500Y-69356250D01*
X176135965Y-69387493D01*
X176131375Y-69418435D01*
X176123775Y-69448778D01*
X176113237Y-69478230D01*
X176099862Y-69506508D01*
X176083781Y-69533338D01*
X176065147Y-69558463D01*
X176044140Y-69581640D01*
X176020963Y-69602647D01*
X175995838Y-69621281D01*
X175969008Y-69637362D01*
X175940730Y-69650737D01*
X175911278Y-69661275D01*
X175880935Y-69668875D01*
X175849993Y-69673465D01*
X175818750Y-69675000D01*
X175181250Y-69675000D01*
X175150007Y-69673465D01*
X175119065Y-69668875D01*
X175088722Y-69661275D01*
X175059270Y-69650737D01*
X175030992Y-69637362D01*
X175004162Y-69621281D01*
X174979037Y-69602647D01*
X174955860Y-69581640D01*
X174934853Y-69558463D01*
X174916219Y-69533338D01*
X174900138Y-69506508D01*
X174886763Y-69478230D01*
X174876225Y-69448778D01*
X174868625Y-69418435D01*
X174864035Y-69387493D01*
X174862500Y-69356250D01*
X174862500Y-68643750D01*
X174864035Y-68612507D01*
X174868625Y-68581565D01*
X174876225Y-68551222D01*
X174886763Y-68521770D01*
X174900138Y-68493492D01*
X174916219Y-68466662D01*
X174934853Y-68441537D01*
X174955860Y-68418360D01*
X174979037Y-68397353D01*
X175004162Y-68378719D01*
X175030992Y-68362638D01*
X175059270Y-68349263D01*
X175088722Y-68338725D01*
X175119065Y-68331125D01*
X175150007Y-68326535D01*
X175181250Y-68325000D01*
X175818750Y-68325000D01*
X175849993Y-68326535D01*
X175849993Y-68326535D01*
G37*
D14*
X175500000Y-69000000D03*
D11*
G36*
X174274993Y-68326535D02*
X174305935Y-68331125D01*
X174336278Y-68338725D01*
X174365730Y-68349263D01*
X174394008Y-68362638D01*
X174420838Y-68378719D01*
X174445963Y-68397353D01*
X174469140Y-68418360D01*
X174490147Y-68441537D01*
X174508781Y-68466662D01*
X174524862Y-68493492D01*
X174538237Y-68521770D01*
X174548775Y-68551222D01*
X174556375Y-68581565D01*
X174560965Y-68612507D01*
X174562500Y-68643750D01*
X174562500Y-69356250D01*
X174560965Y-69387493D01*
X174556375Y-69418435D01*
X174548775Y-69448778D01*
X174538237Y-69478230D01*
X174524862Y-69506508D01*
X174508781Y-69533338D01*
X174490147Y-69558463D01*
X174469140Y-69581640D01*
X174445963Y-69602647D01*
X174420838Y-69621281D01*
X174394008Y-69637362D01*
X174365730Y-69650737D01*
X174336278Y-69661275D01*
X174305935Y-69668875D01*
X174274993Y-69673465D01*
X174243750Y-69675000D01*
X173606250Y-69675000D01*
X173575007Y-69673465D01*
X173544065Y-69668875D01*
X173513722Y-69661275D01*
X173484270Y-69650737D01*
X173455992Y-69637362D01*
X173429162Y-69621281D01*
X173404037Y-69602647D01*
X173380860Y-69581640D01*
X173359853Y-69558463D01*
X173341219Y-69533338D01*
X173325138Y-69506508D01*
X173311763Y-69478230D01*
X173301225Y-69448778D01*
X173293625Y-69418435D01*
X173289035Y-69387493D01*
X173287500Y-69356250D01*
X173287500Y-68643750D01*
X173289035Y-68612507D01*
X173293625Y-68581565D01*
X173301225Y-68551222D01*
X173311763Y-68521770D01*
X173325138Y-68493492D01*
X173341219Y-68466662D01*
X173359853Y-68441537D01*
X173380860Y-68418360D01*
X173404037Y-68397353D01*
X173429162Y-68378719D01*
X173455992Y-68362638D01*
X173484270Y-68349263D01*
X173513722Y-68338725D01*
X173544065Y-68331125D01*
X173575007Y-68326535D01*
X173606250Y-68325000D01*
X174243750Y-68325000D01*
X174274993Y-68326535D01*
X174274993Y-68326535D01*
G37*
D14*
X173925000Y-69000000D03*
G04 #@! TD*
D11*
G04 #@! TO.C,R5*
G36*
X198349993Y-93326535D02*
X198380935Y-93331125D01*
X198411278Y-93338725D01*
X198440730Y-93349263D01*
X198469008Y-93362638D01*
X198495838Y-93378719D01*
X198520963Y-93397353D01*
X198544140Y-93418360D01*
X198565147Y-93441537D01*
X198583781Y-93466662D01*
X198599862Y-93493492D01*
X198613237Y-93521770D01*
X198623775Y-93551222D01*
X198631375Y-93581565D01*
X198635965Y-93612507D01*
X198637500Y-93643750D01*
X198637500Y-94356250D01*
X198635965Y-94387493D01*
X198631375Y-94418435D01*
X198623775Y-94448778D01*
X198613237Y-94478230D01*
X198599862Y-94506508D01*
X198583781Y-94533338D01*
X198565147Y-94558463D01*
X198544140Y-94581640D01*
X198520963Y-94602647D01*
X198495838Y-94621281D01*
X198469008Y-94637362D01*
X198440730Y-94650737D01*
X198411278Y-94661275D01*
X198380935Y-94668875D01*
X198349993Y-94673465D01*
X198318750Y-94675000D01*
X197681250Y-94675000D01*
X197650007Y-94673465D01*
X197619065Y-94668875D01*
X197588722Y-94661275D01*
X197559270Y-94650737D01*
X197530992Y-94637362D01*
X197504162Y-94621281D01*
X197479037Y-94602647D01*
X197455860Y-94581640D01*
X197434853Y-94558463D01*
X197416219Y-94533338D01*
X197400138Y-94506508D01*
X197386763Y-94478230D01*
X197376225Y-94448778D01*
X197368625Y-94418435D01*
X197364035Y-94387493D01*
X197362500Y-94356250D01*
X197362500Y-93643750D01*
X197364035Y-93612507D01*
X197368625Y-93581565D01*
X197376225Y-93551222D01*
X197386763Y-93521770D01*
X197400138Y-93493492D01*
X197416219Y-93466662D01*
X197434853Y-93441537D01*
X197455860Y-93418360D01*
X197479037Y-93397353D01*
X197504162Y-93378719D01*
X197530992Y-93362638D01*
X197559270Y-93349263D01*
X197588722Y-93338725D01*
X197619065Y-93331125D01*
X197650007Y-93326535D01*
X197681250Y-93325000D01*
X198318750Y-93325000D01*
X198349993Y-93326535D01*
X198349993Y-93326535D01*
G37*
D14*
X198000000Y-94000000D03*
D11*
G36*
X196774993Y-93326535D02*
X196805935Y-93331125D01*
X196836278Y-93338725D01*
X196865730Y-93349263D01*
X196894008Y-93362638D01*
X196920838Y-93378719D01*
X196945963Y-93397353D01*
X196969140Y-93418360D01*
X196990147Y-93441537D01*
X197008781Y-93466662D01*
X197024862Y-93493492D01*
X197038237Y-93521770D01*
X197048775Y-93551222D01*
X197056375Y-93581565D01*
X197060965Y-93612507D01*
X197062500Y-93643750D01*
X197062500Y-94356250D01*
X197060965Y-94387493D01*
X197056375Y-94418435D01*
X197048775Y-94448778D01*
X197038237Y-94478230D01*
X197024862Y-94506508D01*
X197008781Y-94533338D01*
X196990147Y-94558463D01*
X196969140Y-94581640D01*
X196945963Y-94602647D01*
X196920838Y-94621281D01*
X196894008Y-94637362D01*
X196865730Y-94650737D01*
X196836278Y-94661275D01*
X196805935Y-94668875D01*
X196774993Y-94673465D01*
X196743750Y-94675000D01*
X196106250Y-94675000D01*
X196075007Y-94673465D01*
X196044065Y-94668875D01*
X196013722Y-94661275D01*
X195984270Y-94650737D01*
X195955992Y-94637362D01*
X195929162Y-94621281D01*
X195904037Y-94602647D01*
X195880860Y-94581640D01*
X195859853Y-94558463D01*
X195841219Y-94533338D01*
X195825138Y-94506508D01*
X195811763Y-94478230D01*
X195801225Y-94448778D01*
X195793625Y-94418435D01*
X195789035Y-94387493D01*
X195787500Y-94356250D01*
X195787500Y-93643750D01*
X195789035Y-93612507D01*
X195793625Y-93581565D01*
X195801225Y-93551222D01*
X195811763Y-93521770D01*
X195825138Y-93493492D01*
X195841219Y-93466662D01*
X195859853Y-93441537D01*
X195880860Y-93418360D01*
X195904037Y-93397353D01*
X195929162Y-93378719D01*
X195955992Y-93362638D01*
X195984270Y-93349263D01*
X196013722Y-93338725D01*
X196044065Y-93331125D01*
X196075007Y-93326535D01*
X196106250Y-93325000D01*
X196743750Y-93325000D01*
X196774993Y-93326535D01*
X196774993Y-93326535D01*
G37*
D14*
X196425000Y-94000000D03*
G04 #@! TD*
D11*
G04 #@! TO.C,R6*
G36*
X198349993Y-96326535D02*
X198380935Y-96331125D01*
X198411278Y-96338725D01*
X198440730Y-96349263D01*
X198469008Y-96362638D01*
X198495838Y-96378719D01*
X198520963Y-96397353D01*
X198544140Y-96418360D01*
X198565147Y-96441537D01*
X198583781Y-96466662D01*
X198599862Y-96493492D01*
X198613237Y-96521770D01*
X198623775Y-96551222D01*
X198631375Y-96581565D01*
X198635965Y-96612507D01*
X198637500Y-96643750D01*
X198637500Y-97356250D01*
X198635965Y-97387493D01*
X198631375Y-97418435D01*
X198623775Y-97448778D01*
X198613237Y-97478230D01*
X198599862Y-97506508D01*
X198583781Y-97533338D01*
X198565147Y-97558463D01*
X198544140Y-97581640D01*
X198520963Y-97602647D01*
X198495838Y-97621281D01*
X198469008Y-97637362D01*
X198440730Y-97650737D01*
X198411278Y-97661275D01*
X198380935Y-97668875D01*
X198349993Y-97673465D01*
X198318750Y-97675000D01*
X197681250Y-97675000D01*
X197650007Y-97673465D01*
X197619065Y-97668875D01*
X197588722Y-97661275D01*
X197559270Y-97650737D01*
X197530992Y-97637362D01*
X197504162Y-97621281D01*
X197479037Y-97602647D01*
X197455860Y-97581640D01*
X197434853Y-97558463D01*
X197416219Y-97533338D01*
X197400138Y-97506508D01*
X197386763Y-97478230D01*
X197376225Y-97448778D01*
X197368625Y-97418435D01*
X197364035Y-97387493D01*
X197362500Y-97356250D01*
X197362500Y-96643750D01*
X197364035Y-96612507D01*
X197368625Y-96581565D01*
X197376225Y-96551222D01*
X197386763Y-96521770D01*
X197400138Y-96493492D01*
X197416219Y-96466662D01*
X197434853Y-96441537D01*
X197455860Y-96418360D01*
X197479037Y-96397353D01*
X197504162Y-96378719D01*
X197530992Y-96362638D01*
X197559270Y-96349263D01*
X197588722Y-96338725D01*
X197619065Y-96331125D01*
X197650007Y-96326535D01*
X197681250Y-96325000D01*
X198318750Y-96325000D01*
X198349993Y-96326535D01*
X198349993Y-96326535D01*
G37*
D14*
X198000000Y-97000000D03*
D11*
G36*
X196774993Y-96326535D02*
X196805935Y-96331125D01*
X196836278Y-96338725D01*
X196865730Y-96349263D01*
X196894008Y-96362638D01*
X196920838Y-96378719D01*
X196945963Y-96397353D01*
X196969140Y-96418360D01*
X196990147Y-96441537D01*
X197008781Y-96466662D01*
X197024862Y-96493492D01*
X197038237Y-96521770D01*
X197048775Y-96551222D01*
X197056375Y-96581565D01*
X197060965Y-96612507D01*
X197062500Y-96643750D01*
X197062500Y-97356250D01*
X197060965Y-97387493D01*
X197056375Y-97418435D01*
X197048775Y-97448778D01*
X197038237Y-97478230D01*
X197024862Y-97506508D01*
X197008781Y-97533338D01*
X196990147Y-97558463D01*
X196969140Y-97581640D01*
X196945963Y-97602647D01*
X196920838Y-97621281D01*
X196894008Y-97637362D01*
X196865730Y-97650737D01*
X196836278Y-97661275D01*
X196805935Y-97668875D01*
X196774993Y-97673465D01*
X196743750Y-97675000D01*
X196106250Y-97675000D01*
X196075007Y-97673465D01*
X196044065Y-97668875D01*
X196013722Y-97661275D01*
X195984270Y-97650737D01*
X195955992Y-97637362D01*
X195929162Y-97621281D01*
X195904037Y-97602647D01*
X195880860Y-97581640D01*
X195859853Y-97558463D01*
X195841219Y-97533338D01*
X195825138Y-97506508D01*
X195811763Y-97478230D01*
X195801225Y-97448778D01*
X195793625Y-97418435D01*
X195789035Y-97387493D01*
X195787500Y-97356250D01*
X195787500Y-96643750D01*
X195789035Y-96612507D01*
X195793625Y-96581565D01*
X195801225Y-96551222D01*
X195811763Y-96521770D01*
X195825138Y-96493492D01*
X195841219Y-96466662D01*
X195859853Y-96441537D01*
X195880860Y-96418360D01*
X195904037Y-96397353D01*
X195929162Y-96378719D01*
X195955992Y-96362638D01*
X195984270Y-96349263D01*
X196013722Y-96338725D01*
X196044065Y-96331125D01*
X196075007Y-96326535D01*
X196106250Y-96325000D01*
X196743750Y-96325000D01*
X196774993Y-96326535D01*
X196774993Y-96326535D01*
G37*
D14*
X196425000Y-97000000D03*
G04 #@! TD*
D11*
G04 #@! TO.C,R7*
G36*
X184937493Y-74126535D02*
X184968435Y-74131125D01*
X184998778Y-74138725D01*
X185028230Y-74149263D01*
X185056508Y-74162638D01*
X185083338Y-74178719D01*
X185108463Y-74197353D01*
X185131640Y-74218360D01*
X185152647Y-74241537D01*
X185171281Y-74266662D01*
X185187362Y-74293492D01*
X185200737Y-74321770D01*
X185211275Y-74351222D01*
X185218875Y-74381565D01*
X185223465Y-74412507D01*
X185225000Y-74443750D01*
X185225000Y-75156250D01*
X185223465Y-75187493D01*
X185218875Y-75218435D01*
X185211275Y-75248778D01*
X185200737Y-75278230D01*
X185187362Y-75306508D01*
X185171281Y-75333338D01*
X185152647Y-75358463D01*
X185131640Y-75381640D01*
X185108463Y-75402647D01*
X185083338Y-75421281D01*
X185056508Y-75437362D01*
X185028230Y-75450737D01*
X184998778Y-75461275D01*
X184968435Y-75468875D01*
X184937493Y-75473465D01*
X184906250Y-75475000D01*
X184268750Y-75475000D01*
X184237507Y-75473465D01*
X184206565Y-75468875D01*
X184176222Y-75461275D01*
X184146770Y-75450737D01*
X184118492Y-75437362D01*
X184091662Y-75421281D01*
X184066537Y-75402647D01*
X184043360Y-75381640D01*
X184022353Y-75358463D01*
X184003719Y-75333338D01*
X183987638Y-75306508D01*
X183974263Y-75278230D01*
X183963725Y-75248778D01*
X183956125Y-75218435D01*
X183951535Y-75187493D01*
X183950000Y-75156250D01*
X183950000Y-74443750D01*
X183951535Y-74412507D01*
X183956125Y-74381565D01*
X183963725Y-74351222D01*
X183974263Y-74321770D01*
X183987638Y-74293492D01*
X184003719Y-74266662D01*
X184022353Y-74241537D01*
X184043360Y-74218360D01*
X184066537Y-74197353D01*
X184091662Y-74178719D01*
X184118492Y-74162638D01*
X184146770Y-74149263D01*
X184176222Y-74138725D01*
X184206565Y-74131125D01*
X184237507Y-74126535D01*
X184268750Y-74125000D01*
X184906250Y-74125000D01*
X184937493Y-74126535D01*
X184937493Y-74126535D01*
G37*
D14*
X184587500Y-74800000D03*
D11*
G36*
X183362493Y-74126535D02*
X183393435Y-74131125D01*
X183423778Y-74138725D01*
X183453230Y-74149263D01*
X183481508Y-74162638D01*
X183508338Y-74178719D01*
X183533463Y-74197353D01*
X183556640Y-74218360D01*
X183577647Y-74241537D01*
X183596281Y-74266662D01*
X183612362Y-74293492D01*
X183625737Y-74321770D01*
X183636275Y-74351222D01*
X183643875Y-74381565D01*
X183648465Y-74412507D01*
X183650000Y-74443750D01*
X183650000Y-75156250D01*
X183648465Y-75187493D01*
X183643875Y-75218435D01*
X183636275Y-75248778D01*
X183625737Y-75278230D01*
X183612362Y-75306508D01*
X183596281Y-75333338D01*
X183577647Y-75358463D01*
X183556640Y-75381640D01*
X183533463Y-75402647D01*
X183508338Y-75421281D01*
X183481508Y-75437362D01*
X183453230Y-75450737D01*
X183423778Y-75461275D01*
X183393435Y-75468875D01*
X183362493Y-75473465D01*
X183331250Y-75475000D01*
X182693750Y-75475000D01*
X182662507Y-75473465D01*
X182631565Y-75468875D01*
X182601222Y-75461275D01*
X182571770Y-75450737D01*
X182543492Y-75437362D01*
X182516662Y-75421281D01*
X182491537Y-75402647D01*
X182468360Y-75381640D01*
X182447353Y-75358463D01*
X182428719Y-75333338D01*
X182412638Y-75306508D01*
X182399263Y-75278230D01*
X182388725Y-75248778D01*
X182381125Y-75218435D01*
X182376535Y-75187493D01*
X182375000Y-75156250D01*
X182375000Y-74443750D01*
X182376535Y-74412507D01*
X182381125Y-74381565D01*
X182388725Y-74351222D01*
X182399263Y-74321770D01*
X182412638Y-74293492D01*
X182428719Y-74266662D01*
X182447353Y-74241537D01*
X182468360Y-74218360D01*
X182491537Y-74197353D01*
X182516662Y-74178719D01*
X182543492Y-74162638D01*
X182571770Y-74149263D01*
X182601222Y-74138725D01*
X182631565Y-74131125D01*
X182662507Y-74126535D01*
X182693750Y-74125000D01*
X183331250Y-74125000D01*
X183362493Y-74126535D01*
X183362493Y-74126535D01*
G37*
D14*
X183012500Y-74800000D03*
G04 #@! TD*
D11*
G04 #@! TO.C,R8*
G36*
X196774993Y-77326535D02*
X196805935Y-77331125D01*
X196836278Y-77338725D01*
X196865730Y-77349263D01*
X196894008Y-77362638D01*
X196920838Y-77378719D01*
X196945963Y-77397353D01*
X196969140Y-77418360D01*
X196990147Y-77441537D01*
X197008781Y-77466662D01*
X197024862Y-77493492D01*
X197038237Y-77521770D01*
X197048775Y-77551222D01*
X197056375Y-77581565D01*
X197060965Y-77612507D01*
X197062500Y-77643750D01*
X197062500Y-78356250D01*
X197060965Y-78387493D01*
X197056375Y-78418435D01*
X197048775Y-78448778D01*
X197038237Y-78478230D01*
X197024862Y-78506508D01*
X197008781Y-78533338D01*
X196990147Y-78558463D01*
X196969140Y-78581640D01*
X196945963Y-78602647D01*
X196920838Y-78621281D01*
X196894008Y-78637362D01*
X196865730Y-78650737D01*
X196836278Y-78661275D01*
X196805935Y-78668875D01*
X196774993Y-78673465D01*
X196743750Y-78675000D01*
X196106250Y-78675000D01*
X196075007Y-78673465D01*
X196044065Y-78668875D01*
X196013722Y-78661275D01*
X195984270Y-78650737D01*
X195955992Y-78637362D01*
X195929162Y-78621281D01*
X195904037Y-78602647D01*
X195880860Y-78581640D01*
X195859853Y-78558463D01*
X195841219Y-78533338D01*
X195825138Y-78506508D01*
X195811763Y-78478230D01*
X195801225Y-78448778D01*
X195793625Y-78418435D01*
X195789035Y-78387493D01*
X195787500Y-78356250D01*
X195787500Y-77643750D01*
X195789035Y-77612507D01*
X195793625Y-77581565D01*
X195801225Y-77551222D01*
X195811763Y-77521770D01*
X195825138Y-77493492D01*
X195841219Y-77466662D01*
X195859853Y-77441537D01*
X195880860Y-77418360D01*
X195904037Y-77397353D01*
X195929162Y-77378719D01*
X195955992Y-77362638D01*
X195984270Y-77349263D01*
X196013722Y-77338725D01*
X196044065Y-77331125D01*
X196075007Y-77326535D01*
X196106250Y-77325000D01*
X196743750Y-77325000D01*
X196774993Y-77326535D01*
X196774993Y-77326535D01*
G37*
D14*
X196425000Y-78000000D03*
D11*
G36*
X198349993Y-77326535D02*
X198380935Y-77331125D01*
X198411278Y-77338725D01*
X198440730Y-77349263D01*
X198469008Y-77362638D01*
X198495838Y-77378719D01*
X198520963Y-77397353D01*
X198544140Y-77418360D01*
X198565147Y-77441537D01*
X198583781Y-77466662D01*
X198599862Y-77493492D01*
X198613237Y-77521770D01*
X198623775Y-77551222D01*
X198631375Y-77581565D01*
X198635965Y-77612507D01*
X198637500Y-77643750D01*
X198637500Y-78356250D01*
X198635965Y-78387493D01*
X198631375Y-78418435D01*
X198623775Y-78448778D01*
X198613237Y-78478230D01*
X198599862Y-78506508D01*
X198583781Y-78533338D01*
X198565147Y-78558463D01*
X198544140Y-78581640D01*
X198520963Y-78602647D01*
X198495838Y-78621281D01*
X198469008Y-78637362D01*
X198440730Y-78650737D01*
X198411278Y-78661275D01*
X198380935Y-78668875D01*
X198349993Y-78673465D01*
X198318750Y-78675000D01*
X197681250Y-78675000D01*
X197650007Y-78673465D01*
X197619065Y-78668875D01*
X197588722Y-78661275D01*
X197559270Y-78650737D01*
X197530992Y-78637362D01*
X197504162Y-78621281D01*
X197479037Y-78602647D01*
X197455860Y-78581640D01*
X197434853Y-78558463D01*
X197416219Y-78533338D01*
X197400138Y-78506508D01*
X197386763Y-78478230D01*
X197376225Y-78448778D01*
X197368625Y-78418435D01*
X197364035Y-78387493D01*
X197362500Y-78356250D01*
X197362500Y-77643750D01*
X197364035Y-77612507D01*
X197368625Y-77581565D01*
X197376225Y-77551222D01*
X197386763Y-77521770D01*
X197400138Y-77493492D01*
X197416219Y-77466662D01*
X197434853Y-77441537D01*
X197455860Y-77418360D01*
X197479037Y-77397353D01*
X197504162Y-77378719D01*
X197530992Y-77362638D01*
X197559270Y-77349263D01*
X197588722Y-77338725D01*
X197619065Y-77331125D01*
X197650007Y-77326535D01*
X197681250Y-77325000D01*
X198318750Y-77325000D01*
X198349993Y-77326535D01*
X198349993Y-77326535D01*
G37*
D14*
X198000000Y-78000000D03*
G04 #@! TD*
D11*
G04 #@! TO.C,R9*
G36*
X179387493Y-66364035D02*
X179418435Y-66368625D01*
X179448778Y-66376225D01*
X179478230Y-66386763D01*
X179506508Y-66400138D01*
X179533338Y-66416219D01*
X179558463Y-66434853D01*
X179581640Y-66455860D01*
X179602647Y-66479037D01*
X179621281Y-66504162D01*
X179637362Y-66530992D01*
X179650737Y-66559270D01*
X179661275Y-66588722D01*
X179668875Y-66619065D01*
X179673465Y-66650007D01*
X179675000Y-66681250D01*
X179675000Y-67318750D01*
X179673465Y-67349993D01*
X179668875Y-67380935D01*
X179661275Y-67411278D01*
X179650737Y-67440730D01*
X179637362Y-67469008D01*
X179621281Y-67495838D01*
X179602647Y-67520963D01*
X179581640Y-67544140D01*
X179558463Y-67565147D01*
X179533338Y-67583781D01*
X179506508Y-67599862D01*
X179478230Y-67613237D01*
X179448778Y-67623775D01*
X179418435Y-67631375D01*
X179387493Y-67635965D01*
X179356250Y-67637500D01*
X178643750Y-67637500D01*
X178612507Y-67635965D01*
X178581565Y-67631375D01*
X178551222Y-67623775D01*
X178521770Y-67613237D01*
X178493492Y-67599862D01*
X178466662Y-67583781D01*
X178441537Y-67565147D01*
X178418360Y-67544140D01*
X178397353Y-67520963D01*
X178378719Y-67495838D01*
X178362638Y-67469008D01*
X178349263Y-67440730D01*
X178338725Y-67411278D01*
X178331125Y-67380935D01*
X178326535Y-67349993D01*
X178325000Y-67318750D01*
X178325000Y-66681250D01*
X178326535Y-66650007D01*
X178331125Y-66619065D01*
X178338725Y-66588722D01*
X178349263Y-66559270D01*
X178362638Y-66530992D01*
X178378719Y-66504162D01*
X178397353Y-66479037D01*
X178418360Y-66455860D01*
X178441537Y-66434853D01*
X178466662Y-66416219D01*
X178493492Y-66400138D01*
X178521770Y-66386763D01*
X178551222Y-66376225D01*
X178581565Y-66368625D01*
X178612507Y-66364035D01*
X178643750Y-66362500D01*
X179356250Y-66362500D01*
X179387493Y-66364035D01*
X179387493Y-66364035D01*
G37*
D14*
X179000000Y-67000000D03*
D11*
G36*
X179387493Y-67939035D02*
X179418435Y-67943625D01*
X179448778Y-67951225D01*
X179478230Y-67961763D01*
X179506508Y-67975138D01*
X179533338Y-67991219D01*
X179558463Y-68009853D01*
X179581640Y-68030860D01*
X179602647Y-68054037D01*
X179621281Y-68079162D01*
X179637362Y-68105992D01*
X179650737Y-68134270D01*
X179661275Y-68163722D01*
X179668875Y-68194065D01*
X179673465Y-68225007D01*
X179675000Y-68256250D01*
X179675000Y-68893750D01*
X179673465Y-68924993D01*
X179668875Y-68955935D01*
X179661275Y-68986278D01*
X179650737Y-69015730D01*
X179637362Y-69044008D01*
X179621281Y-69070838D01*
X179602647Y-69095963D01*
X179581640Y-69119140D01*
X179558463Y-69140147D01*
X179533338Y-69158781D01*
X179506508Y-69174862D01*
X179478230Y-69188237D01*
X179448778Y-69198775D01*
X179418435Y-69206375D01*
X179387493Y-69210965D01*
X179356250Y-69212500D01*
X178643750Y-69212500D01*
X178612507Y-69210965D01*
X178581565Y-69206375D01*
X178551222Y-69198775D01*
X178521770Y-69188237D01*
X178493492Y-69174862D01*
X178466662Y-69158781D01*
X178441537Y-69140147D01*
X178418360Y-69119140D01*
X178397353Y-69095963D01*
X178378719Y-69070838D01*
X178362638Y-69044008D01*
X178349263Y-69015730D01*
X178338725Y-68986278D01*
X178331125Y-68955935D01*
X178326535Y-68924993D01*
X178325000Y-68893750D01*
X178325000Y-68256250D01*
X178326535Y-68225007D01*
X178331125Y-68194065D01*
X178338725Y-68163722D01*
X178349263Y-68134270D01*
X178362638Y-68105992D01*
X178378719Y-68079162D01*
X178397353Y-68054037D01*
X178418360Y-68030860D01*
X178441537Y-68009853D01*
X178466662Y-67991219D01*
X178493492Y-67975138D01*
X178521770Y-67961763D01*
X178551222Y-67951225D01*
X178581565Y-67943625D01*
X178612507Y-67939035D01*
X178643750Y-67937500D01*
X179356250Y-67937500D01*
X179387493Y-67939035D01*
X179387493Y-67939035D01*
G37*
D14*
X179000000Y-68575000D03*
G04 #@! TD*
D20*
G04 #@! TO.C,SW1*
X202280000Y-87000000D03*
X193720000Y-87000000D03*
G04 #@! TD*
G04 #@! TO.C,SW2*
X192280000Y-81000000D03*
X183720000Y-81000000D03*
G04 #@! TD*
D21*
G04 #@! TO.C,U3*
X180000000Y-87850000D03*
D22*
X180000000Y-94150000D03*
X182300000Y-94150000D03*
X177700000Y-94150000D03*
G04 #@! TD*
D23*
G04 #@! TO.C,U4*
X182900000Y-53800000D03*
X182900000Y-55070000D03*
X182900000Y-56340000D03*
X182900000Y-57610000D03*
X182900000Y-58880000D03*
X182900000Y-60150000D03*
X182900000Y-61420000D03*
X182900000Y-62690000D03*
X182900000Y-63960000D03*
X182900000Y-65230000D03*
X182900000Y-66500000D03*
X182900000Y-67770000D03*
X182900000Y-69040000D03*
X182900000Y-70310000D03*
D24*
X186200000Y-71800000D03*
X187470000Y-71800000D03*
X188740000Y-71800000D03*
X190010000Y-71800000D03*
X191280000Y-71800000D03*
X192550000Y-71800000D03*
X193820000Y-71800000D03*
X195090000Y-71800000D03*
X196360000Y-71800000D03*
X197630000Y-71800000D03*
D23*
X200900000Y-70320000D03*
X200900000Y-69040000D03*
X200900000Y-67770000D03*
X200900000Y-66500000D03*
X200900000Y-65230000D03*
X200900000Y-63960000D03*
X200900000Y-62690000D03*
X200900000Y-61420000D03*
X200900000Y-60150000D03*
X200900000Y-58880000D03*
X200900000Y-57610000D03*
X200900000Y-56340000D03*
X200900000Y-55070000D03*
X200900000Y-53800000D03*
D25*
X192200000Y-61480000D03*
G04 #@! TD*
D26*
G04 #@! TO.C,U5*
X206270000Y-59460000D03*
D27*
X205000000Y-59460000D03*
X206270000Y-60730000D03*
X205000000Y-60730000D03*
X206270000Y-62000000D03*
X205000000Y-62000000D03*
X206270000Y-63270000D03*
X205000000Y-63270000D03*
X206270000Y-64540000D03*
X205000000Y-64540000D03*
G04 #@! TD*
D16*
G04 #@! TO.C,U1*
X223000000Y-103000000D03*
D17*
X223000000Y-100460000D03*
X223000000Y-97920000D03*
X223000000Y-95380000D03*
G04 #@! TD*
D11*
G04 #@! TO.C,R10*
G36*
X206774993Y-74326535D02*
X206805935Y-74331125D01*
X206836278Y-74338725D01*
X206865730Y-74349263D01*
X206894008Y-74362638D01*
X206920838Y-74378719D01*
X206945963Y-74397353D01*
X206969140Y-74418360D01*
X206990147Y-74441537D01*
X207008781Y-74466662D01*
X207024862Y-74493492D01*
X207038237Y-74521770D01*
X207048775Y-74551222D01*
X207056375Y-74581565D01*
X207060965Y-74612507D01*
X207062500Y-74643750D01*
X207062500Y-75356250D01*
X207060965Y-75387493D01*
X207056375Y-75418435D01*
X207048775Y-75448778D01*
X207038237Y-75478230D01*
X207024862Y-75506508D01*
X207008781Y-75533338D01*
X206990147Y-75558463D01*
X206969140Y-75581640D01*
X206945963Y-75602647D01*
X206920838Y-75621281D01*
X206894008Y-75637362D01*
X206865730Y-75650737D01*
X206836278Y-75661275D01*
X206805935Y-75668875D01*
X206774993Y-75673465D01*
X206743750Y-75675000D01*
X206106250Y-75675000D01*
X206075007Y-75673465D01*
X206044065Y-75668875D01*
X206013722Y-75661275D01*
X205984270Y-75650737D01*
X205955992Y-75637362D01*
X205929162Y-75621281D01*
X205904037Y-75602647D01*
X205880860Y-75581640D01*
X205859853Y-75558463D01*
X205841219Y-75533338D01*
X205825138Y-75506508D01*
X205811763Y-75478230D01*
X205801225Y-75448778D01*
X205793625Y-75418435D01*
X205789035Y-75387493D01*
X205787500Y-75356250D01*
X205787500Y-74643750D01*
X205789035Y-74612507D01*
X205793625Y-74581565D01*
X205801225Y-74551222D01*
X205811763Y-74521770D01*
X205825138Y-74493492D01*
X205841219Y-74466662D01*
X205859853Y-74441537D01*
X205880860Y-74418360D01*
X205904037Y-74397353D01*
X205929162Y-74378719D01*
X205955992Y-74362638D01*
X205984270Y-74349263D01*
X206013722Y-74338725D01*
X206044065Y-74331125D01*
X206075007Y-74326535D01*
X206106250Y-74325000D01*
X206743750Y-74325000D01*
X206774993Y-74326535D01*
X206774993Y-74326535D01*
G37*
D14*
X206425000Y-75000000D03*
D11*
G36*
X208349993Y-74326535D02*
X208380935Y-74331125D01*
X208411278Y-74338725D01*
X208440730Y-74349263D01*
X208469008Y-74362638D01*
X208495838Y-74378719D01*
X208520963Y-74397353D01*
X208544140Y-74418360D01*
X208565147Y-74441537D01*
X208583781Y-74466662D01*
X208599862Y-74493492D01*
X208613237Y-74521770D01*
X208623775Y-74551222D01*
X208631375Y-74581565D01*
X208635965Y-74612507D01*
X208637500Y-74643750D01*
X208637500Y-75356250D01*
X208635965Y-75387493D01*
X208631375Y-75418435D01*
X208623775Y-75448778D01*
X208613237Y-75478230D01*
X208599862Y-75506508D01*
X208583781Y-75533338D01*
X208565147Y-75558463D01*
X208544140Y-75581640D01*
X208520963Y-75602647D01*
X208495838Y-75621281D01*
X208469008Y-75637362D01*
X208440730Y-75650737D01*
X208411278Y-75661275D01*
X208380935Y-75668875D01*
X208349993Y-75673465D01*
X208318750Y-75675000D01*
X207681250Y-75675000D01*
X207650007Y-75673465D01*
X207619065Y-75668875D01*
X207588722Y-75661275D01*
X207559270Y-75650737D01*
X207530992Y-75637362D01*
X207504162Y-75621281D01*
X207479037Y-75602647D01*
X207455860Y-75581640D01*
X207434853Y-75558463D01*
X207416219Y-75533338D01*
X207400138Y-75506508D01*
X207386763Y-75478230D01*
X207376225Y-75448778D01*
X207368625Y-75418435D01*
X207364035Y-75387493D01*
X207362500Y-75356250D01*
X207362500Y-74643750D01*
X207364035Y-74612507D01*
X207368625Y-74581565D01*
X207376225Y-74551222D01*
X207386763Y-74521770D01*
X207400138Y-74493492D01*
X207416219Y-74466662D01*
X207434853Y-74441537D01*
X207455860Y-74418360D01*
X207479037Y-74397353D01*
X207504162Y-74378719D01*
X207530992Y-74362638D01*
X207559270Y-74349263D01*
X207588722Y-74338725D01*
X207619065Y-74331125D01*
X207650007Y-74326535D01*
X207681250Y-74325000D01*
X208318750Y-74325000D01*
X208349993Y-74326535D01*
X208349993Y-74326535D01*
G37*
D14*
X208000000Y-75000000D03*
G04 #@! TD*
D11*
G04 #@! TO.C,R11*
G36*
X208137493Y-78326535D02*
X208168435Y-78331125D01*
X208198778Y-78338725D01*
X208228230Y-78349263D01*
X208256508Y-78362638D01*
X208283338Y-78378719D01*
X208308463Y-78397353D01*
X208331640Y-78418360D01*
X208352647Y-78441537D01*
X208371281Y-78466662D01*
X208387362Y-78493492D01*
X208400737Y-78521770D01*
X208411275Y-78551222D01*
X208418875Y-78581565D01*
X208423465Y-78612507D01*
X208425000Y-78643750D01*
X208425000Y-79356250D01*
X208423465Y-79387493D01*
X208418875Y-79418435D01*
X208411275Y-79448778D01*
X208400737Y-79478230D01*
X208387362Y-79506508D01*
X208371281Y-79533338D01*
X208352647Y-79558463D01*
X208331640Y-79581640D01*
X208308463Y-79602647D01*
X208283338Y-79621281D01*
X208256508Y-79637362D01*
X208228230Y-79650737D01*
X208198778Y-79661275D01*
X208168435Y-79668875D01*
X208137493Y-79673465D01*
X208106250Y-79675000D01*
X207468750Y-79675000D01*
X207437507Y-79673465D01*
X207406565Y-79668875D01*
X207376222Y-79661275D01*
X207346770Y-79650737D01*
X207318492Y-79637362D01*
X207291662Y-79621281D01*
X207266537Y-79602647D01*
X207243360Y-79581640D01*
X207222353Y-79558463D01*
X207203719Y-79533338D01*
X207187638Y-79506508D01*
X207174263Y-79478230D01*
X207163725Y-79448778D01*
X207156125Y-79418435D01*
X207151535Y-79387493D01*
X207150000Y-79356250D01*
X207150000Y-78643750D01*
X207151535Y-78612507D01*
X207156125Y-78581565D01*
X207163725Y-78551222D01*
X207174263Y-78521770D01*
X207187638Y-78493492D01*
X207203719Y-78466662D01*
X207222353Y-78441537D01*
X207243360Y-78418360D01*
X207266537Y-78397353D01*
X207291662Y-78378719D01*
X207318492Y-78362638D01*
X207346770Y-78349263D01*
X207376222Y-78338725D01*
X207406565Y-78331125D01*
X207437507Y-78326535D01*
X207468750Y-78325000D01*
X208106250Y-78325000D01*
X208137493Y-78326535D01*
X208137493Y-78326535D01*
G37*
D14*
X207787500Y-79000000D03*
D11*
G36*
X206562493Y-78326535D02*
X206593435Y-78331125D01*
X206623778Y-78338725D01*
X206653230Y-78349263D01*
X206681508Y-78362638D01*
X206708338Y-78378719D01*
X206733463Y-78397353D01*
X206756640Y-78418360D01*
X206777647Y-78441537D01*
X206796281Y-78466662D01*
X206812362Y-78493492D01*
X206825737Y-78521770D01*
X206836275Y-78551222D01*
X206843875Y-78581565D01*
X206848465Y-78612507D01*
X206850000Y-78643750D01*
X206850000Y-79356250D01*
X206848465Y-79387493D01*
X206843875Y-79418435D01*
X206836275Y-79448778D01*
X206825737Y-79478230D01*
X206812362Y-79506508D01*
X206796281Y-79533338D01*
X206777647Y-79558463D01*
X206756640Y-79581640D01*
X206733463Y-79602647D01*
X206708338Y-79621281D01*
X206681508Y-79637362D01*
X206653230Y-79650737D01*
X206623778Y-79661275D01*
X206593435Y-79668875D01*
X206562493Y-79673465D01*
X206531250Y-79675000D01*
X205893750Y-79675000D01*
X205862507Y-79673465D01*
X205831565Y-79668875D01*
X205801222Y-79661275D01*
X205771770Y-79650737D01*
X205743492Y-79637362D01*
X205716662Y-79621281D01*
X205691537Y-79602647D01*
X205668360Y-79581640D01*
X205647353Y-79558463D01*
X205628719Y-79533338D01*
X205612638Y-79506508D01*
X205599263Y-79478230D01*
X205588725Y-79448778D01*
X205581125Y-79418435D01*
X205576535Y-79387493D01*
X205575000Y-79356250D01*
X205575000Y-78643750D01*
X205576535Y-78612507D01*
X205581125Y-78581565D01*
X205588725Y-78551222D01*
X205599263Y-78521770D01*
X205612638Y-78493492D01*
X205628719Y-78466662D01*
X205647353Y-78441537D01*
X205668360Y-78418360D01*
X205691537Y-78397353D01*
X205716662Y-78378719D01*
X205743492Y-78362638D01*
X205771770Y-78349263D01*
X205801222Y-78338725D01*
X205831565Y-78331125D01*
X205862507Y-78326535D01*
X205893750Y-78325000D01*
X206531250Y-78325000D01*
X206562493Y-78326535D01*
X206562493Y-78326535D01*
G37*
D14*
X206212500Y-79000000D03*
G04 #@! TD*
D28*
G04 #@! TO.C, *
X175000000Y-103000000D03*
G04 #@! TD*
M02*
