G04 #@! TF.GenerationSoftware,KiCad,Pcbnew,(5.0.0)*
G04 #@! TF.CreationDate,2019-06-18T20:36:07+02:00*
G04 #@! TF.ProjectId,PMS7003wifi,504D5337303033776966692E6B696361,rev?*
G04 #@! TF.SameCoordinates,Original*
G04 #@! TF.FileFunction,Soldermask,Bot*
G04 #@! TF.FilePolarity,Negative*
%FSLAX46Y46*%
G04 Gerber Fmt 4.6, Leading zero omitted, Abs format (unit mm)*
G04 Created by KiCad (PCBNEW (5.0.0)) date 06/18/19 20:36:07*
%MOMM*%
%LPD*%
G01*
G04 APERTURE LIST*
%ADD10R,3.900000X3.900000*%
%ADD11C,0.100000*%
%ADD12C,3.400000*%
%ADD13C,3.900000*%
%ADD14R,2.100000X2.100000*%
%ADD15O,2.100000X2.100000*%
%ADD16R,2.400000X2.900000*%
%ADD17R,0.700000X1.400000*%
%ADD18R,3.000000X1.800000*%
%ADD19R,6.400000X6.400000*%
%ADD20R,1.400000X1.400000*%
%ADD21O,1.400000X1.400000*%
%ADD22C,1.375000*%
%ADD23C,3.600000*%
G04 APERTURE END LIST*
D10*
G04 #@! TO.C,J3*
X217000000Y-85000000D03*
D11*
G36*
X223933315Y-83054093D02*
X224015827Y-83066333D01*
X224096742Y-83086601D01*
X224175281Y-83114702D01*
X224250687Y-83150367D01*
X224322235Y-83193251D01*
X224389234Y-83242941D01*
X224451041Y-83298959D01*
X224507059Y-83360766D01*
X224556749Y-83427765D01*
X224599633Y-83499313D01*
X224635298Y-83574719D01*
X224663399Y-83653258D01*
X224683667Y-83734173D01*
X224695907Y-83816685D01*
X224700000Y-83900000D01*
X224700000Y-86100000D01*
X224695907Y-86183315D01*
X224683667Y-86265827D01*
X224663399Y-86346742D01*
X224635298Y-86425281D01*
X224599633Y-86500687D01*
X224556749Y-86572235D01*
X224507059Y-86639234D01*
X224451041Y-86701041D01*
X224389234Y-86757059D01*
X224322235Y-86806749D01*
X224250687Y-86849633D01*
X224175281Y-86885298D01*
X224096742Y-86913399D01*
X224015827Y-86933667D01*
X223933315Y-86945907D01*
X223850000Y-86950000D01*
X222150000Y-86950000D01*
X222066685Y-86945907D01*
X221984173Y-86933667D01*
X221903258Y-86913399D01*
X221824719Y-86885298D01*
X221749313Y-86849633D01*
X221677765Y-86806749D01*
X221610766Y-86757059D01*
X221548959Y-86701041D01*
X221492941Y-86639234D01*
X221443251Y-86572235D01*
X221400367Y-86500687D01*
X221364702Y-86425281D01*
X221336601Y-86346742D01*
X221316333Y-86265827D01*
X221304093Y-86183315D01*
X221300000Y-86100000D01*
X221300000Y-83900000D01*
X221304093Y-83816685D01*
X221316333Y-83734173D01*
X221336601Y-83653258D01*
X221364702Y-83574719D01*
X221400367Y-83499313D01*
X221443251Y-83427765D01*
X221492941Y-83360766D01*
X221548959Y-83298959D01*
X221610766Y-83242941D01*
X221677765Y-83193251D01*
X221749313Y-83150367D01*
X221824719Y-83114702D01*
X221903258Y-83086601D01*
X221984173Y-83066333D01*
X222066685Y-83054093D01*
X222150000Y-83050000D01*
X223850000Y-83050000D01*
X223933315Y-83054093D01*
X223933315Y-83054093D01*
G37*
D12*
X223000000Y-85000000D03*
D11*
G36*
X221070567Y-87754695D02*
X221165213Y-87768734D01*
X221258028Y-87791983D01*
X221348116Y-87824217D01*
X221434612Y-87865127D01*
X221516681Y-87914317D01*
X221593533Y-87971315D01*
X221664429Y-88035571D01*
X221728685Y-88106467D01*
X221785683Y-88183319D01*
X221834873Y-88265388D01*
X221875783Y-88351884D01*
X221908017Y-88441972D01*
X221931266Y-88534787D01*
X221945305Y-88629433D01*
X221950000Y-88725000D01*
X221950000Y-90675000D01*
X221945305Y-90770567D01*
X221931266Y-90865213D01*
X221908017Y-90958028D01*
X221875783Y-91048116D01*
X221834873Y-91134612D01*
X221785683Y-91216681D01*
X221728685Y-91293533D01*
X221664429Y-91364429D01*
X221593533Y-91428685D01*
X221516681Y-91485683D01*
X221434612Y-91534873D01*
X221348116Y-91575783D01*
X221258028Y-91608017D01*
X221165213Y-91631266D01*
X221070567Y-91645305D01*
X220975000Y-91650000D01*
X219025000Y-91650000D01*
X218929433Y-91645305D01*
X218834787Y-91631266D01*
X218741972Y-91608017D01*
X218651884Y-91575783D01*
X218565388Y-91534873D01*
X218483319Y-91485683D01*
X218406467Y-91428685D01*
X218335571Y-91364429D01*
X218271315Y-91293533D01*
X218214317Y-91216681D01*
X218165127Y-91134612D01*
X218124217Y-91048116D01*
X218091983Y-90958028D01*
X218068734Y-90865213D01*
X218054695Y-90770567D01*
X218050000Y-90675000D01*
X218050000Y-88725000D01*
X218054695Y-88629433D01*
X218068734Y-88534787D01*
X218091983Y-88441972D01*
X218124217Y-88351884D01*
X218165127Y-88265388D01*
X218214317Y-88183319D01*
X218271315Y-88106467D01*
X218335571Y-88035571D01*
X218406467Y-87971315D01*
X218483319Y-87914317D01*
X218565388Y-87865127D01*
X218651884Y-87824217D01*
X218741972Y-87791983D01*
X218834787Y-87768734D01*
X218929433Y-87754695D01*
X219025000Y-87750000D01*
X220975000Y-87750000D01*
X221070567Y-87754695D01*
X221070567Y-87754695D01*
G37*
D13*
X220000000Y-89700000D03*
G04 #@! TD*
D14*
G04 #@! TO.C,J2*
X216000000Y-74700000D03*
D15*
X216000000Y-72160000D03*
X216000000Y-69620000D03*
X216000000Y-67080000D03*
X216000000Y-64540000D03*
X216000000Y-62000000D03*
X216000000Y-59460000D03*
X216000000Y-56920000D03*
G04 #@! TD*
D16*
G04 #@! TO.C,SW3*
X222000000Y-57000000D03*
X222000000Y-65560000D03*
G04 #@! TD*
D17*
G04 #@! TO.C,U2*
X218000000Y-101600000D03*
X218500000Y-101600000D03*
X219000000Y-101600000D03*
X219500000Y-101600000D03*
X220000000Y-101600000D03*
X220000000Y-104400000D03*
X219500000Y-104400000D03*
X219000000Y-104400000D03*
X218500000Y-104400000D03*
X218000000Y-104400000D03*
D18*
X219000000Y-103000000D03*
G04 #@! TD*
D19*
G04 #@! TO.C,U4*
X192200000Y-61480000D03*
G04 #@! TD*
D20*
G04 #@! TO.C,U5*
X206270000Y-59460000D03*
D21*
X205000000Y-59460000D03*
X206270000Y-60730000D03*
X205000000Y-60730000D03*
X206270000Y-62000000D03*
X205000000Y-62000000D03*
X206270000Y-63270000D03*
X205000000Y-63270000D03*
X206270000Y-64540000D03*
X205000000Y-64540000D03*
G04 #@! TD*
D14*
G04 #@! TO.C,U1*
X223000000Y-103000000D03*
D15*
X223000000Y-100460000D03*
X223000000Y-97920000D03*
X223000000Y-95380000D03*
G04 #@! TD*
D11*
G04 #@! TO.C,D1*
G36*
X221377443Y-72101655D02*
X221410812Y-72106605D01*
X221443535Y-72114802D01*
X221475297Y-72126166D01*
X221505793Y-72140590D01*
X221534727Y-72157932D01*
X221561823Y-72178028D01*
X221586818Y-72200682D01*
X221609472Y-72225677D01*
X221629568Y-72252773D01*
X221646910Y-72281707D01*
X221661334Y-72312203D01*
X221672698Y-72343965D01*
X221680895Y-72376688D01*
X221685845Y-72410057D01*
X221687500Y-72443750D01*
X221687500Y-73556250D01*
X221685845Y-73589943D01*
X221680895Y-73623312D01*
X221672698Y-73656035D01*
X221661334Y-73687797D01*
X221646910Y-73718293D01*
X221629568Y-73747227D01*
X221609472Y-73774323D01*
X221586818Y-73799318D01*
X221561823Y-73821972D01*
X221534727Y-73842068D01*
X221505793Y-73859410D01*
X221475297Y-73873834D01*
X221443535Y-73885198D01*
X221410812Y-73893395D01*
X221377443Y-73898345D01*
X221343750Y-73900000D01*
X220656250Y-73900000D01*
X220622557Y-73898345D01*
X220589188Y-73893395D01*
X220556465Y-73885198D01*
X220524703Y-73873834D01*
X220494207Y-73859410D01*
X220465273Y-73842068D01*
X220438177Y-73821972D01*
X220413182Y-73799318D01*
X220390528Y-73774323D01*
X220370432Y-73747227D01*
X220353090Y-73718293D01*
X220338666Y-73687797D01*
X220327302Y-73656035D01*
X220319105Y-73623312D01*
X220314155Y-73589943D01*
X220312500Y-73556250D01*
X220312500Y-72443750D01*
X220314155Y-72410057D01*
X220319105Y-72376688D01*
X220327302Y-72343965D01*
X220338666Y-72312203D01*
X220353090Y-72281707D01*
X220370432Y-72252773D01*
X220390528Y-72225677D01*
X220413182Y-72200682D01*
X220438177Y-72178028D01*
X220465273Y-72157932D01*
X220494207Y-72140590D01*
X220524703Y-72126166D01*
X220556465Y-72114802D01*
X220589188Y-72106605D01*
X220622557Y-72101655D01*
X220656250Y-72100000D01*
X221343750Y-72100000D01*
X221377443Y-72101655D01*
X221377443Y-72101655D01*
G37*
D22*
X221000000Y-73000000D03*
D11*
G36*
X223252443Y-72101655D02*
X223285812Y-72106605D01*
X223318535Y-72114802D01*
X223350297Y-72126166D01*
X223380793Y-72140590D01*
X223409727Y-72157932D01*
X223436823Y-72178028D01*
X223461818Y-72200682D01*
X223484472Y-72225677D01*
X223504568Y-72252773D01*
X223521910Y-72281707D01*
X223536334Y-72312203D01*
X223547698Y-72343965D01*
X223555895Y-72376688D01*
X223560845Y-72410057D01*
X223562500Y-72443750D01*
X223562500Y-73556250D01*
X223560845Y-73589943D01*
X223555895Y-73623312D01*
X223547698Y-73656035D01*
X223536334Y-73687797D01*
X223521910Y-73718293D01*
X223504568Y-73747227D01*
X223484472Y-73774323D01*
X223461818Y-73799318D01*
X223436823Y-73821972D01*
X223409727Y-73842068D01*
X223380793Y-73859410D01*
X223350297Y-73873834D01*
X223318535Y-73885198D01*
X223285812Y-73893395D01*
X223252443Y-73898345D01*
X223218750Y-73900000D01*
X222531250Y-73900000D01*
X222497557Y-73898345D01*
X222464188Y-73893395D01*
X222431465Y-73885198D01*
X222399703Y-73873834D01*
X222369207Y-73859410D01*
X222340273Y-73842068D01*
X222313177Y-73821972D01*
X222288182Y-73799318D01*
X222265528Y-73774323D01*
X222245432Y-73747227D01*
X222228090Y-73718293D01*
X222213666Y-73687797D01*
X222202302Y-73656035D01*
X222194105Y-73623312D01*
X222189155Y-73589943D01*
X222187500Y-73556250D01*
X222187500Y-72443750D01*
X222189155Y-72410057D01*
X222194105Y-72376688D01*
X222202302Y-72343965D01*
X222213666Y-72312203D01*
X222228090Y-72281707D01*
X222245432Y-72252773D01*
X222265528Y-72225677D01*
X222288182Y-72200682D01*
X222313177Y-72178028D01*
X222340273Y-72157932D01*
X222369207Y-72140590D01*
X222399703Y-72126166D01*
X222431465Y-72114802D01*
X222464188Y-72106605D01*
X222497557Y-72101655D01*
X222531250Y-72100000D01*
X223218750Y-72100000D01*
X223252443Y-72101655D01*
X223252443Y-72101655D01*
G37*
D22*
X222875000Y-73000000D03*
G04 #@! TD*
D11*
G04 #@! TO.C,D2*
G36*
X223252443Y-69101655D02*
X223285812Y-69106605D01*
X223318535Y-69114802D01*
X223350297Y-69126166D01*
X223380793Y-69140590D01*
X223409727Y-69157932D01*
X223436823Y-69178028D01*
X223461818Y-69200682D01*
X223484472Y-69225677D01*
X223504568Y-69252773D01*
X223521910Y-69281707D01*
X223536334Y-69312203D01*
X223547698Y-69343965D01*
X223555895Y-69376688D01*
X223560845Y-69410057D01*
X223562500Y-69443750D01*
X223562500Y-70556250D01*
X223560845Y-70589943D01*
X223555895Y-70623312D01*
X223547698Y-70656035D01*
X223536334Y-70687797D01*
X223521910Y-70718293D01*
X223504568Y-70747227D01*
X223484472Y-70774323D01*
X223461818Y-70799318D01*
X223436823Y-70821972D01*
X223409727Y-70842068D01*
X223380793Y-70859410D01*
X223350297Y-70873834D01*
X223318535Y-70885198D01*
X223285812Y-70893395D01*
X223252443Y-70898345D01*
X223218750Y-70900000D01*
X222531250Y-70900000D01*
X222497557Y-70898345D01*
X222464188Y-70893395D01*
X222431465Y-70885198D01*
X222399703Y-70873834D01*
X222369207Y-70859410D01*
X222340273Y-70842068D01*
X222313177Y-70821972D01*
X222288182Y-70799318D01*
X222265528Y-70774323D01*
X222245432Y-70747227D01*
X222228090Y-70718293D01*
X222213666Y-70687797D01*
X222202302Y-70656035D01*
X222194105Y-70623312D01*
X222189155Y-70589943D01*
X222187500Y-70556250D01*
X222187500Y-69443750D01*
X222189155Y-69410057D01*
X222194105Y-69376688D01*
X222202302Y-69343965D01*
X222213666Y-69312203D01*
X222228090Y-69281707D01*
X222245432Y-69252773D01*
X222265528Y-69225677D01*
X222288182Y-69200682D01*
X222313177Y-69178028D01*
X222340273Y-69157932D01*
X222369207Y-69140590D01*
X222399703Y-69126166D01*
X222431465Y-69114802D01*
X222464188Y-69106605D01*
X222497557Y-69101655D01*
X222531250Y-69100000D01*
X223218750Y-69100000D01*
X223252443Y-69101655D01*
X223252443Y-69101655D01*
G37*
D22*
X222875000Y-70000000D03*
D11*
G36*
X221377443Y-69101655D02*
X221410812Y-69106605D01*
X221443535Y-69114802D01*
X221475297Y-69126166D01*
X221505793Y-69140590D01*
X221534727Y-69157932D01*
X221561823Y-69178028D01*
X221586818Y-69200682D01*
X221609472Y-69225677D01*
X221629568Y-69252773D01*
X221646910Y-69281707D01*
X221661334Y-69312203D01*
X221672698Y-69343965D01*
X221680895Y-69376688D01*
X221685845Y-69410057D01*
X221687500Y-69443750D01*
X221687500Y-70556250D01*
X221685845Y-70589943D01*
X221680895Y-70623312D01*
X221672698Y-70656035D01*
X221661334Y-70687797D01*
X221646910Y-70718293D01*
X221629568Y-70747227D01*
X221609472Y-70774323D01*
X221586818Y-70799318D01*
X221561823Y-70821972D01*
X221534727Y-70842068D01*
X221505793Y-70859410D01*
X221475297Y-70873834D01*
X221443535Y-70885198D01*
X221410812Y-70893395D01*
X221377443Y-70898345D01*
X221343750Y-70900000D01*
X220656250Y-70900000D01*
X220622557Y-70898345D01*
X220589188Y-70893395D01*
X220556465Y-70885198D01*
X220524703Y-70873834D01*
X220494207Y-70859410D01*
X220465273Y-70842068D01*
X220438177Y-70821972D01*
X220413182Y-70799318D01*
X220390528Y-70774323D01*
X220370432Y-70747227D01*
X220353090Y-70718293D01*
X220338666Y-70687797D01*
X220327302Y-70656035D01*
X220319105Y-70623312D01*
X220314155Y-70589943D01*
X220312500Y-70556250D01*
X220312500Y-69443750D01*
X220314155Y-69410057D01*
X220319105Y-69376688D01*
X220327302Y-69343965D01*
X220338666Y-69312203D01*
X220353090Y-69281707D01*
X220370432Y-69252773D01*
X220390528Y-69225677D01*
X220413182Y-69200682D01*
X220438177Y-69178028D01*
X220465273Y-69157932D01*
X220494207Y-69140590D01*
X220524703Y-69126166D01*
X220556465Y-69114802D01*
X220589188Y-69106605D01*
X220622557Y-69101655D01*
X220656250Y-69100000D01*
X221343750Y-69100000D01*
X221377443Y-69101655D01*
X221377443Y-69101655D01*
G37*
D22*
X221000000Y-70000000D03*
G04 #@! TD*
D23*
G04 #@! TO.C, *
X175000000Y-103000000D03*
G04 #@! TD*
M02*
