G04 #@! TF.GenerationSoftware,KiCad,Pcbnew,(5.0.0)*
G04 #@! TF.CreationDate,2019-06-18T20:36:07+02:00*
G04 #@! TF.ProjectId,PMS7003wifi,504D5337303033776966692E6B696361,rev?*
G04 #@! TF.SameCoordinates,Original*
G04 #@! TF.FileFunction,Legend,Top*
G04 #@! TF.FilePolarity,Positive*
%FSLAX46Y46*%
G04 Gerber Fmt 4.6, Leading zero omitted, Abs format (unit mm)*
G04 Created by KiCad (PCBNEW (5.0.0)) date 06/18/19 20:36:07*
%MOMM*%
%LPD*%
G01*
G04 APERTURE LIST*
%ADD10C,0.120000*%
%ADD11C,0.150000*%
G04 APERTURE END LIST*
D10*
G04 #@! TO.C,C1*
X179950279Y-97490000D02*
X179624721Y-97490000D01*
X179950279Y-98510000D02*
X179624721Y-98510000D01*
G04 #@! TO.C,C2*
X219490000Y-60950279D02*
X219490000Y-60624721D01*
X220510000Y-60950279D02*
X220510000Y-60624721D01*
G04 #@! TO.C,C3*
X171840000Y-54262500D02*
X171840000Y-62322500D01*
X171840000Y-62322500D02*
X176360000Y-62322500D01*
X176360000Y-62322500D02*
X176360000Y-54262500D01*
G04 #@! TO.C,C4*
X214890000Y-102650279D02*
X214890000Y-102324721D01*
X215910000Y-102650279D02*
X215910000Y-102324721D01*
G04 #@! TO.C,C5*
X179510000Y-55650279D02*
X179510000Y-55324721D01*
X178490000Y-55650279D02*
X178490000Y-55324721D01*
G04 #@! TO.C,C6*
X218490000Y-98375279D02*
X218490000Y-98049721D01*
X219510000Y-98375279D02*
X219510000Y-98049721D01*
G04 #@! TO.C,Q1*
X204530000Y-96240000D02*
X204530000Y-97700000D01*
X201370000Y-96240000D02*
X201370000Y-98400000D01*
X201370000Y-96240000D02*
X202300000Y-96240000D01*
X204530000Y-96240000D02*
X203600000Y-96240000D01*
G04 #@! TO.C,Q2*
X190240000Y-93420000D02*
X190240000Y-94350000D01*
X190240000Y-96580000D02*
X190240000Y-95650000D01*
X190240000Y-96580000D02*
X192400000Y-96580000D01*
X190240000Y-93420000D02*
X191700000Y-93420000D01*
G04 #@! TO.C,R1*
X196837221Y-101510000D02*
X197162779Y-101510000D01*
X196837221Y-100490000D02*
X197162779Y-100490000D01*
G04 #@! TO.C,R2*
X214490000Y-97950279D02*
X214490000Y-97624721D01*
X215510000Y-97950279D02*
X215510000Y-97624721D01*
G04 #@! TO.C,R3*
X174549721Y-66490000D02*
X174875279Y-66490000D01*
X174549721Y-67510000D02*
X174875279Y-67510000D01*
G04 #@! TO.C,R4*
X174549721Y-69510000D02*
X174875279Y-69510000D01*
X174549721Y-68490000D02*
X174875279Y-68490000D01*
G04 #@! TO.C,R5*
X197049721Y-94510000D02*
X197375279Y-94510000D01*
X197049721Y-93490000D02*
X197375279Y-93490000D01*
G04 #@! TO.C,R6*
X197375279Y-97510000D02*
X197049721Y-97510000D01*
X197375279Y-96490000D02*
X197049721Y-96490000D01*
G04 #@! TO.C,R7*
X183962779Y-75310000D02*
X183637221Y-75310000D01*
X183962779Y-74290000D02*
X183637221Y-74290000D01*
G04 #@! TO.C,R8*
X197049721Y-77490000D02*
X197375279Y-77490000D01*
X197049721Y-78510000D02*
X197375279Y-78510000D01*
G04 #@! TO.C,R9*
X179510000Y-67950279D02*
X179510000Y-67624721D01*
X178490000Y-67950279D02*
X178490000Y-67624721D01*
G04 #@! TO.C,SW1*
X201250000Y-88300000D02*
X194750000Y-88300000D01*
X194750000Y-85700000D02*
X201250000Y-85700000D01*
G04 #@! TO.C,SW2*
X191250000Y-82300000D02*
X184750000Y-82300000D01*
X184750000Y-79700000D02*
X191250000Y-79700000D01*
G04 #@! TO.C,U3*
X183410000Y-89090000D02*
X182150000Y-89090000D01*
X176590000Y-89090000D02*
X177850000Y-89090000D01*
X183410000Y-92850000D02*
X183410000Y-89090000D01*
X176590000Y-95100000D02*
X176590000Y-89090000D01*
D11*
G04 #@! TO.C,U4*
X200900000Y-52400000D02*
X200900000Y-53200000D01*
X198300000Y-71800000D02*
X200900000Y-71800000D01*
X200900000Y-71800000D02*
X200900000Y-70900000D01*
X185700000Y-71800000D02*
X182900000Y-71800000D01*
X182900000Y-71800000D02*
X182900000Y-71000000D01*
X182900000Y-52300000D02*
X182900000Y-53200000D01*
X182441421Y-52300000D02*
G75*
G03X182441421Y-52300000I-141421J0D01*
G01*
D10*
G04 #@! TO.C,R10*
X207049721Y-74490000D02*
X207375279Y-74490000D01*
X207049721Y-75510000D02*
X207375279Y-75510000D01*
G04 #@! TO.C,R11*
X206837221Y-79510000D02*
X207162779Y-79510000D01*
X206837221Y-78490000D02*
X207162779Y-78490000D01*
G04 #@! TO.C,C1*
D11*
X179620833Y-99787142D02*
X179573214Y-99834761D01*
X179430357Y-99882380D01*
X179335119Y-99882380D01*
X179192261Y-99834761D01*
X179097023Y-99739523D01*
X179049404Y-99644285D01*
X179001785Y-99453809D01*
X179001785Y-99310952D01*
X179049404Y-99120476D01*
X179097023Y-99025238D01*
X179192261Y-98930000D01*
X179335119Y-98882380D01*
X179430357Y-98882380D01*
X179573214Y-98930000D01*
X179620833Y-98977619D01*
X180573214Y-99882380D02*
X180001785Y-99882380D01*
X180287500Y-99882380D02*
X180287500Y-98882380D01*
X180192261Y-99025238D01*
X180097023Y-99120476D01*
X180001785Y-99168095D01*
G04 #@! TO.C,C2*
X218927142Y-60954166D02*
X218974761Y-61001785D01*
X219022380Y-61144642D01*
X219022380Y-61239880D01*
X218974761Y-61382738D01*
X218879523Y-61477976D01*
X218784285Y-61525595D01*
X218593809Y-61573214D01*
X218450952Y-61573214D01*
X218260476Y-61525595D01*
X218165238Y-61477976D01*
X218070000Y-61382738D01*
X218022380Y-61239880D01*
X218022380Y-61144642D01*
X218070000Y-61001785D01*
X218117619Y-60954166D01*
X218117619Y-60573214D02*
X218070000Y-60525595D01*
X218022380Y-60430357D01*
X218022380Y-60192261D01*
X218070000Y-60097023D01*
X218117619Y-60049404D01*
X218212857Y-60001785D01*
X218308095Y-60001785D01*
X218450952Y-60049404D01*
X219022380Y-60620833D01*
X219022380Y-60001785D01*
G04 #@! TO.C,C3*
X178357142Y-59166666D02*
X178404761Y-59214285D01*
X178452380Y-59357142D01*
X178452380Y-59452380D01*
X178404761Y-59595238D01*
X178309523Y-59690476D01*
X178214285Y-59738095D01*
X178023809Y-59785714D01*
X177880952Y-59785714D01*
X177690476Y-59738095D01*
X177595238Y-59690476D01*
X177500000Y-59595238D01*
X177452380Y-59452380D01*
X177452380Y-59357142D01*
X177500000Y-59214285D01*
X177547619Y-59166666D01*
X177452380Y-58833333D02*
X177452380Y-58214285D01*
X177833333Y-58547619D01*
X177833333Y-58404761D01*
X177880952Y-58309523D01*
X177928571Y-58261904D01*
X178023809Y-58214285D01*
X178261904Y-58214285D01*
X178357142Y-58261904D01*
X178404761Y-58309523D01*
X178452380Y-58404761D01*
X178452380Y-58690476D01*
X178404761Y-58785714D01*
X178357142Y-58833333D01*
G04 #@! TO.C,C4*
X214327142Y-102654166D02*
X214374761Y-102701785D01*
X214422380Y-102844642D01*
X214422380Y-102939880D01*
X214374761Y-103082738D01*
X214279523Y-103177976D01*
X214184285Y-103225595D01*
X213993809Y-103273214D01*
X213850952Y-103273214D01*
X213660476Y-103225595D01*
X213565238Y-103177976D01*
X213470000Y-103082738D01*
X213422380Y-102939880D01*
X213422380Y-102844642D01*
X213470000Y-102701785D01*
X213517619Y-102654166D01*
X213755714Y-101797023D02*
X214422380Y-101797023D01*
X213374761Y-102035119D02*
X214089047Y-102273214D01*
X214089047Y-101654166D01*
G04 #@! TO.C,C5*
X177927142Y-55654166D02*
X177974761Y-55701785D01*
X178022380Y-55844642D01*
X178022380Y-55939880D01*
X177974761Y-56082738D01*
X177879523Y-56177976D01*
X177784285Y-56225595D01*
X177593809Y-56273214D01*
X177450952Y-56273214D01*
X177260476Y-56225595D01*
X177165238Y-56177976D01*
X177070000Y-56082738D01*
X177022380Y-55939880D01*
X177022380Y-55844642D01*
X177070000Y-55701785D01*
X177117619Y-55654166D01*
X177022380Y-54749404D02*
X177022380Y-55225595D01*
X177498571Y-55273214D01*
X177450952Y-55225595D01*
X177403333Y-55130357D01*
X177403333Y-54892261D01*
X177450952Y-54797023D01*
X177498571Y-54749404D01*
X177593809Y-54701785D01*
X177831904Y-54701785D01*
X177927142Y-54749404D01*
X177974761Y-54797023D01*
X178022380Y-54892261D01*
X178022380Y-55130357D01*
X177974761Y-55225595D01*
X177927142Y-55273214D01*
G04 #@! TO.C,C6*
X217927142Y-98379166D02*
X217974761Y-98426785D01*
X218022380Y-98569642D01*
X218022380Y-98664880D01*
X217974761Y-98807738D01*
X217879523Y-98902976D01*
X217784285Y-98950595D01*
X217593809Y-98998214D01*
X217450952Y-98998214D01*
X217260476Y-98950595D01*
X217165238Y-98902976D01*
X217070000Y-98807738D01*
X217022380Y-98664880D01*
X217022380Y-98569642D01*
X217070000Y-98426785D01*
X217117619Y-98379166D01*
X217022380Y-97522023D02*
X217022380Y-97712500D01*
X217070000Y-97807738D01*
X217117619Y-97855357D01*
X217260476Y-97950595D01*
X217450952Y-97998214D01*
X217831904Y-97998214D01*
X217927142Y-97950595D01*
X217974761Y-97902976D01*
X218022380Y-97807738D01*
X218022380Y-97617261D01*
X217974761Y-97522023D01*
X217927142Y-97474404D01*
X217831904Y-97426785D01*
X217593809Y-97426785D01*
X217498571Y-97474404D01*
X217450952Y-97522023D01*
X217403333Y-97617261D01*
X217403333Y-97807738D01*
X217450952Y-97902976D01*
X217498571Y-97950595D01*
X217593809Y-97998214D01*
G04 #@! TO.C,Q1*
X200997619Y-97095238D02*
X200950000Y-97190476D01*
X200854761Y-97285714D01*
X200711904Y-97428571D01*
X200664285Y-97523809D01*
X200664285Y-97619047D01*
X200902380Y-97571428D02*
X200854761Y-97666666D01*
X200759523Y-97761904D01*
X200569047Y-97809523D01*
X200235714Y-97809523D01*
X200045238Y-97761904D01*
X199950000Y-97666666D01*
X199902380Y-97571428D01*
X199902380Y-97380952D01*
X199950000Y-97285714D01*
X200045238Y-97190476D01*
X200235714Y-97142857D01*
X200569047Y-97142857D01*
X200759523Y-97190476D01*
X200854761Y-97285714D01*
X200902380Y-97380952D01*
X200902380Y-97571428D01*
X200902380Y-96190476D02*
X200902380Y-96761904D01*
X200902380Y-96476190D02*
X199902380Y-96476190D01*
X200045238Y-96571428D01*
X200140476Y-96666666D01*
X200188095Y-96761904D01*
G04 #@! TO.C,Q2*
X190904761Y-98047619D02*
X190809523Y-98000000D01*
X190714285Y-97904761D01*
X190571428Y-97761904D01*
X190476190Y-97714285D01*
X190380952Y-97714285D01*
X190428571Y-97952380D02*
X190333333Y-97904761D01*
X190238095Y-97809523D01*
X190190476Y-97619047D01*
X190190476Y-97285714D01*
X190238095Y-97095238D01*
X190333333Y-97000000D01*
X190428571Y-96952380D01*
X190619047Y-96952380D01*
X190714285Y-97000000D01*
X190809523Y-97095238D01*
X190857142Y-97285714D01*
X190857142Y-97619047D01*
X190809523Y-97809523D01*
X190714285Y-97904761D01*
X190619047Y-97952380D01*
X190428571Y-97952380D01*
X191238095Y-97047619D02*
X191285714Y-97000000D01*
X191380952Y-96952380D01*
X191619047Y-96952380D01*
X191714285Y-97000000D01*
X191761904Y-97047619D01*
X191809523Y-97142857D01*
X191809523Y-97238095D01*
X191761904Y-97380952D01*
X191190476Y-97952380D01*
X191809523Y-97952380D01*
G04 #@! TO.C,R1*
X196833333Y-103452380D02*
X196500000Y-102976190D01*
X196261904Y-103452380D02*
X196261904Y-102452380D01*
X196642857Y-102452380D01*
X196738095Y-102500000D01*
X196785714Y-102547619D01*
X196833333Y-102642857D01*
X196833333Y-102785714D01*
X196785714Y-102880952D01*
X196738095Y-102928571D01*
X196642857Y-102976190D01*
X196261904Y-102976190D01*
X197785714Y-103452380D02*
X197214285Y-103452380D01*
X197500000Y-103452380D02*
X197500000Y-102452380D01*
X197404761Y-102595238D01*
X197309523Y-102690476D01*
X197214285Y-102738095D01*
G04 #@! TO.C,R2*
X214022380Y-97954166D02*
X213546190Y-98287500D01*
X214022380Y-98525595D02*
X213022380Y-98525595D01*
X213022380Y-98144642D01*
X213070000Y-98049404D01*
X213117619Y-98001785D01*
X213212857Y-97954166D01*
X213355714Y-97954166D01*
X213450952Y-98001785D01*
X213498571Y-98049404D01*
X213546190Y-98144642D01*
X213546190Y-98525595D01*
X213117619Y-97573214D02*
X213070000Y-97525595D01*
X213022380Y-97430357D01*
X213022380Y-97192261D01*
X213070000Y-97097023D01*
X213117619Y-97049404D01*
X213212857Y-97001785D01*
X213308095Y-97001785D01*
X213450952Y-97049404D01*
X214022380Y-97620833D01*
X214022380Y-97001785D01*
G04 #@! TO.C,R3*
X174545833Y-66022380D02*
X174212500Y-65546190D01*
X173974404Y-66022380D02*
X173974404Y-65022380D01*
X174355357Y-65022380D01*
X174450595Y-65070000D01*
X174498214Y-65117619D01*
X174545833Y-65212857D01*
X174545833Y-65355714D01*
X174498214Y-65450952D01*
X174450595Y-65498571D01*
X174355357Y-65546190D01*
X173974404Y-65546190D01*
X174879166Y-65022380D02*
X175498214Y-65022380D01*
X175164880Y-65403333D01*
X175307738Y-65403333D01*
X175402976Y-65450952D01*
X175450595Y-65498571D01*
X175498214Y-65593809D01*
X175498214Y-65831904D01*
X175450595Y-65927142D01*
X175402976Y-65974761D01*
X175307738Y-66022380D01*
X175022023Y-66022380D01*
X174926785Y-65974761D01*
X174879166Y-65927142D01*
G04 #@! TO.C,R4*
X174545833Y-71452380D02*
X174212500Y-70976190D01*
X173974404Y-71452380D02*
X173974404Y-70452380D01*
X174355357Y-70452380D01*
X174450595Y-70500000D01*
X174498214Y-70547619D01*
X174545833Y-70642857D01*
X174545833Y-70785714D01*
X174498214Y-70880952D01*
X174450595Y-70928571D01*
X174355357Y-70976190D01*
X173974404Y-70976190D01*
X175402976Y-70785714D02*
X175402976Y-71452380D01*
X175164880Y-70404761D02*
X174926785Y-71119047D01*
X175545833Y-71119047D01*
G04 #@! TO.C,R5*
X197045833Y-93022380D02*
X196712500Y-92546190D01*
X196474404Y-93022380D02*
X196474404Y-92022380D01*
X196855357Y-92022380D01*
X196950595Y-92070000D01*
X196998214Y-92117619D01*
X197045833Y-92212857D01*
X197045833Y-92355714D01*
X196998214Y-92450952D01*
X196950595Y-92498571D01*
X196855357Y-92546190D01*
X196474404Y-92546190D01*
X197950595Y-92022380D02*
X197474404Y-92022380D01*
X197426785Y-92498571D01*
X197474404Y-92450952D01*
X197569642Y-92403333D01*
X197807738Y-92403333D01*
X197902976Y-92450952D01*
X197950595Y-92498571D01*
X197998214Y-92593809D01*
X197998214Y-92831904D01*
X197950595Y-92927142D01*
X197902976Y-92974761D01*
X197807738Y-93022380D01*
X197569642Y-93022380D01*
X197474404Y-92974761D01*
X197426785Y-92927142D01*
G04 #@! TO.C,R6*
X197045833Y-98882380D02*
X196712500Y-98406190D01*
X196474404Y-98882380D02*
X196474404Y-97882380D01*
X196855357Y-97882380D01*
X196950595Y-97930000D01*
X196998214Y-97977619D01*
X197045833Y-98072857D01*
X197045833Y-98215714D01*
X196998214Y-98310952D01*
X196950595Y-98358571D01*
X196855357Y-98406190D01*
X196474404Y-98406190D01*
X197902976Y-97882380D02*
X197712500Y-97882380D01*
X197617261Y-97930000D01*
X197569642Y-97977619D01*
X197474404Y-98120476D01*
X197426785Y-98310952D01*
X197426785Y-98691904D01*
X197474404Y-98787142D01*
X197522023Y-98834761D01*
X197617261Y-98882380D01*
X197807738Y-98882380D01*
X197902976Y-98834761D01*
X197950595Y-98787142D01*
X197998214Y-98691904D01*
X197998214Y-98453809D01*
X197950595Y-98358571D01*
X197902976Y-98310952D01*
X197807738Y-98263333D01*
X197617261Y-98263333D01*
X197522023Y-98310952D01*
X197474404Y-98358571D01*
X197426785Y-98453809D01*
G04 #@! TO.C,R7*
X183633333Y-76682380D02*
X183300000Y-76206190D01*
X183061904Y-76682380D02*
X183061904Y-75682380D01*
X183442857Y-75682380D01*
X183538095Y-75730000D01*
X183585714Y-75777619D01*
X183633333Y-75872857D01*
X183633333Y-76015714D01*
X183585714Y-76110952D01*
X183538095Y-76158571D01*
X183442857Y-76206190D01*
X183061904Y-76206190D01*
X183966666Y-75682380D02*
X184633333Y-75682380D01*
X184204761Y-76682380D01*
G04 #@! TO.C,R8*
X197045833Y-77022380D02*
X196712500Y-76546190D01*
X196474404Y-77022380D02*
X196474404Y-76022380D01*
X196855357Y-76022380D01*
X196950595Y-76070000D01*
X196998214Y-76117619D01*
X197045833Y-76212857D01*
X197045833Y-76355714D01*
X196998214Y-76450952D01*
X196950595Y-76498571D01*
X196855357Y-76546190D01*
X196474404Y-76546190D01*
X197617261Y-76450952D02*
X197522023Y-76403333D01*
X197474404Y-76355714D01*
X197426785Y-76260476D01*
X197426785Y-76212857D01*
X197474404Y-76117619D01*
X197522023Y-76070000D01*
X197617261Y-76022380D01*
X197807738Y-76022380D01*
X197902976Y-76070000D01*
X197950595Y-76117619D01*
X197998214Y-76212857D01*
X197998214Y-76260476D01*
X197950595Y-76355714D01*
X197902976Y-76403333D01*
X197807738Y-76450952D01*
X197617261Y-76450952D01*
X197522023Y-76498571D01*
X197474404Y-76546190D01*
X197426785Y-76641428D01*
X197426785Y-76831904D01*
X197474404Y-76927142D01*
X197522023Y-76974761D01*
X197617261Y-77022380D01*
X197807738Y-77022380D01*
X197902976Y-76974761D01*
X197950595Y-76927142D01*
X197998214Y-76831904D01*
X197998214Y-76641428D01*
X197950595Y-76546190D01*
X197902976Y-76498571D01*
X197807738Y-76450952D01*
G04 #@! TO.C,R9*
X178022380Y-67954166D02*
X177546190Y-68287500D01*
X178022380Y-68525595D02*
X177022380Y-68525595D01*
X177022380Y-68144642D01*
X177070000Y-68049404D01*
X177117619Y-68001785D01*
X177212857Y-67954166D01*
X177355714Y-67954166D01*
X177450952Y-68001785D01*
X177498571Y-68049404D01*
X177546190Y-68144642D01*
X177546190Y-68525595D01*
X178022380Y-67477976D02*
X178022380Y-67287500D01*
X177974761Y-67192261D01*
X177927142Y-67144642D01*
X177784285Y-67049404D01*
X177593809Y-67001785D01*
X177212857Y-67001785D01*
X177117619Y-67049404D01*
X177070000Y-67097023D01*
X177022380Y-67192261D01*
X177022380Y-67382738D01*
X177070000Y-67477976D01*
X177117619Y-67525595D01*
X177212857Y-67573214D01*
X177450952Y-67573214D01*
X177546190Y-67525595D01*
X177593809Y-67477976D01*
X177641428Y-67382738D01*
X177641428Y-67192261D01*
X177593809Y-67097023D01*
X177546190Y-67049404D01*
X177450952Y-67001785D01*
G04 #@! TO.C,SW1*
X196666666Y-90154761D02*
X196809523Y-90202380D01*
X197047619Y-90202380D01*
X197142857Y-90154761D01*
X197190476Y-90107142D01*
X197238095Y-90011904D01*
X197238095Y-89916666D01*
X197190476Y-89821428D01*
X197142857Y-89773809D01*
X197047619Y-89726190D01*
X196857142Y-89678571D01*
X196761904Y-89630952D01*
X196714285Y-89583333D01*
X196666666Y-89488095D01*
X196666666Y-89392857D01*
X196714285Y-89297619D01*
X196761904Y-89250000D01*
X196857142Y-89202380D01*
X197095238Y-89202380D01*
X197238095Y-89250000D01*
X197571428Y-89202380D02*
X197809523Y-90202380D01*
X198000000Y-89488095D01*
X198190476Y-90202380D01*
X198428571Y-89202380D01*
X199333333Y-90202380D02*
X198761904Y-90202380D01*
X199047619Y-90202380D02*
X199047619Y-89202380D01*
X198952380Y-89345238D01*
X198857142Y-89440476D01*
X198761904Y-89488095D01*
G04 #@! TO.C,SW2*
X186666666Y-84154761D02*
X186809523Y-84202380D01*
X187047619Y-84202380D01*
X187142857Y-84154761D01*
X187190476Y-84107142D01*
X187238095Y-84011904D01*
X187238095Y-83916666D01*
X187190476Y-83821428D01*
X187142857Y-83773809D01*
X187047619Y-83726190D01*
X186857142Y-83678571D01*
X186761904Y-83630952D01*
X186714285Y-83583333D01*
X186666666Y-83488095D01*
X186666666Y-83392857D01*
X186714285Y-83297619D01*
X186761904Y-83250000D01*
X186857142Y-83202380D01*
X187095238Y-83202380D01*
X187238095Y-83250000D01*
X187571428Y-83202380D02*
X187809523Y-84202380D01*
X188000000Y-83488095D01*
X188190476Y-84202380D01*
X188428571Y-83202380D01*
X188761904Y-83297619D02*
X188809523Y-83250000D01*
X188904761Y-83202380D01*
X189142857Y-83202380D01*
X189238095Y-83250000D01*
X189285714Y-83297619D01*
X189333333Y-83392857D01*
X189333333Y-83488095D01*
X189285714Y-83630952D01*
X188714285Y-84202380D01*
X189333333Y-84202380D01*
G04 #@! TO.C,U3*
X174952380Y-91761904D02*
X175761904Y-91761904D01*
X175857142Y-91714285D01*
X175904761Y-91666666D01*
X175952380Y-91571428D01*
X175952380Y-91380952D01*
X175904761Y-91285714D01*
X175857142Y-91238095D01*
X175761904Y-91190476D01*
X174952380Y-91190476D01*
X174952380Y-90809523D02*
X174952380Y-90190476D01*
X175333333Y-90523809D01*
X175333333Y-90380952D01*
X175380952Y-90285714D01*
X175428571Y-90238095D01*
X175523809Y-90190476D01*
X175761904Y-90190476D01*
X175857142Y-90238095D01*
X175904761Y-90285714D01*
X175952380Y-90380952D01*
X175952380Y-90666666D01*
X175904761Y-90761904D01*
X175857142Y-90809523D01*
G04 #@! TO.C,U4*
X197168095Y-73202380D02*
X197168095Y-74011904D01*
X197215714Y-74107142D01*
X197263333Y-74154761D01*
X197358571Y-74202380D01*
X197549047Y-74202380D01*
X197644285Y-74154761D01*
X197691904Y-74107142D01*
X197739523Y-74011904D01*
X197739523Y-73202380D01*
X198644285Y-73535714D02*
X198644285Y-74202380D01*
X198406190Y-73154761D02*
X198168095Y-73869047D01*
X198787142Y-73869047D01*
G04 #@! TO.C,R10*
X206569642Y-74022380D02*
X206236309Y-73546190D01*
X205998214Y-74022380D02*
X205998214Y-73022380D01*
X206379166Y-73022380D01*
X206474404Y-73070000D01*
X206522023Y-73117619D01*
X206569642Y-73212857D01*
X206569642Y-73355714D01*
X206522023Y-73450952D01*
X206474404Y-73498571D01*
X206379166Y-73546190D01*
X205998214Y-73546190D01*
X207522023Y-74022380D02*
X206950595Y-74022380D01*
X207236309Y-74022380D02*
X207236309Y-73022380D01*
X207141071Y-73165238D01*
X207045833Y-73260476D01*
X206950595Y-73308095D01*
X208141071Y-73022380D02*
X208236309Y-73022380D01*
X208331547Y-73070000D01*
X208379166Y-73117619D01*
X208426785Y-73212857D01*
X208474404Y-73403333D01*
X208474404Y-73641428D01*
X208426785Y-73831904D01*
X208379166Y-73927142D01*
X208331547Y-73974761D01*
X208236309Y-74022380D01*
X208141071Y-74022380D01*
X208045833Y-73974761D01*
X207998214Y-73927142D01*
X207950595Y-73831904D01*
X207902976Y-73641428D01*
X207902976Y-73403333D01*
X207950595Y-73212857D01*
X207998214Y-73117619D01*
X208045833Y-73070000D01*
X208141071Y-73022380D01*
G04 #@! TO.C,R11*
X206357142Y-78022380D02*
X206023809Y-77546190D01*
X205785714Y-78022380D02*
X205785714Y-77022380D01*
X206166666Y-77022380D01*
X206261904Y-77070000D01*
X206309523Y-77117619D01*
X206357142Y-77212857D01*
X206357142Y-77355714D01*
X206309523Y-77450952D01*
X206261904Y-77498571D01*
X206166666Y-77546190D01*
X205785714Y-77546190D01*
X207309523Y-78022380D02*
X206738095Y-78022380D01*
X207023809Y-78022380D02*
X207023809Y-77022380D01*
X206928571Y-77165238D01*
X206833333Y-77260476D01*
X206738095Y-77308095D01*
X208261904Y-78022380D02*
X207690476Y-78022380D01*
X207976190Y-78022380D02*
X207976190Y-77022380D01*
X207880952Y-77165238D01*
X207785714Y-77260476D01*
X207690476Y-77308095D01*
G04 #@! TO.C, *
G04 #@! TD*
M02*
